<?xml version="1.0" standalone="no"?>
<!DOCTYPE svg PUBLIC "-//W3C//DTD SVG 20010904//EN"
 "http://www.w3.org/TR/2001/REC-SVG-20010904/DTD/svg10.dtd">
<svg version="1.0" xmlns="http://www.w3.org/2000/svg"
 width="620.000000pt" height="620.000000pt" viewBox="0 0 620.000000 620.000000"
 preserveAspectRatio="xMidYMid meet">
<metadata>
Created by potrace 1.14, written by Peter Selinger 2001-2017
</metadata>
<g transform="translate(0.000000,620.000000) scale(0.100000,-0.100000)"
fill="#000000" stroke="none">
<path d="M2955 5440 c-580 -51 -1022 -271 -1374 -681 -60 -70 -177 -255 -233
-369 -199 -401 -281 -855 -257 -1425 18 -433 97 -779 248 -1090 243 -499 635
-807 1181 -928 210 -47 368 -60 630 -54 260 7 360 17 558 53 164 30 315 71
469 126 l118 43 3 399 c2 356 1 398 -13 392 -54 -20 -319 -100 -419 -126 -349
-89 -697 -122 -906 -86 l-75 13 146 2 c246 2 425 63 616 208 171 130 300 326
359 548 29 108 27 379 -4 495 -52 193 -185 405 -329 522 -68 55 -160 118 -174
118 -4 0 14 -42 41 -92 224 -430 231 -859 20 -1168 -165 -240 -469 -419 -815
-480 -196 -34 -199 -33 -323 91 -137 136 -229 311 -292 553 -51 201 -65 331
-65 641 0 296 6 368 52 574 160 732 681 1067 1393 894 115 -28 315 -100 514
-187 71 -31 133 -53 137 -49 9 9 299 737 299 751 0 22 -322 150 -518 206 -318
92 -693 132 -987 106z"/>
<path d="M3143 4335 c-204 -37 -386 -132 -531 -277 -265 -263 -360 -635 -257
-994 49 -168 137 -314 267 -441 64 -63 210 -173 228 -173 4 0 -19 52 -51 115
-62 123 -118 282 -145 410 -26 123 -24 335 4 450 96 384 421 659 910 765 51
11 126 23 167 27 41 3 75 9 75 13 0 14 -207 89 -289 104 -99 19 -277 19 -378
1z"/>
</g>
</svg>
