<svg width="89" height="52" viewBox="0 0 89 52" fill="none" xmlns="http://www.w3.org/2000/svg">
<path d="M40.7714 11.5C43.6282 11.5 46.3679 12.6348 48.388 14.6549C50.408 16.6749 51.5429 19.4147 51.5429 22.2714C51.5429 24.9394 50.5651 27.392 48.9577 29.2811L49.4051 29.7286H50.7143L59 38.0143L56.5143 40.5L48.2286 32.2143V30.9051L47.7811 30.4577C45.892 32.0651 43.4394 33.0429 40.7714 33.0429C37.9147 33.0429 35.1749 31.908 33.1549 29.888C31.1348 27.8679 30 25.1282 30 22.2714C30 19.4147 31.1348 16.6749 33.1549 14.6549C35.1749 12.6348 37.9147 11.5 40.7714 11.5ZM40.7714 14.8143C36.6286 14.8143 33.3143 18.1286 33.3143 22.2714C33.3143 26.4143 36.6286 29.7286 40.7714 29.7286C44.9143 29.7286 48.2286 26.4143 48.2286 22.2714C48.2286 18.1286 44.9143 14.8143 40.7714 14.8143Z" fill="#6D95FC"/>
</svg>
