<svg width="226" height="213" viewBox="0 0 226 213" fill="none" xmlns="http://www.w3.org/2000/svg">
<path d="M95.3788 79.4202H81.5884C81.1657 79.4202 80.8223 79.0768 80.8223 78.6541V69.4605C80.8223 69.0377 81.1657 68.6943 81.5884 68.6943C82.0111 68.6943 82.3545 69.0377 82.3545 69.4605V77.888H95.3788C95.8016 77.888 96.145 78.2313 96.145 78.6541C96.145 79.0768 95.8016 79.4202 95.3788 79.4202Z" fill="#6D95FC"/>
<path d="M155.136 79.4201H115.297C114.875 79.4201 114.531 79.0767 114.531 78.654C114.531 78.2312 114.875 77.8878 115.297 77.8878H154.369V39.5811H116.828C116.405 39.5811 116.062 39.2377 116.062 38.815C116.062 38.3922 116.405 38.0488 116.828 38.0488H155.135C155.557 38.0488 155.901 38.3922 155.901 38.815V78.654C155.901 79.0767 155.557 79.4201 155.135 79.4201H155.136Z" fill="white"/>
<path d="M106.104 103.936C106.05 103.936 105.993 103.93 105.938 103.917C105.524 103.826 105.266 103.417 105.356 103.003L108.42 89.2125C108.512 88.8 108.917 88.5428 109.335 88.6304C109.749 88.722 110.007 89.1311 109.917 89.545L106.853 103.335C106.773 103.692 106.454 103.936 106.104 103.936Z" fill="white"/>
<path d="M130.62 103.936C130.269 103.936 129.95 103.692 129.872 103.335L126.807 89.5449C126.716 89.1311 126.976 88.722 127.39 88.6303C127.808 88.5428 128.212 88.8007 128.304 89.2125L131.369 103.003C131.46 103.417 131.2 103.826 130.787 103.917C130.73 103.93 130.673 103.936 130.62 103.936Z" fill="white"/>
<path d="M139.813 90.1461H81.1648C78.4402 90.1461 76.2246 87.8997 76.2246 85.1369V69.4605C76.2246 69.0377 76.568 68.6943 76.9907 68.6943C77.4135 68.6943 77.7569 69.0377 77.7569 69.4605V85.1369C77.7569 87.0542 79.2844 88.6138 81.1648 88.6138H139.813C140.236 88.6138 140.579 88.9572 140.579 89.38C140.579 89.8027 140.236 90.1461 139.813 90.1461Z" fill="white"/>
<path d="M155.559 90.1461H152.072C151.649 90.1461 151.306 89.8027 151.306 89.38C151.306 88.9572 151.649 88.6138 152.072 88.6138H155.559C157.44 88.6138 158.967 87.0542 158.967 85.1369V38.4614C158.967 36.544 157.44 34.9844 155.559 34.9844H116.831C116.408 34.9844 116.064 34.641 116.064 34.2183C116.064 33.7955 116.408 33.4521 116.831 33.4521H155.559C158.284 33.4521 160.5 35.6985 160.5 38.4614V85.1369C160.5 87.899 158.284 90.1456 155.559 90.1456V90.1461Z" fill="white"/>
<path d="M148.242 107.001H143.646C141.111 107.001 139.049 104.938 139.049 102.404V88.6134C139.049 86.0789 141.111 84.0166 143.646 84.0166H148.242C150.777 84.0166 152.839 86.0789 152.839 88.6134V102.404C152.839 104.938 150.777 107.001 148.242 107.001ZM143.646 85.5489C141.955 85.5489 140.581 86.9231 140.581 88.6134V102.404C140.581 104.094 141.955 105.468 143.646 105.468H148.242C149.933 105.468 151.307 104.094 151.307 102.404V88.6134C151.307 86.9231 149.933 85.5489 148.242 85.5489H143.646Z" fill="white"/>
<path d="M145.942 93.2101C145.519 93.2101 145.176 92.8667 145.176 92.444V89.3794C145.176 88.9567 145.519 88.6133 145.942 88.6133C146.365 88.6133 146.708 88.9567 146.708 89.3794V92.444C146.708 92.8667 146.365 93.2101 145.942 93.2101Z" fill="white"/>
<path d="M133.684 107.001H103.039C101.772 107.001 100.74 105.97 100.74 104.703C100.74 103.436 101.772 102.404 103.039 102.404H133.684C134.951 102.404 135.982 103.436 135.982 104.703C135.982 105.97 134.951 107.001 133.684 107.001ZM103.039 103.937C102.617 103.937 102.273 104.28 102.273 104.703C102.273 105.125 102.617 105.469 103.039 105.469H133.684C134.105 105.469 134.45 105.125 134.45 104.703C134.45 104.28 134.105 103.937 133.684 103.937H103.039Z" fill="white"/>
<path d="M116.831 70.2262H66.2661C65.8434 70.2262 65.5 69.8829 65.5 69.4601V12.7661C65.5 12.3434 65.8434 12 66.2661 12H116.831C117.254 12 117.597 12.3434 117.597 12.7661V69.4601C117.597 69.8829 117.254 70.2262 116.831 70.2262ZM67.0314 68.694H116.064V13.5323H67.0314V68.694Z" fill="white"/>
<path d="M152.072 30.3871H127.555C127.132 30.3871 126.789 30.0438 126.789 29.621V15.8306C126.789 15.4078 127.132 15.0645 127.555 15.0645H152.072C152.494 15.0645 152.838 15.4078 152.838 15.8306V29.621C152.838 30.0438 152.494 30.3871 152.072 30.3871ZM128.322 28.8549H151.306V16.5967H128.322V28.8549Z" fill="white"/>
<path d="M150.541 50.3069H121.428C121.005 50.3069 120.662 49.9635 120.662 49.5407V43.4116C120.662 42.9889 121.005 42.6455 121.428 42.6455H150.541C150.964 42.6455 151.307 42.9889 151.307 43.4116V49.5407C151.307 49.9635 150.964 50.3069 150.541 50.3069ZM122.194 48.7746H149.774V44.1778H122.194V48.7746Z" fill="#6D95FC"/>
<path d="M130.62 65.6291H121.426C121.004 65.6291 120.66 65.2857 120.66 64.863V58.7339C120.66 58.3112 121.004 57.9678 121.426 57.9678H130.62C131.043 57.9678 131.386 58.3112 131.386 58.7339V64.863C131.386 65.2857 131.043 65.6291 130.62 65.6291ZM122.192 64.0969H129.854V59.5H122.192V64.0969Z" fill="#6D95FC"/>
<path d="M150.54 65.6291H135.217C134.795 65.6291 134.451 65.2857 134.451 64.863V58.7339C134.451 58.3112 134.795 57.9678 135.217 57.9678H150.54C150.963 57.9678 151.306 58.3112 151.306 58.7339V64.863C151.306 65.2857 150.963 65.6291 150.54 65.6291ZM135.983 64.0969H149.774V59.5H135.983V64.0969Z" fill="#6D95FC"/>
<path d="M150.541 74.8233H86.1861C85.7633 74.8233 85.4199 74.4799 85.4199 74.0572C85.4199 73.6344 85.7633 73.291 86.1861 73.291H150.541C150.964 73.291 151.308 73.6344 151.308 74.0572C151.308 74.4799 150.964 74.8233 150.541 74.8233Z" fill="#6D95FC"/>
<path d="M150.541 70.2266H121.428C121.005 70.2266 120.662 69.8832 120.662 69.4605C120.662 69.0377 121.005 68.6943 121.428 68.6943H150.541C150.964 68.6943 151.307 69.0377 151.307 69.4605C151.307 69.8832 150.964 70.2266 150.541 70.2266Z" fill="#6D95FC"/>
<path d="M150.541 54.9034H121.428C121.005 54.9034 120.662 54.56 120.662 54.1372C120.662 53.7145 121.005 53.3711 121.428 53.3711H150.541C150.964 53.3711 151.307 53.7145 151.307 54.1372C151.307 54.56 150.964 54.9034 150.541 54.9034Z" fill="#6D95FC"/>
<path d="M75.4576 25.7903C73.3447 25.7903 71.627 24.0712 71.627 21.9596C71.627 19.8479 73.3446 18.1289 75.4576 18.1289C77.5707 18.1289 79.2883 19.8479 79.2883 21.9596C79.2883 24.0712 77.5707 25.7903 75.4576 25.7903ZM75.4576 19.6612C74.1908 19.6612 73.1592 20.6927 73.1592 21.9596C73.1592 23.2264 74.1908 24.258 75.4576 24.258C76.7245 24.258 77.756 23.2264 77.756 21.9596C77.756 20.6927 76.7245 19.6612 75.4576 19.6612Z" fill="#6D95FC"/>
<path d="M78.5222 30.3868H72.3931C71.9703 30.3868 71.627 30.0434 71.627 29.6206C71.627 29.1979 71.9703 28.8545 72.3931 28.8545H78.5222C78.9449 28.8545 79.2883 29.1979 79.2883 29.6206C79.2883 30.0434 78.9449 30.3868 78.5222 30.3868Z" fill="#6D95FC"/>
<path d="M95.3787 30.3868H87.7173C87.2946 30.3868 86.9512 30.0434 86.9512 29.6206C86.9512 29.1979 87.2946 28.8545 87.7173 28.8545H95.3787C95.8014 28.8545 96.1448 29.1979 96.1448 29.6206C96.1448 30.0434 95.8014 30.3868 95.3787 30.3868Z" fill="#6D95FC"/>
<path d="M107.637 25.7903C105.524 25.7903 103.807 24.0712 103.807 21.9596C103.807 19.8479 105.524 18.1289 107.637 18.1289C109.75 18.1289 111.468 19.8479 111.468 21.9596C111.468 24.0712 109.75 25.7903 107.637 25.7903ZM107.637 19.6612C106.37 19.6612 105.339 20.6927 105.339 21.9596C105.339 23.2264 106.37 24.258 107.637 24.258C108.904 24.258 109.936 23.2264 109.936 21.9596C109.936 20.6927 108.904 19.6612 107.637 19.6612Z" fill="#6D95FC"/>
<path d="M110.702 30.3868H104.573C104.15 30.3868 103.807 30.0434 103.807 29.6206C103.807 29.1979 104.15 28.8545 104.573 28.8545H110.702C111.125 28.8545 111.468 29.1979 111.468 29.6206C111.468 30.0434 111.125 30.3868 110.702 30.3868Z" fill="#6D95FC"/>
<path d="M95.3787 25.7903H87.7173C87.2946 25.7903 86.9512 25.4469 86.9512 25.0241V18.895C86.9512 18.4723 87.2946 18.1289 87.7173 18.1289H95.3787C95.8014 18.1289 96.1448 18.4723 96.1448 18.895V25.0241C96.1448 25.4469 95.8014 25.7903 95.3787 25.7903ZM88.4834 24.258H94.6125V19.6612H88.4834V24.258Z" fill="#6D95FC"/>
<path d="M110.702 45.71H72.395C71.9723 45.71 71.6289 45.3666 71.6289 44.9439C71.6289 44.5211 71.9723 44.1777 72.395 44.1777H110.702C111.125 44.1777 111.468 44.5211 111.468 44.9439C111.468 45.3666 111.125 45.71 110.702 45.71Z" fill="#6D95FC"/>
<path d="M110.702 64.0967H72.395C71.9723 64.0967 71.6289 63.7533 71.6289 63.3306C71.6289 62.9078 71.9723 62.5645 72.395 62.5645H110.702C111.125 62.5645 111.468 62.9078 111.468 63.3306C111.468 63.7533 111.125 64.0967 110.702 64.0967Z" fill="#6D95FC"/>
<path d="M144.413 21.1934H141.348C140.925 21.1934 140.582 20.85 140.582 20.4273C140.582 20.0045 140.925 19.6611 141.348 19.6611H144.413C144.835 19.6611 145.179 20.0045 145.179 20.4273C145.179 20.85 144.835 21.1934 144.413 21.1934Z" fill="white"/>
<path d="M147.477 25.7901H141.348C140.925 25.7901 140.582 25.4467 140.582 25.0239C140.582 24.6012 140.925 24.2578 141.348 24.2578H147.477C147.9 24.2578 148.243 24.6012 148.243 25.0239C148.243 25.4467 147.9 25.7901 147.477 25.7901Z" fill="white"/>
<path d="M138.282 25.7902H132.153C131.73 25.7902 131.387 25.4468 131.387 25.0241V20.4273C131.387 20.0045 131.73 19.6611 132.153 19.6611H138.282C138.705 19.6611 139.048 20.0045 139.048 20.4273V25.0241C139.048 25.4468 138.705 25.7902 138.282 25.7902ZM132.919 24.2579H137.516V21.1934H132.919V24.2579Z" fill="white"/>
<path d="M107.636 79.42H99.9751C99.5524 79.42 99.209 79.0766 99.209 78.6538C99.209 78.2311 99.5524 77.8877 99.9751 77.8877H107.636C108.059 77.8877 108.403 78.2311 108.403 78.6538C108.403 79.0766 108.059 79.42 107.636 79.42Z" fill="#6D95FC"/>
<path d="M38.8291 126.843V135.915C38.8291 136.909 39.0881 137.672 39.6061 138.204C40.1241 138.722 40.8521 138.981 41.7901 138.981C42.7421 138.981 43.4771 138.722 43.9951 138.204C44.5131 137.672 44.7721 136.909 44.7721 135.915V126.843H47.7331V135.894C47.7331 137.14 47.4601 138.197 46.9141 139.065C46.3821 139.919 45.6611 140.563 44.7511 140.997C43.8551 141.431 42.8541 141.648 41.7481 141.648C40.6561 141.648 39.6621 141.431 38.7661 140.997C37.8841 140.563 37.1841 139.919 36.6661 139.065C36.1481 138.197 35.8891 137.14 35.8891 135.894V126.843H38.8291ZM54.7737 126.843V141.501H51.8337V126.843H54.7737ZM66.8134 121.614L61.1434 145.302H58.2664L63.9364 121.614H66.8134ZM73.3093 126.843V135.915C73.3093 136.909 73.5683 137.672 74.0863 138.204C74.6043 138.722 75.3323 138.981 76.2703 138.981C77.2223 138.981 77.9573 138.722 78.4753 138.204C78.9933 137.672 79.2523 136.909 79.2523 135.915V126.843H82.2133V135.894C82.2133 137.14 81.9403 138.197 81.3943 139.065C80.8623 139.919 80.1413 140.563 79.2313 140.997C78.3353 141.431 77.3343 141.648 76.2283 141.648C75.1363 141.648 74.1423 141.431 73.2463 140.997C72.3643 140.563 71.6643 139.919 71.1463 139.065C70.6283 138.197 70.3693 137.14 70.3693 135.894V126.843H73.3093ZM95.0919 141.501L91.9209 136.566L89.0439 141.501H85.7259L90.3459 134.109L85.6629 126.843H89.0439L92.2149 131.757L95.0709 126.843H98.3889L93.7899 134.214L98.4729 141.501H95.0919ZM113.358 126.843C114.898 126.843 116.249 127.144 117.411 127.746C118.587 128.348 119.49 129.209 120.12 130.329C120.764 131.435 121.086 132.723 121.086 134.193C121.086 135.663 120.764 136.951 120.12 138.057C119.49 139.149 118.587 139.996 117.411 140.598C116.249 141.2 114.898 141.501 113.358 141.501H108.234V126.843H113.358ZM113.253 139.002C114.793 139.002 115.983 138.582 116.823 137.742C117.663 136.902 118.083 135.719 118.083 134.193C118.083 132.667 117.663 131.477 116.823 130.623C115.983 129.755 114.793 129.321 113.253 129.321H111.174V139.002H113.253ZM127.487 129.216V132.891H132.422V135.222H127.487V139.107H133.052V141.501H124.547V126.822H133.052V129.216H127.487ZM142.045 141.648C141.023 141.648 140.099 141.473 139.273 141.123C138.461 140.773 137.817 140.269 137.341 139.611C136.865 138.953 136.62 138.176 136.606 137.28H139.756C139.798 137.882 140.008 138.358 140.386 138.708C140.778 139.058 141.31 139.233 141.982 139.233C142.668 139.233 143.207 139.072 143.599 138.75C143.991 138.414 144.187 137.98 144.187 137.448C144.187 137.014 144.054 136.657 143.788 136.377C143.522 136.097 143.186 135.88 142.78 135.726C142.388 135.558 141.842 135.376 141.142 135.18C140.19 134.9 139.413 134.627 138.811 134.361C138.223 134.081 137.712 133.668 137.278 133.122C136.858 132.562 136.648 131.82 136.648 130.896C136.648 130.028 136.865 129.272 137.299 128.628C137.733 127.984 138.342 127.494 139.126 127.158C139.91 126.808 140.806 126.633 141.814 126.633C143.326 126.633 144.551 127.004 145.489 127.746C146.441 128.474 146.966 129.496 147.064 130.812H143.83C143.802 130.308 143.585 129.895 143.179 129.573C142.787 129.237 142.262 129.069 141.604 129.069C141.03 129.069 140.568 129.216 140.218 129.51C139.882 129.804 139.714 130.231 139.714 130.791C139.714 131.183 139.84 131.512 140.092 131.778C140.358 132.03 140.68 132.24 141.058 132.408C141.45 132.562 141.996 132.744 142.696 132.954C143.648 133.234 144.425 133.514 145.027 133.794C145.629 134.074 146.147 134.494 146.581 135.054C147.015 135.614 147.232 136.349 147.232 137.259C147.232 138.043 147.029 138.771 146.623 139.443C146.217 140.115 145.622 140.654 144.838 141.06C144.054 141.452 143.123 141.648 142.045 141.648ZM153.981 126.843V141.501H151.041V126.843H153.981ZM168.351 131.253C168.015 130.637 167.553 130.168 166.965 129.846C166.377 129.524 165.691 129.363 164.907 129.363C164.039 129.363 163.269 129.559 162.597 129.951C161.925 130.343 161.4 130.903 161.022 131.631C160.644 132.359 160.455 133.199 160.455 134.151C160.455 135.131 160.644 135.985 161.022 136.713C161.414 137.441 161.953 138.001 162.639 138.393C163.325 138.785 164.123 138.981 165.033 138.981C166.153 138.981 167.07 138.687 167.784 138.099C168.498 137.497 168.967 136.664 169.191 135.6H164.151V133.353H172.089V135.915C171.893 136.937 171.473 137.882 170.829 138.75C170.185 139.618 169.352 140.318 168.33 140.85C167.322 141.368 166.188 141.627 164.928 141.627C163.514 141.627 162.233 141.312 161.085 140.682C159.951 140.038 159.055 139.149 158.397 138.015C157.753 136.881 157.431 135.593 157.431 134.151C157.431 132.709 157.753 131.421 158.397 130.287C159.055 129.139 159.951 128.25 161.085 127.62C162.233 126.976 163.507 126.654 164.907 126.654C166.559 126.654 167.994 127.06 169.212 127.872C170.43 128.67 171.27 129.797 171.732 131.253H168.351ZM188.062 141.501H185.122L178.465 131.442V141.501H175.525V126.822H178.465L185.122 136.902V126.822H188.062V141.501Z" fill="#6D95FC"/>
<path d="M10.8755 165.532H15.1425V166.501H9.68549V154.618H10.8755V165.532ZM21.5838 166.637C20.7111 166.637 19.9234 166.444 19.2208 166.059C18.5294 165.662 17.9798 165.107 17.5718 164.393C17.1751 163.668 16.9768 162.823 16.9768 161.86C16.9768 160.897 17.1808 160.058 17.5888 159.344C17.9968 158.619 18.5521 158.063 19.2548 157.678C19.9574 157.281 20.7451 157.083 21.6178 157.083C22.4904 157.083 23.2781 157.281 23.9808 157.678C24.6948 158.063 25.2501 158.619 25.6468 159.344C26.0548 160.058 26.2588 160.897 26.2588 161.86C26.2588 162.812 26.0548 163.651 25.6468 164.376C25.2388 165.101 24.6778 165.662 23.9638 166.059C23.2498 166.444 22.4564 166.637 21.5838 166.637ZM21.5838 165.6C22.1958 165.6 22.7624 165.464 23.2838 165.192C23.8051 164.909 24.2244 164.489 24.5418 163.934C24.8704 163.367 25.0348 162.676 25.0348 161.86C25.0348 161.044 24.8761 160.358 24.5588 159.803C24.2414 159.236 23.8221 158.817 23.3008 158.545C22.7794 158.262 22.2128 158.12 21.6008 158.12C20.9888 158.12 20.4221 158.262 19.9008 158.545C19.3794 158.817 18.9601 159.236 18.6428 159.803C18.3368 160.358 18.1838 161.044 18.1838 161.86C18.1838 162.676 18.3368 163.367 18.6428 163.934C18.9601 164.489 19.3738 164.909 19.8838 165.192C20.4051 165.464 20.9718 165.6 21.5838 165.6ZM30.298 158.868C30.5587 158.29 30.9553 157.842 31.488 157.525C32.032 157.208 32.695 157.049 33.477 157.049V158.29H33.154C32.2927 158.29 31.6013 158.522 31.08 158.987C30.5587 159.452 30.298 160.228 30.298 161.316V166.501H29.108V157.219H30.298V158.868ZM44.3452 161.384C44.3452 161.792 44.3338 162.104 44.3112 162.319H36.6102C36.6442 163.022 36.8142 163.622 37.1202 164.121C37.4262 164.62 37.8285 164.999 38.3272 165.26C38.8258 165.509 39.3698 165.634 39.9592 165.634C40.7298 165.634 41.3758 165.447 41.8972 165.073C42.4298 164.699 42.7812 164.195 42.9512 163.56H44.2092C43.9825 164.467 43.4952 165.209 42.7472 165.787C42.0105 166.354 41.0812 166.637 39.9592 166.637C39.0865 166.637 38.3045 166.444 37.6132 166.059C36.9218 165.662 36.3778 165.107 35.9812 164.393C35.5958 163.668 35.4032 162.823 35.4032 161.86C35.4032 160.897 35.5958 160.052 35.9812 159.327C36.3665 158.602 36.9048 158.046 37.5962 157.661C38.2875 157.276 39.0752 157.083 39.9592 157.083C40.8432 157.083 41.6138 157.276 42.2712 157.661C42.9398 158.046 43.4498 158.568 43.8012 159.225C44.1638 159.871 44.3452 160.591 44.3452 161.384ZM43.1382 161.35C43.1495 160.659 43.0078 160.069 42.7132 159.582C42.4298 159.095 42.0388 158.726 41.5402 158.477C41.0415 158.228 40.4975 158.103 39.9082 158.103C39.0242 158.103 38.2705 158.386 37.6472 158.953C37.0238 159.52 36.6782 160.319 36.6102 161.35H43.1382ZM58.2524 157.049C59.3404 157.049 60.2244 157.395 60.9044 158.086C61.5957 158.766 61.9414 159.758 61.9414 161.061V166.501H60.7684V161.197C60.7684 160.188 60.5247 159.418 60.0374 158.885C59.55 158.352 58.887 158.086 58.0484 158.086C57.1757 158.086 56.4787 158.375 55.9574 158.953C55.436 159.531 55.1754 160.37 55.1754 161.469V166.501H54.0024V161.197C54.0024 160.188 53.7587 159.418 53.2714 158.885C52.784 158.352 52.1154 158.086 51.2654 158.086C50.3927 158.086 49.6957 158.375 49.1744 158.953C48.653 159.531 48.3924 160.37 48.3924 161.469V166.501H47.2024V157.219H48.3924V158.817C48.687 158.239 49.1064 157.803 49.6504 157.508C50.1944 157.202 50.8007 157.049 51.4694 157.049C52.274 157.049 52.9767 157.242 53.5774 157.627C54.1894 158.012 54.6314 158.579 54.9034 159.327C55.1527 158.59 55.5777 158.029 56.1784 157.644C56.7904 157.247 57.4817 157.049 58.2524 157.049ZM71.2042 155.468C70.9662 155.468 70.7622 155.383 70.5922 155.213C70.4222 155.043 70.3372 154.833 70.3372 154.584C70.3372 154.335 70.4222 154.131 70.5922 153.972C70.7622 153.802 70.9662 153.717 71.2042 153.717C71.4422 153.717 71.6462 153.802 71.8162 153.972C71.9862 154.131 72.0712 154.335 72.0712 154.584C72.0712 154.833 71.9862 155.043 71.8162 155.213C71.6462 155.383 71.4422 155.468 71.2042 155.468ZM71.7992 157.219V166.501H70.6092V157.219H71.7992ZM76.347 159.259C76.6417 158.636 77.1063 158.12 77.741 157.712C78.387 157.293 79.152 157.083 80.036 157.083C80.8747 157.083 81.6283 157.281 82.297 157.678C82.977 158.063 83.504 158.619 83.878 159.344C84.2633 160.058 84.456 160.891 84.456 161.843C84.456 162.795 84.2633 163.634 83.878 164.359C83.504 165.084 82.977 165.645 82.297 166.042C81.6283 166.439 80.8747 166.637 80.036 166.637C79.1633 166.637 78.404 166.433 77.758 166.025C77.112 165.606 76.6417 165.084 76.347 164.461V170.887H75.174V157.219H76.347V159.259ZM83.249 161.843C83.249 161.072 83.096 160.409 82.79 159.854C82.4953 159.287 82.0873 158.857 81.566 158.562C81.0447 158.267 80.4553 158.12 79.798 158.12C79.1633 158.12 78.5797 158.273 78.047 158.579C77.5257 158.885 77.112 159.321 76.806 159.888C76.5 160.455 76.347 161.112 76.347 161.86C76.347 162.608 76.5 163.265 76.806 163.832C77.112 164.399 77.5257 164.835 78.047 165.141C78.5797 165.447 79.1633 165.6 79.798 165.6C80.4553 165.6 81.0447 165.453 81.566 165.158C82.0873 164.852 82.4953 164.416 82.79 163.849C83.096 163.271 83.249 162.602 83.249 161.843ZM90.5217 166.637C89.4563 166.637 88.5837 166.393 87.9037 165.906C87.235 165.407 86.861 164.733 86.7817 163.883H88.0057C88.0623 164.404 88.306 164.829 88.7367 165.158C89.1787 165.475 89.768 165.634 90.5047 165.634C91.1507 165.634 91.655 165.481 92.0177 165.175C92.3917 164.869 92.5787 164.489 92.5787 164.036C92.5787 163.719 92.4767 163.458 92.2727 163.254C92.0687 163.05 91.808 162.891 91.4907 162.778C91.1847 162.653 90.7653 162.523 90.2327 162.387C89.5413 162.206 88.9803 162.024 88.5497 161.843C88.119 161.662 87.7507 161.395 87.4447 161.044C87.15 160.681 87.0027 160.2 87.0027 159.599C87.0027 159.146 87.1387 158.726 87.4107 158.341C87.6827 157.956 88.068 157.65 88.5667 157.423C89.0653 157.196 89.632 157.083 90.2667 157.083C91.264 157.083 92.0687 157.338 92.6807 157.848C93.2927 158.347 93.6214 159.038 93.6667 159.922H92.4767C92.4427 159.378 92.2274 158.942 91.8307 158.613C91.4454 158.273 90.9127 158.103 90.2327 158.103C89.632 158.103 89.1447 158.245 88.7707 158.528C88.3967 158.811 88.2097 159.163 88.2097 159.582C88.2097 159.945 88.3173 160.245 88.5327 160.483C88.7593 160.71 89.037 160.891 89.3657 161.027C89.6943 161.152 90.1363 161.293 90.6917 161.452C91.3603 161.633 91.893 161.809 92.2897 161.979C92.6863 162.149 93.0263 162.398 93.3097 162.727C93.593 163.056 93.7404 163.492 93.7517 164.036C93.7517 164.535 93.6157 164.982 93.3437 165.379C93.0717 165.764 92.692 166.07 92.2047 166.297C91.7173 166.524 91.1563 166.637 90.5217 166.637ZM104.713 157.219V166.501H103.523V164.869C103.251 165.447 102.831 165.889 102.265 166.195C101.698 166.501 101.063 166.654 100.361 166.654C99.25 166.654 98.3434 166.314 97.6407 165.634C96.938 164.943 96.5867 163.945 96.5867 162.642V157.219H97.7597V162.506C97.7597 163.515 98.009 164.285 98.5077 164.818C99.0177 165.351 99.709 165.617 100.582 165.617C101.477 165.617 102.191 165.334 102.724 164.767C103.256 164.2 103.523 163.367 103.523 162.268V157.219H104.713ZM119.16 157.049C120.248 157.049 121.132 157.395 121.812 158.086C122.503 158.766 122.849 159.758 122.849 161.061V166.501H121.676V161.197C121.676 160.188 121.432 159.418 120.945 158.885C120.457 158.352 119.794 158.086 118.956 158.086C118.083 158.086 117.386 158.375 116.865 158.953C116.343 159.531 116.083 160.37 116.083 161.469V166.501H114.91V161.197C114.91 160.188 114.666 159.418 114.179 158.885C113.691 158.352 113.023 158.086 112.173 158.086C111.3 158.086 110.603 158.375 110.082 158.953C109.56 159.531 109.3 160.37 109.3 161.469V166.501H108.11V157.219H109.3V158.817C109.594 158.239 110.014 157.803 110.558 157.508C111.102 157.202 111.708 157.049 112.377 157.049C113.181 157.049 113.884 157.242 114.485 157.627C115.097 158.012 115.539 158.579 115.811 159.327C116.06 158.59 116.485 158.029 117.086 157.644C117.698 157.247 118.389 157.049 119.16 157.049ZM140.475 166.501H139.285L132.706 156.505V166.501H131.516V154.618H132.706L139.285 164.597V154.618H140.475V166.501ZM152.249 161.384C152.249 161.792 152.237 162.104 152.215 162.319H144.514C144.548 163.022 144.718 163.622 145.024 164.121C145.33 164.62 145.732 164.999 146.231 165.26C146.729 165.509 147.273 165.634 147.863 165.634C148.633 165.634 149.279 165.447 149.801 165.073C150.333 164.699 150.685 164.195 150.855 163.56H152.113C151.886 164.467 151.399 165.209 150.651 165.787C149.914 166.354 148.985 166.637 147.863 166.637C146.99 166.637 146.208 166.444 145.517 166.059C144.825 165.662 144.281 165.107 143.885 164.393C143.499 163.668 143.307 162.823 143.307 161.86C143.307 160.897 143.499 160.052 143.885 159.327C144.27 158.602 144.808 158.046 145.5 157.661C146.191 157.276 146.979 157.083 147.863 157.083C148.747 157.083 149.517 157.276 150.175 157.661C150.843 158.046 151.353 158.568 151.705 159.225C152.067 159.871 152.249 160.591 152.249 161.384ZM151.042 161.35C151.053 160.659 150.911 160.069 150.617 159.582C150.333 159.095 149.942 158.726 149.444 158.477C148.945 158.228 148.401 158.103 147.812 158.103C146.928 158.103 146.174 158.386 145.551 158.953C144.927 159.52 144.582 160.319 144.514 161.35H151.042ZM154.562 161.843C154.562 160.891 154.755 160.058 155.14 159.344C155.525 158.619 156.052 158.063 156.721 157.678C157.401 157.281 158.166 157.083 159.016 157.083C159.889 157.083 160.648 157.293 161.294 157.712C161.94 158.12 162.399 158.636 162.671 159.259V157.219H163.861V170.887H162.671V164.461C162.399 165.084 161.934 165.606 161.277 166.025C160.631 166.433 159.866 166.637 158.982 166.637C158.143 166.637 157.384 166.439 156.704 166.042C156.035 165.645 155.508 165.084 155.123 164.359C154.749 163.634 154.562 162.795 154.562 161.843ZM162.671 161.86C162.671 161.112 162.518 160.455 162.212 159.888C161.906 159.321 161.487 158.885 160.954 158.579C160.433 158.273 159.855 158.12 159.22 158.12C158.563 158.12 157.973 158.267 157.452 158.562C156.931 158.857 156.517 159.287 156.211 159.854C155.916 160.409 155.769 161.072 155.769 161.843C155.769 162.602 155.916 163.271 156.211 163.849C156.517 164.416 156.931 164.852 157.452 165.158C157.973 165.453 158.563 165.6 159.22 165.6C159.855 165.6 160.433 165.447 160.954 165.141C161.487 164.835 161.906 164.399 162.212 163.832C162.518 163.265 162.671 162.608 162.671 161.86ZM175.299 157.219V166.501H174.109V164.869C173.837 165.447 173.417 165.889 172.851 166.195C172.284 166.501 171.649 166.654 170.947 166.654C169.836 166.654 168.929 166.314 168.227 165.634C167.524 164.943 167.173 163.945 167.173 162.642V157.219H168.346V162.506C168.346 163.515 168.595 164.285 169.094 164.818C169.604 165.351 170.295 165.617 171.168 165.617C172.063 165.617 172.777 165.334 173.31 164.767C173.842 164.2 174.109 163.367 174.109 162.268V157.219H175.299ZM187.093 161.384C187.093 161.792 187.082 162.104 187.059 162.319H179.358C179.392 163.022 179.562 163.622 179.868 164.121C180.174 164.62 180.577 164.999 181.075 165.26C181.574 165.509 182.118 165.634 182.707 165.634C183.478 165.634 184.124 165.447 184.645 165.073C185.178 164.699 185.529 164.195 185.699 163.56H186.957C186.731 164.467 186.243 165.209 185.495 165.787C184.759 166.354 183.829 166.637 182.707 166.637C181.835 166.637 181.053 166.444 180.361 166.059C179.67 165.662 179.126 165.107 178.729 164.393C178.344 163.668 178.151 162.823 178.151 161.86C178.151 160.897 178.344 160.052 178.729 159.327C179.115 158.602 179.653 158.046 180.344 157.661C181.036 157.276 181.823 157.083 182.707 157.083C183.591 157.083 184.362 157.276 185.019 157.661C185.688 158.046 186.198 158.568 186.549 159.225C186.912 159.871 187.093 160.591 187.093 161.384ZM185.886 161.35C185.898 160.659 185.756 160.069 185.461 159.582C185.178 159.095 184.787 158.726 184.288 158.477C183.79 158.228 183.246 158.103 182.656 158.103C181.772 158.103 181.019 158.386 180.395 158.953C179.772 159.52 179.426 160.319 179.358 161.35H185.886ZM194.752 161.843C194.752 160.891 194.944 160.058 195.33 159.344C195.715 158.619 196.242 158.063 196.911 157.678C197.591 157.281 198.356 157.083 199.206 157.083C200.022 157.083 200.758 157.281 201.416 157.678C202.073 158.075 202.555 158.59 202.861 159.225V153.921H204.051V166.501H202.861V164.427C202.577 165.073 202.113 165.606 201.467 166.025C200.821 166.433 200.061 166.637 199.189 166.637C198.339 166.637 197.574 166.439 196.894 166.042C196.225 165.645 195.698 165.084 195.313 164.359C194.939 163.634 194.752 162.795 194.752 161.843ZM202.861 161.86C202.861 161.112 202.708 160.455 202.402 159.888C202.096 159.321 201.676 158.885 201.144 158.579C200.622 158.273 200.044 158.12 199.41 158.12C198.752 158.12 198.163 158.267 197.642 158.562C197.12 158.857 196.707 159.287 196.401 159.854C196.106 160.409 195.959 161.072 195.959 161.843C195.959 162.602 196.106 163.271 196.401 163.849C196.707 164.416 197.12 164.852 197.642 165.158C198.163 165.453 198.752 165.6 199.41 165.6C200.044 165.6 200.622 165.447 201.144 165.141C201.676 164.835 202.096 164.399 202.402 163.832C202.708 163.265 202.861 162.608 202.861 161.86ZM211.51 166.637C210.638 166.637 209.85 166.444 209.147 166.059C208.456 165.662 207.906 165.107 207.498 164.393C207.102 163.668 206.903 162.823 206.903 161.86C206.903 160.897 207.107 160.058 207.515 159.344C207.923 158.619 208.479 158.063 209.181 157.678C209.884 157.281 210.672 157.083 211.544 157.083C212.417 157.083 213.205 157.281 213.907 157.678C214.621 158.063 215.177 158.619 215.573 159.344C215.981 160.058 216.185 160.897 216.185 161.86C216.185 162.812 215.981 163.651 215.573 164.376C215.165 165.101 214.604 165.662 213.89 166.059C213.176 166.444 212.383 166.637 211.51 166.637ZM211.51 165.6C212.122 165.6 212.689 165.464 213.21 165.192C213.732 164.909 214.151 164.489 214.468 163.934C214.797 163.367 214.961 162.676 214.961 161.86C214.961 161.044 214.803 160.358 214.485 159.803C214.168 159.236 213.749 158.817 213.227 158.545C212.706 158.262 212.139 158.12 211.527 158.12C210.915 158.12 210.349 158.262 209.827 158.545C209.306 158.817 208.887 159.236 208.569 159.803C208.263 160.358 208.11 161.044 208.11 161.86C208.11 162.676 208.263 163.367 208.569 163.934C208.887 164.489 209.3 164.909 209.81 165.192C210.332 165.464 210.898 165.6 211.51 165.6ZM9.61403 180.259C9.9087 179.636 10.3734 179.12 11.008 178.712C11.654 178.293 12.419 178.083 13.303 178.083C14.1417 178.083 14.8954 178.281 15.564 178.678C16.244 179.063 16.771 179.619 17.145 180.344C17.5304 181.058 17.723 181.891 17.723 182.843C17.723 183.795 17.5304 184.634 17.145 185.359C16.771 186.084 16.244 186.645 15.564 187.042C14.8954 187.439 14.1417 187.637 13.303 187.637C12.4304 187.637 11.671 187.433 11.025 187.025C10.379 186.606 9.9087 186.084 9.61403 185.461V191.887H8.44103V178.219H9.61403V180.259ZM16.516 182.843C16.516 182.072 16.363 181.409 16.057 180.854C15.7624 180.287 15.3544 179.857 14.833 179.562C14.3117 179.267 13.7224 179.12 13.065 179.12C12.4304 179.12 11.8467 179.273 11.314 179.579C10.7927 179.885 10.379 180.321 10.073 180.888C9.76703 181.455 9.61403 182.112 9.61403 182.86C9.61403 183.608 9.76703 184.265 10.073 184.832C10.379 185.399 10.7927 185.835 11.314 186.141C11.8467 186.447 12.4304 186.6 13.065 186.6C13.7224 186.6 14.3117 186.453 14.833 186.158C15.3544 185.852 15.7624 185.416 16.057 184.849C16.363 184.271 16.516 183.602 16.516 182.843ZM24.6557 187.637C23.783 187.637 22.9954 187.444 22.2927 187.059C21.6014 186.662 21.0517 186.107 20.6437 185.393C20.247 184.668 20.0487 183.823 20.0487 182.86C20.0487 181.897 20.2527 181.058 20.6607 180.344C21.0687 179.619 21.624 179.063 22.3267 178.678C23.0294 178.281 23.817 178.083 24.6897 178.083C25.5624 178.083 26.35 178.281 27.0527 178.678C27.7667 179.063 28.322 179.619 28.7187 180.344C29.1267 181.058 29.3307 181.897 29.3307 182.86C29.3307 183.812 29.1267 184.651 28.7187 185.376C28.3107 186.101 27.7497 186.662 27.0357 187.059C26.3217 187.444 25.5284 187.637 24.6557 187.637ZM24.6557 186.6C25.2677 186.6 25.8344 186.464 26.3557 186.192C26.877 185.909 27.2964 185.489 27.6137 184.934C27.9424 184.367 28.1067 183.676 28.1067 182.86C28.1067 182.044 27.948 181.358 27.6307 180.803C27.3134 180.236 26.894 179.817 26.3727 179.545C25.8514 179.262 25.2847 179.12 24.6727 179.12C24.0607 179.12 23.494 179.262 22.9727 179.545C22.4514 179.817 22.032 180.236 21.7147 180.803C21.4087 181.358 21.2557 182.044 21.2557 182.86C21.2557 183.676 21.4087 184.367 21.7147 184.934C22.032 185.489 22.4457 185.909 22.9557 186.192C23.477 186.464 24.0437 186.6 24.6557 186.6ZM33.3699 179.868C33.6306 179.29 34.0273 178.842 34.5599 178.525C35.1039 178.208 35.7669 178.049 36.5489 178.049V179.29H36.2259C35.3646 179.29 34.6733 179.522 34.1519 179.987C33.6306 180.452 33.3699 181.228 33.3699 182.316V187.501H32.1799V178.219H33.3699V179.868ZM40.2091 179.868C40.4698 179.29 40.8665 178.842 41.3991 178.525C41.9431 178.208 42.6061 178.049 43.3881 178.049V179.29H43.0651C42.2038 179.29 41.5125 179.522 40.9911 179.987C40.4698 180.452 40.2091 181.228 40.2091 182.316V187.501H39.0191V178.219H40.2091V179.868ZM49.9213 187.637C49.0486 187.637 48.261 187.444 47.5583 187.059C46.867 186.662 46.3173 186.107 45.9093 185.393C45.5126 184.668 45.3143 183.823 45.3143 182.86C45.3143 181.897 45.5183 181.058 45.9263 180.344C46.3343 179.619 46.8896 179.063 47.5923 178.678C48.295 178.281 49.0826 178.083 49.9553 178.083C50.828 178.083 51.6156 178.281 52.3183 178.678C53.0323 179.063 53.5876 179.619 53.9843 180.344C54.3923 181.058 54.5963 181.897 54.5963 182.86C54.5963 183.812 54.3923 184.651 53.9843 185.376C53.5763 186.101 53.0153 186.662 52.3013 187.059C51.5873 187.444 50.794 187.637 49.9213 187.637ZM49.9213 186.6C50.5333 186.6 51.1 186.464 51.6213 186.192C52.1426 185.909 52.562 185.489 52.8793 184.934C53.208 184.367 53.3723 183.676 53.3723 182.86C53.3723 182.044 53.2136 181.358 52.8963 180.803C52.579 180.236 52.1596 179.817 51.6383 179.545C51.117 179.262 50.5503 179.12 49.9383 179.12C49.3263 179.12 48.7596 179.262 48.2383 179.545C47.717 179.817 47.2976 180.236 46.9803 180.803C46.6743 181.358 46.5213 182.044 46.5213 182.86C46.5213 183.676 46.6743 184.367 46.9803 184.934C47.2976 185.489 47.7113 185.909 48.2213 186.192C48.7426 186.464 49.3093 186.6 49.9213 186.6ZM62.2466 182.843C62.2466 181.891 62.4392 181.058 62.8246 180.344C63.2099 179.619 63.7369 179.063 64.4056 178.678C65.0856 178.281 65.8506 178.083 66.7006 178.083C67.5732 178.083 68.3326 178.293 68.9786 178.712C69.6246 179.12 70.0836 179.636 70.3556 180.259V178.219H71.5456V191.887H70.3556V185.461C70.0836 186.084 69.6189 186.606 68.9616 187.025C68.3156 187.433 67.5506 187.637 66.6666 187.637C65.8279 187.637 65.0686 187.439 64.3886 187.042C63.7199 186.645 63.1929 186.084 62.8076 185.359C62.4336 184.634 62.2466 183.795 62.2466 182.843ZM70.3556 182.86C70.3556 182.112 70.2026 181.455 69.8966 180.888C69.5906 180.321 69.1712 179.885 68.6386 179.579C68.1172 179.273 67.5392 179.12 66.9046 179.12C66.2472 179.12 65.6579 179.267 65.1366 179.562C64.6152 179.857 64.2016 180.287 63.8956 180.854C63.6009 181.409 63.4536 182.072 63.4536 182.843C63.4536 183.602 63.6009 184.271 63.8956 184.849C64.2016 185.416 64.6152 185.852 65.1366 186.158C65.6579 186.453 66.2472 186.6 66.9046 186.6C67.5392 186.6 68.1172 186.447 68.6386 186.141C69.1712 185.835 69.5906 185.399 69.8966 184.832C70.2026 184.265 70.3556 183.608 70.3556 182.86ZM82.9832 178.219V187.501H81.7932V185.869C81.5212 186.447 81.1019 186.889 80.5352 187.195C79.9686 187.501 79.3339 187.654 78.6312 187.654C77.5206 187.654 76.6139 187.314 75.9112 186.634C75.2086 185.943 74.8572 184.945 74.8572 183.642V178.219H76.0302V183.506C76.0302 184.515 76.2796 185.285 76.7782 185.818C77.2882 186.351 77.9796 186.617 78.8522 186.617C79.7476 186.617 80.4616 186.334 80.9942 185.767C81.5269 185.2 81.7932 184.367 81.7932 183.268V178.219H82.9832ZM86.9751 176.468C86.7371 176.468 86.5331 176.383 86.3631 176.213C86.1931 176.043 86.1081 175.833 86.1081 175.584C86.1081 175.335 86.1931 175.131 86.3631 174.972C86.5331 174.802 86.7371 174.717 86.9751 174.717C87.2131 174.717 87.4171 174.802 87.5871 174.972C87.7571 175.131 87.8421 175.335 87.8421 175.584C87.8421 175.833 87.7571 176.043 87.5871 176.213C87.4171 176.383 87.2131 176.468 86.9751 176.468ZM87.5701 178.219V187.501H86.3801V178.219H87.5701ZM94.1408 187.637C93.0755 187.637 92.2028 187.393 91.5228 186.906C90.8542 186.407 90.4802 185.733 90.4008 184.883H91.6248C91.6815 185.404 91.9252 185.829 92.3558 186.158C92.7978 186.475 93.3872 186.634 94.1238 186.634C94.7698 186.634 95.2742 186.481 95.6368 186.175C96.0108 185.869 96.1978 185.489 96.1978 185.036C96.1978 184.719 96.0958 184.458 95.8918 184.254C95.6878 184.05 95.4272 183.891 95.1098 183.778C94.8038 183.653 94.3845 183.523 93.8518 183.387C93.1605 183.206 92.5995 183.024 92.1688 182.843C91.7382 182.662 91.3698 182.395 91.0638 182.044C90.7692 181.681 90.6218 181.2 90.6218 180.599C90.6218 180.146 90.7578 179.726 91.0298 179.341C91.3018 178.956 91.6872 178.65 92.1858 178.423C92.6845 178.196 93.2512 178.083 93.8858 178.083C94.8832 178.083 95.6878 178.338 96.2998 178.848C96.9118 179.347 97.2405 180.038 97.2858 180.922H96.0958C96.0618 180.378 95.8465 179.942 95.4498 179.613C95.0645 179.273 94.5318 179.103 93.8518 179.103C93.2512 179.103 92.7638 179.245 92.3898 179.528C92.0158 179.811 91.8288 180.163 91.8288 180.582C91.8288 180.945 91.9365 181.245 92.1518 181.483C92.3785 181.71 92.6562 181.891 92.9848 182.027C93.3135 182.152 93.7555 182.293 94.3108 182.452C94.9795 182.633 95.5122 182.809 95.9088 182.979C96.3055 183.149 96.6455 183.398 96.9288 183.727C97.2122 184.056 97.3595 184.492 97.3708 185.036C97.3708 185.535 97.2348 185.982 96.9628 186.379C96.6908 186.764 96.3112 187.07 95.8238 187.297C95.3365 187.524 94.7755 187.637 94.1408 187.637ZM99.7468 182.843C99.7468 181.891 99.9395 181.058 100.325 180.344C100.71 179.619 101.237 179.063 101.906 178.678C102.586 178.281 103.351 178.083 104.201 178.083C105.074 178.083 105.833 178.293 106.479 178.712C107.125 179.12 107.584 179.636 107.856 180.259V178.219H109.046V191.887H107.856V185.461C107.584 186.084 107.119 186.606 106.462 187.025C105.816 187.433 105.051 187.637 104.167 187.637C103.328 187.637 102.569 187.439 101.889 187.042C101.22 186.645 100.693 186.084 100.308 185.359C99.9338 184.634 99.7468 183.795 99.7468 182.843ZM107.856 182.86C107.856 182.112 107.703 181.455 107.397 180.888C107.091 180.321 106.672 179.885 106.139 179.579C105.618 179.273 105.04 179.12 104.405 179.12C103.748 179.12 103.158 179.267 102.637 179.562C102.116 179.857 101.702 180.287 101.396 180.854C101.101 181.409 100.954 182.072 100.954 182.843C100.954 183.602 101.101 184.271 101.396 184.849C101.702 185.416 102.116 185.852 102.637 186.158C103.158 186.453 103.748 186.6 104.405 186.6C105.04 186.6 105.618 186.447 106.139 186.141C106.672 185.835 107.091 185.399 107.397 184.832C107.703 184.265 107.856 183.608 107.856 182.86ZM120.484 178.219V187.501H119.294V185.869C119.022 186.447 118.602 186.889 118.036 187.195C117.469 187.501 116.834 187.654 116.132 187.654C115.021 187.654 114.114 187.314 113.412 186.634C112.709 185.943 112.358 184.945 112.358 183.642V178.219H113.531V183.506C113.531 184.515 113.78 185.285 114.279 185.818C114.789 186.351 115.48 186.617 116.353 186.617C117.248 186.617 117.962 186.334 118.495 185.767C119.027 185.2 119.294 184.367 119.294 183.268V178.219H120.484ZM123.336 182.843C123.336 181.891 123.523 181.058 123.897 180.344C124.283 179.619 124.81 179.063 125.478 178.678C126.158 178.281 126.923 178.083 127.773 178.083C128.657 178.083 129.417 178.287 130.051 178.695C130.697 179.103 131.162 179.624 131.445 180.259V178.219H132.635V187.501H131.445V185.444C131.151 186.079 130.68 186.606 130.034 187.025C129.4 187.433 128.64 187.637 127.756 187.637C126.918 187.637 126.158 187.439 125.478 187.042C124.81 186.645 124.283 186.084 123.897 185.359C123.523 184.634 123.336 183.795 123.336 182.843ZM131.445 182.86C131.445 182.112 131.292 181.455 130.986 180.888C130.68 180.321 130.261 179.885 129.728 179.579C129.207 179.273 128.629 179.12 127.994 179.12C127.337 179.12 126.748 179.267 126.226 179.562C125.705 179.857 125.291 180.287 124.985 180.854C124.691 181.409 124.543 182.072 124.543 182.843C124.543 183.602 124.691 184.271 124.985 184.849C125.291 185.416 125.705 185.852 126.226 186.158C126.748 186.453 127.337 186.6 127.994 186.6C128.629 186.6 129.207 186.447 129.728 186.141C130.261 185.835 130.68 185.399 130.986 184.832C131.292 184.265 131.445 183.608 131.445 182.86ZM147.082 178.049C148.17 178.049 149.054 178.395 149.734 179.086C150.425 179.766 150.771 180.758 150.771 182.061V187.501H149.598V182.197C149.598 181.188 149.354 180.418 148.867 179.885C148.38 179.352 147.717 179.086 146.878 179.086C146.005 179.086 145.308 179.375 144.787 179.953C144.266 180.531 144.005 181.37 144.005 182.469V187.501H142.832V182.197C142.832 181.188 142.588 180.418 142.101 179.885C141.614 179.352 140.945 179.086 140.095 179.086C139.222 179.086 138.525 179.375 138.004 179.953C137.483 180.531 137.222 181.37 137.222 182.469V187.501H136.032V178.219H137.222V179.817C137.517 179.239 137.936 178.803 138.48 178.508C139.024 178.202 139.63 178.049 140.299 178.049C141.104 178.049 141.806 178.242 142.407 178.627C143.019 179.012 143.461 179.579 143.733 180.327C143.982 179.59 144.407 179.029 145.008 178.644C145.62 178.247 146.311 178.049 147.082 178.049ZM167.837 182.384C167.837 182.792 167.826 183.104 167.803 183.319H160.102C160.136 184.022 160.306 184.622 160.612 185.121C160.918 185.62 161.32 185.999 161.819 186.26C162.318 186.509 162.862 186.634 163.451 186.634C164.222 186.634 164.868 186.447 165.389 186.073C165.922 185.699 166.273 185.195 166.443 184.56H167.701C167.474 185.467 166.987 186.209 166.239 186.787C165.502 187.354 164.573 187.637 163.451 187.637C162.578 187.637 161.796 187.444 161.105 187.059C160.414 186.662 159.87 186.107 159.473 185.393C159.088 184.668 158.895 183.823 158.895 182.86C158.895 181.897 159.088 181.052 159.473 180.327C159.858 179.602 160.397 179.046 161.088 178.661C161.779 178.276 162.567 178.083 163.451 178.083C164.335 178.083 165.106 178.276 165.763 178.661C166.432 179.046 166.942 179.568 167.293 180.225C167.656 180.871 167.837 181.591 167.837 182.384ZM166.63 182.35C166.641 181.659 166.5 181.069 166.205 180.582C165.922 180.095 165.531 179.726 165.032 179.477C164.533 179.228 163.989 179.103 163.4 179.103C162.516 179.103 161.762 179.386 161.139 179.953C160.516 180.52 160.17 181.319 160.102 182.35H166.63ZM173.89 187.637C172.825 187.637 171.952 187.393 171.272 186.906C170.603 186.407 170.229 185.733 170.15 184.883H171.374C171.431 185.404 171.674 185.829 172.105 186.158C172.547 186.475 173.136 186.634 173.873 186.634C174.519 186.634 175.023 186.481 175.386 186.175C175.76 185.869 175.947 185.489 175.947 185.036C175.947 184.719 175.845 184.458 175.641 184.254C175.437 184.05 175.176 183.891 174.859 183.778C174.553 183.653 174.134 183.523 173.601 183.387C172.91 183.206 172.349 183.024 171.918 182.843C171.487 182.662 171.119 182.395 170.813 182.044C170.518 181.681 170.371 181.2 170.371 180.599C170.371 180.146 170.507 179.726 170.779 179.341C171.051 178.956 171.436 178.65 171.935 178.423C172.434 178.196 173 178.083 173.635 178.083C174.632 178.083 175.437 178.338 176.049 178.848C176.661 179.347 176.99 180.038 177.035 180.922H175.845C175.811 180.378 175.596 179.942 175.199 179.613C174.814 179.273 174.281 179.103 173.601 179.103C173 179.103 172.513 179.245 172.139 179.528C171.765 179.811 171.578 180.163 171.578 180.582C171.578 180.945 171.686 181.245 171.901 181.483C172.128 181.71 172.405 181.891 172.734 182.027C173.063 182.152 173.505 182.293 174.06 182.452C174.729 182.633 175.261 182.809 175.658 182.979C176.055 183.149 176.395 183.398 176.678 183.727C176.961 184.056 177.109 184.492 177.12 185.036C177.12 185.535 176.984 185.982 176.712 186.379C176.44 186.764 176.06 187.07 175.573 187.297C175.086 187.524 174.525 187.637 173.89 187.637ZM181.587 179.222V184.985C181.587 185.552 181.695 185.943 181.91 186.158C182.125 186.373 182.505 186.481 183.049 186.481H184.137V187.501H182.862C182.023 187.501 181.4 187.308 180.992 186.923C180.584 186.526 180.38 185.88 180.38 184.985V179.222H179.088V178.219H180.38V175.89H181.587V178.219H184.137V179.222H181.587ZM191.581 182.843C191.581 181.891 191.773 181.058 192.159 180.344C192.544 179.619 193.071 179.063 193.74 178.678C194.42 178.281 195.185 178.083 196.035 178.083C196.907 178.083 197.667 178.293 198.313 178.712C198.959 179.12 199.418 179.636 199.69 180.259V178.219H200.88V191.887H199.69V185.461C199.418 186.084 198.953 186.606 198.296 187.025C197.65 187.433 196.885 187.637 196.001 187.637C195.162 187.637 194.403 187.439 193.723 187.042C193.054 186.645 192.527 186.084 192.142 185.359C191.768 184.634 191.581 183.795 191.581 182.843ZM199.69 182.86C199.69 182.112 199.537 181.455 199.231 180.888C198.925 180.321 198.505 179.885 197.973 179.579C197.451 179.273 196.873 179.12 196.239 179.12C195.581 179.12 194.992 179.267 194.471 179.562C193.949 179.857 193.536 180.287 193.23 180.854C192.935 181.409 192.788 182.072 192.788 182.843C192.788 183.602 192.935 184.271 193.23 184.849C193.536 185.416 193.949 185.852 194.471 186.158C194.992 186.453 195.581 186.6 196.239 186.6C196.873 186.6 197.451 186.447 197.973 186.141C198.505 185.835 198.925 185.399 199.231 184.832C199.537 184.265 199.69 183.608 199.69 182.86ZM212.317 178.219V187.501H211.127V185.869C210.855 186.447 210.436 186.889 209.869 187.195C209.303 187.501 208.668 187.654 207.965 187.654C206.855 187.654 205.948 187.314 205.245 186.634C204.543 185.943 204.191 184.945 204.191 183.642V178.219H205.364V183.506C205.364 184.515 205.614 185.285 206.112 185.818C206.622 186.351 207.314 186.617 208.186 186.617C209.082 186.617 209.796 186.334 210.328 185.767C210.861 185.2 211.127 184.367 211.127 183.268V178.219H212.317ZM216.309 176.468C216.071 176.468 215.867 176.383 215.697 176.213C215.527 176.043 215.442 175.833 215.442 175.584C215.442 175.335 215.527 175.131 215.697 174.972C215.867 174.802 216.071 174.717 216.309 174.717C216.547 174.717 216.751 174.802 216.921 174.972C217.091 175.131 217.176 175.335 217.176 175.584C217.176 175.833 217.091 176.043 216.921 176.213C216.751 176.383 216.547 176.468 216.309 176.468ZM216.904 178.219V187.501H215.714V178.219H216.904ZM72.3725 203.843C72.3725 202.891 72.5652 202.058 72.9505 201.344C73.3359 200.619 73.8629 200.063 74.5315 199.678C75.2115 199.281 75.9765 199.083 76.8265 199.083C77.6425 199.083 78.3792 199.281 79.0365 199.678C79.6939 200.075 80.1755 200.59 80.4815 201.225V195.921H81.6715V208.501H80.4815V206.427C80.1982 207.073 79.7335 207.606 79.0875 208.025C78.4415 208.433 77.6822 208.637 76.8095 208.637C75.9595 208.637 75.1945 208.439 74.5145 208.042C73.8459 207.645 73.3189 207.084 72.9335 206.359C72.5595 205.634 72.3725 204.795 72.3725 203.843ZM80.4815 203.86C80.4815 203.112 80.3285 202.455 80.0225 201.888C79.7165 201.321 79.2972 200.885 78.7645 200.579C78.2432 200.273 77.6652 200.12 77.0305 200.12C76.3732 200.12 75.7839 200.267 75.2625 200.562C74.7412 200.857 74.3275 201.287 74.0215 201.854C73.7269 202.409 73.5795 203.072 73.5795 203.843C73.5795 204.602 73.7269 205.271 74.0215 205.849C74.3275 206.416 74.7412 206.852 75.2625 207.158C75.7839 207.453 76.3732 207.6 77.0305 207.6C77.6652 207.6 78.2432 207.447 78.7645 207.141C79.2972 206.835 79.7165 206.399 80.0225 205.832C80.3285 205.265 80.4815 204.608 80.4815 203.86ZM89.1312 208.637C88.2585 208.637 87.4709 208.444 86.7682 208.059C86.0769 207.662 85.5272 207.107 85.1192 206.393C84.7225 205.668 84.5242 204.823 84.5242 203.86C84.5242 202.897 84.7282 202.058 85.1362 201.344C85.5442 200.619 86.0995 200.063 86.8022 199.678C87.5049 199.281 88.2925 199.083 89.1652 199.083C90.0379 199.083 90.8255 199.281 91.5282 199.678C92.2422 200.063 92.7975 200.619 93.1942 201.344C93.6022 202.058 93.8062 202.897 93.8062 203.86C93.8062 204.812 93.6022 205.651 93.1942 206.376C92.7862 207.101 92.2252 207.662 91.5112 208.059C90.7972 208.444 90.0039 208.637 89.1312 208.637ZM89.1312 207.6C89.7432 207.6 90.3099 207.464 90.8312 207.192C91.3525 206.909 91.7719 206.489 92.0892 205.934C92.4179 205.367 92.5822 204.676 92.5822 203.86C92.5822 203.044 92.4235 202.358 92.1062 201.803C91.7889 201.236 91.3695 200.817 90.8482 200.545C90.3269 200.262 89.7602 200.12 89.1482 200.12C88.5362 200.12 87.9695 200.262 87.4482 200.545C86.9269 200.817 86.5075 201.236 86.1902 201.803C85.8842 202.358 85.7312 203.044 85.7312 203.86C85.7312 204.676 85.8842 205.367 86.1902 205.934C86.5075 206.489 86.9212 206.909 87.4312 207.192C87.9525 207.464 88.5192 207.6 89.1312 207.6ZM101.456 203.843C101.456 202.891 101.649 202.058 102.034 201.344C102.42 200.619 102.947 200.063 103.615 199.678C104.295 199.281 105.06 199.083 105.91 199.083C106.783 199.083 107.542 199.293 108.188 199.712C108.834 200.12 109.293 200.636 109.565 201.259V199.219H110.755V212.887H109.565V206.461C109.293 207.084 108.829 207.606 108.171 208.025C107.525 208.433 106.76 208.637 105.876 208.637C105.038 208.637 104.278 208.439 103.598 208.042C102.93 207.645 102.403 207.084 102.017 206.359C101.643 205.634 101.456 204.795 101.456 203.843ZM109.565 203.86C109.565 203.112 109.412 202.455 109.106 201.888C108.8 201.321 108.381 200.885 107.848 200.579C107.327 200.273 106.749 200.12 106.114 200.12C105.457 200.12 104.868 200.267 104.346 200.562C103.825 200.857 103.411 201.287 103.105 201.854C102.811 202.409 102.663 203.072 102.663 203.843C102.663 204.602 102.811 205.271 103.105 205.849C103.411 206.416 103.825 206.852 104.346 207.158C104.868 207.453 105.457 207.6 106.114 207.6C106.749 207.6 107.327 207.447 107.848 207.141C108.381 206.835 108.8 206.399 109.106 205.832C109.412 205.265 109.565 204.608 109.565 203.86ZM122.193 199.219V208.501H121.003V206.869C120.731 207.447 120.312 207.889 119.745 208.195C119.178 208.501 118.544 208.654 117.841 208.654C116.73 208.654 115.824 208.314 115.121 207.634C114.418 206.943 114.067 205.945 114.067 204.642V199.219H115.24V204.506C115.24 205.515 115.489 206.285 115.988 206.818C116.498 207.351 117.189 207.617 118.062 207.617C118.957 207.617 119.671 207.334 120.204 206.767C120.737 206.2 121.003 205.367 121.003 204.268V199.219H122.193ZM125.046 203.843C125.046 202.891 125.233 202.058 125.607 201.344C125.992 200.619 126.519 200.063 127.188 199.678C127.868 199.281 128.633 199.083 129.483 199.083C130.367 199.083 131.126 199.287 131.761 199.695C132.407 200.103 132.872 200.624 133.155 201.259V199.219H134.345V208.501H133.155V206.444C132.86 207.079 132.39 207.606 131.744 208.025C131.109 208.433 130.35 208.637 129.466 208.637C128.627 208.637 127.868 208.439 127.188 208.042C126.519 207.645 125.992 207.084 125.607 206.359C125.233 205.634 125.046 204.795 125.046 203.843ZM133.155 203.86C133.155 203.112 133.002 202.455 132.696 201.888C132.39 201.321 131.971 200.885 131.438 200.579C130.917 200.273 130.339 200.12 129.704 200.12C129.047 200.12 128.457 200.267 127.936 200.562C127.415 200.857 127.001 201.287 126.695 201.854C126.4 202.409 126.253 203.072 126.253 203.843C126.253 204.602 126.4 205.271 126.695 205.849C127.001 206.416 127.415 206.852 127.936 207.158C128.457 207.453 129.047 207.6 129.704 207.6C130.339 207.6 130.917 207.447 131.438 207.141C131.971 206.835 132.39 206.399 132.696 205.832C133.002 205.265 133.155 204.608 133.155 203.86ZM148.792 199.049C149.88 199.049 150.764 199.395 151.444 200.086C152.135 200.766 152.481 201.758 152.481 203.061V208.501H151.308V203.197C151.308 202.188 151.064 201.418 150.577 200.885C150.089 200.352 149.426 200.086 148.588 200.086C147.715 200.086 147.018 200.375 146.497 200.953C145.975 201.531 145.715 202.37 145.715 203.469V208.501H144.542V203.197C144.542 202.188 144.298 201.418 143.811 200.885C143.323 200.352 142.655 200.086 141.805 200.086C140.932 200.086 140.235 200.375 139.714 200.953C139.192 201.531 138.932 202.37 138.932 203.469V208.501H137.742V199.219H138.932V200.817C139.226 200.239 139.646 199.803 140.19 199.508C140.734 199.202 141.34 199.049 142.009 199.049C142.813 199.049 143.516 199.242 144.117 199.627C144.729 200.012 145.171 200.579 145.443 201.327C145.692 200.59 146.117 200.029 146.718 199.644C147.33 199.247 148.021 199.049 148.792 199.049Z" fill="white"/>
</svg>
