<svg width="244" height="92" viewBox="0 0 244 92" fill="none" xmlns="http://www.w3.org/2000/svg">
<g filter="url(#filter0_d_10_44)">
<mask id="path-1-outside-1_10_44" maskUnits="userSpaceOnUse" x="19" y="18" width="206" height="39" fill="black">
<rect fill="white" x="19" y="18" width="206" height="39"/>
<path d="M20.5176 37.5C20.5176 34.0667 21.2842 31 22.8176 28.3C24.3842 25.5667 26.5009 23.45 29.1676 21.95C31.8676 20.4167 34.8842 19.65 38.2176 19.65C42.1176 19.65 45.5342 20.65 48.4676 22.65C51.4009 24.65 53.4509 27.4167 54.6176 30.95H46.5676C45.7676 29.2833 44.6342 28.0333 43.1676 27.2C41.7342 26.3667 40.0676 25.95 38.1676 25.95C36.1342 25.95 34.3176 26.4333 32.7176 27.4C31.1509 28.3333 29.9176 29.6667 29.0176 31.4C28.1509 33.1333 27.7176 35.1667 27.7176 37.5C27.7176 39.8 28.1509 41.8333 29.0176 43.6C29.9176 45.3333 31.1509 46.6833 32.7176 47.65C34.3176 48.5833 36.1342 49.05 38.1676 49.05C40.0676 49.05 41.7342 48.6333 43.1676 47.8C44.6342 46.9333 45.7676 45.6667 46.5676 44H54.6176C53.4509 47.5667 51.4009 50.35 48.4676 52.35C45.5676 54.3167 42.1509 55.3 38.2176 55.3C34.8842 55.3 31.8676 54.55 29.1676 53.05C26.5009 51.5167 24.3842 49.4 22.8176 46.7C21.2842 44 20.5176 40.9333 20.5176 37.5ZM77.3465 55L69.6465 41.4H66.3465V55H59.3465V20.1H72.4465C75.1465 20.1 77.4465 20.5833 79.3465 21.55C81.2465 22.4833 82.6632 23.7667 83.5965 25.4C84.5632 27 85.0465 28.8 85.0465 30.8C85.0465 33.1 84.3798 35.1833 83.0465 37.05C81.7132 38.8833 79.7298 40.15 77.0965 40.85L85.4465 55H77.3465ZM66.3465 36.15H72.1965C74.0965 36.15 75.5132 35.7 76.4465 34.8C77.3798 33.8667 77.8465 32.5833 77.8465 30.95C77.8465 29.35 77.3798 28.1167 76.4465 27.25C75.5132 26.35 74.0965 25.9 72.1965 25.9H66.3465V36.15ZM97.1277 25.75V34.5H108.878V40.05H97.1277V49.3H110.378V55H90.1277V20.05H110.378V25.75H97.1277ZM136.889 48.35H122.989L120.689 55H113.339L125.889 20.05H134.039L146.589 55H139.189L136.889 48.35ZM134.989 42.75L129.939 28.15L124.889 42.75H134.989ZM173.78 20.1V25.75H164.48V55H157.48V25.75H148.18V20.1H173.78ZM184.638 20.1V55H177.638V20.1H184.638ZM188.604 37.5C188.604 34.0667 189.37 31 190.904 28.3C192.47 25.5667 194.587 23.45 197.254 21.95C199.954 20.4167 202.97 19.65 206.304 19.65C210.204 19.65 213.62 20.65 216.554 22.65C219.487 24.65 221.537 27.4167 222.704 30.95H214.654C213.854 29.2833 212.72 28.0333 211.254 27.2C209.82 26.3667 208.154 25.95 206.254 25.95C204.22 25.95 202.404 26.4333 200.804 27.4C199.237 28.3333 198.004 29.6667 197.104 31.4C196.237 33.1333 195.804 35.1667 195.804 37.5C195.804 39.8 196.237 41.8333 197.104 43.6C198.004 45.3333 199.237 46.6833 200.804 47.65C202.404 48.5833 204.22 49.05 206.254 49.05C208.154 49.05 209.82 48.6333 211.254 47.8C212.72 46.9333 213.854 45.6667 214.654 44H222.704C221.537 47.5667 219.487 50.35 216.554 52.35C213.654 54.3167 210.237 55.3 206.304 55.3C202.97 55.3 199.954 54.55 197.254 53.05C194.587 51.5167 192.47 49.4 190.904 46.7C189.37 44 188.604 40.9333 188.604 37.5Z"/>
</mask>
<path d="M20.5176 37.5C20.5176 34.0667 21.2842 31 22.8176 28.3C24.3842 25.5667 26.5009 23.45 29.1676 21.95C31.8676 20.4167 34.8842 19.65 38.2176 19.65C42.1176 19.65 45.5342 20.65 48.4676 22.65C51.4009 24.65 53.4509 27.4167 54.6176 30.95H46.5676C45.7676 29.2833 44.6342 28.0333 43.1676 27.2C41.7342 26.3667 40.0676 25.95 38.1676 25.95C36.1342 25.95 34.3176 26.4333 32.7176 27.4C31.1509 28.3333 29.9176 29.6667 29.0176 31.4C28.1509 33.1333 27.7176 35.1667 27.7176 37.5C27.7176 39.8 28.1509 41.8333 29.0176 43.6C29.9176 45.3333 31.1509 46.6833 32.7176 47.65C34.3176 48.5833 36.1342 49.05 38.1676 49.05C40.0676 49.05 41.7342 48.6333 43.1676 47.8C44.6342 46.9333 45.7676 45.6667 46.5676 44H54.6176C53.4509 47.5667 51.4009 50.35 48.4676 52.35C45.5676 54.3167 42.1509 55.3 38.2176 55.3C34.8842 55.3 31.8676 54.55 29.1676 53.05C26.5009 51.5167 24.3842 49.4 22.8176 46.7C21.2842 44 20.5176 40.9333 20.5176 37.5ZM77.3465 55L69.6465 41.4H66.3465V55H59.3465V20.1H72.4465C75.1465 20.1 77.4465 20.5833 79.3465 21.55C81.2465 22.4833 82.6632 23.7667 83.5965 25.4C84.5632 27 85.0465 28.8 85.0465 30.8C85.0465 33.1 84.3798 35.1833 83.0465 37.05C81.7132 38.8833 79.7298 40.15 77.0965 40.85L85.4465 55H77.3465ZM66.3465 36.15H72.1965C74.0965 36.15 75.5132 35.7 76.4465 34.8C77.3798 33.8667 77.8465 32.5833 77.8465 30.95C77.8465 29.35 77.3798 28.1167 76.4465 27.25C75.5132 26.35 74.0965 25.9 72.1965 25.9H66.3465V36.15ZM97.1277 25.75V34.5H108.878V40.05H97.1277V49.3H110.378V55H90.1277V20.05H110.378V25.75H97.1277ZM136.889 48.35H122.989L120.689 55H113.339L125.889 20.05H134.039L146.589 55H139.189L136.889 48.35ZM134.989 42.75L129.939 28.15L124.889 42.75H134.989ZM173.78 20.1V25.75H164.48V55H157.48V25.75H148.18V20.1H173.78ZM184.638 20.1V55H177.638V20.1H184.638ZM188.604 37.5C188.604 34.0667 189.37 31 190.904 28.3C192.47 25.5667 194.587 23.45 197.254 21.95C199.954 20.4167 202.97 19.65 206.304 19.65C210.204 19.65 213.62 20.65 216.554 22.65C219.487 24.65 221.537 27.4167 222.704 30.95H214.654C213.854 29.2833 212.72 28.0333 211.254 27.2C209.82 26.3667 208.154 25.95 206.254 25.95C204.22 25.95 202.404 26.4333 200.804 27.4C199.237 28.3333 198.004 29.6667 197.104 31.4C196.237 33.1333 195.804 35.1667 195.804 37.5C195.804 39.8 196.237 41.8333 197.104 43.6C198.004 45.3333 199.237 46.6833 200.804 47.65C202.404 48.5833 204.22 49.05 206.254 49.05C208.154 49.05 209.82 48.6333 211.254 47.8C212.72 46.9333 213.854 45.6667 214.654 44H222.704C221.537 47.5667 219.487 50.35 216.554 52.35C213.654 54.3167 210.237 55.3 206.304 55.3C202.97 55.3 199.954 54.55 197.254 53.05C194.587 51.5167 192.47 49.4 190.904 46.7C189.37 44 188.604 40.9333 188.604 37.5Z" fill="#6D95FC"/>
<path d="M22.8176 28.3L21.95 27.8027L21.948 27.8062L22.8176 28.3ZM29.1676 21.95L29.6578 22.8216L29.6614 22.8196L29.1676 21.95ZM54.6176 30.95V31.95H56.0009L55.5672 30.6365L54.6176 30.95ZM46.5676 30.95L45.6661 31.3827L45.9383 31.95H46.5676V30.95ZM43.1676 27.2L42.6649 28.0645L42.6736 28.0695L43.1676 27.2ZM32.7176 27.4L33.2294 28.2591L33.2347 28.2559L32.7176 27.4ZM29.0176 31.4L28.1301 30.9392L28.1266 30.946L28.1232 30.9528L29.0176 31.4ZM29.0176 43.6L28.1198 44.0404L28.1248 44.0507L28.1301 44.0608L29.0176 43.6ZM32.7176 47.65L32.1925 48.501L32.203 48.5075L32.2137 48.5138L32.7176 47.65ZM43.1676 47.8L43.6702 48.6645L43.6763 48.6609L43.1676 47.8ZM46.5676 44V43H45.9383L45.6661 43.5673L46.5676 44ZM54.6176 44L55.568 44.3109L55.9968 43H54.6176V44ZM48.4676 52.35L49.0289 53.1776L49.0309 53.1762L48.4676 52.35ZM29.1676 53.05L28.6691 53.9169L28.6755 53.9206L28.6819 53.9242L29.1676 53.05ZM22.8176 46.7L21.948 47.1938L21.9526 47.2019L22.8176 46.7ZM21.5176 37.5C21.5176 34.221 22.2481 31.3278 23.6871 28.7938L21.948 27.8062C20.3204 30.6722 19.5176 33.9123 19.5176 37.5H21.5176ZM23.6852 28.7973C25.1649 26.2156 27.1532 24.2304 29.6578 22.8216L28.6773 21.0784C25.8486 22.6696 23.6036 24.9177 21.95 27.8027L23.6852 28.7973ZM29.6614 22.8196C32.1998 21.378 35.0442 20.65 38.2176 20.65V18.65C34.7243 18.65 31.5353 19.4553 28.6738 21.0804L29.6614 22.8196ZM38.2176 20.65C41.9373 20.65 45.1533 21.6006 47.9042 23.4762L49.0309 21.8238C45.9152 19.6994 42.2979 18.65 38.2176 18.65V20.65ZM47.9042 23.4762C50.6468 25.3462 52.5667 27.9281 53.668 31.2635L55.5672 30.6365C54.3351 26.9052 52.155 23.9538 49.0309 21.8238L47.9042 23.4762ZM54.6176 29.95H46.5676V31.95H54.6176V29.95ZM47.4691 30.5173C46.5898 28.6854 45.3224 27.2742 43.6616 26.3305L42.6736 28.0695C43.9461 28.7925 44.9454 29.8813 45.6661 31.3827L47.4691 30.5173ZM43.6702 26.3355C42.0631 25.4011 40.218 24.95 38.1676 24.95V26.95C39.9172 26.95 41.4054 27.3322 42.665 28.0645L43.6702 26.3355ZM38.1676 24.95C35.9685 24.95 33.9701 25.475 32.2005 26.5441L33.2347 28.2559C34.6651 27.3917 36.3 26.95 38.1676 26.95V24.95ZM32.2058 26.5409C30.4678 27.5763 29.1095 29.0529 28.1301 30.9392L29.9051 31.8608C30.7257 30.2804 31.834 29.0904 33.2294 28.2591L32.2058 26.5409ZM28.1232 30.9528C27.1743 32.8505 26.7176 35.0427 26.7176 37.5H28.7176C28.7176 35.2906 29.1275 33.4162 29.912 31.8472L28.1232 30.9528ZM26.7176 37.5C26.7176 39.927 27.1754 42.1153 28.1198 44.0404L29.9154 43.1596C29.1264 41.5513 28.7176 39.673 28.7176 37.5H26.7176ZM28.1301 44.0608C29.1081 45.9444 30.4625 47.4336 32.1925 48.501L33.2427 46.799C31.8393 45.9331 30.7271 44.7223 29.9051 43.1392L28.1301 44.0608ZM32.2137 48.5138C33.9813 49.5449 35.975 50.05 38.1676 50.05V48.05C36.2935 48.05 34.6538 47.6218 33.2214 46.7862L32.2137 48.5138ZM38.1676 50.05C40.218 50.05 42.0631 49.5989 43.6702 48.6645L42.665 46.9355C41.4054 47.6678 39.9172 48.05 38.1676 48.05V50.05ZM43.6763 48.6609C45.328 47.6849 46.5911 46.262 47.4691 44.4327L45.6661 43.5673C44.9441 45.0714 43.9405 46.1817 42.6588 46.9391L43.6763 48.6609ZM46.5676 45H54.6176V43H46.5676V45ZM53.6671 43.6891C52.5649 47.0588 50.6444 49.6555 47.9042 51.5238L49.0309 53.1762C52.1575 51.0445 54.3369 48.0746 55.568 44.3109L53.6671 43.6891ZM47.9063 51.5224C45.1918 53.3632 41.9762 54.3 38.2176 54.3V56.3C42.3256 56.3 45.9433 55.2701 49.0289 53.1776L47.9063 51.5224ZM38.2176 54.3C35.0403 54.3 32.193 53.5868 29.6532 52.1758L28.6819 53.9242C31.5422 55.5132 34.7282 56.3 38.2176 56.3V54.3ZM29.666 52.1831C27.1538 50.7385 25.1625 48.7488 23.6825 46.1981L21.9526 47.2019C23.606 50.0512 25.848 52.2948 28.6691 53.9169L29.666 52.1831ZM23.6871 46.2062C22.2481 43.6722 21.5176 40.779 21.5176 37.5H19.5176C19.5176 41.0877 20.3204 44.3278 21.948 47.1938L23.6871 46.2062ZM77.3465 55L76.4763 55.4927L76.7635 56H77.3465V55ZM69.6465 41.4L70.5167 40.9073L70.2295 40.4H69.6465V41.4ZM66.3465 41.4V40.4H65.3465V41.4H66.3465ZM66.3465 55V56H67.3465V55H66.3465ZM59.3465 55H58.3465V56H59.3465V55ZM59.3465 20.1V19.1H58.3465V20.1H59.3465ZM79.3465 21.55L78.893 22.4414L78.9056 22.4476L79.3465 21.55ZM83.5965 25.4L82.7282 25.8961L82.7343 25.9067L82.7406 25.9171L83.5965 25.4ZM83.0465 37.05L83.8553 37.6382L83.8602 37.6312L83.0465 37.05ZM77.0965 40.85L76.8396 39.8836L75.565 40.2224L76.2353 41.3582L77.0965 40.85ZM85.4465 55V56H87.1977L86.3077 54.4918L85.4465 55ZM66.3465 36.15H65.3465V37.15H66.3465V36.15ZM76.4465 34.8L77.1406 35.5198L77.1472 35.5135L77.1536 35.5071L76.4465 34.8ZM76.4465 27.25L75.7523 27.9698L75.7591 27.9764L75.766 27.9828L76.4465 27.25ZM66.3465 25.9V24.9H65.3465V25.9H66.3465ZM78.2167 54.5073L70.5167 40.9073L68.7763 41.8927L76.4763 55.4927L78.2167 54.5073ZM69.6465 40.4H66.3465V42.4H69.6465V40.4ZM65.3465 41.4V55H67.3465V41.4H65.3465ZM66.3465 54H59.3465V56H66.3465V54ZM60.3465 55V20.1H58.3465V55H60.3465ZM59.3465 21.1H72.4465V19.1H59.3465V21.1ZM72.4465 21.1C75.0298 21.1 77.1659 21.5626 78.893 22.4413L79.7999 20.6587C77.7271 19.6041 75.2632 19.1 72.4465 19.1V21.1ZM78.9056 22.4476C80.6495 23.3042 81.9062 24.4575 82.7282 25.8961L84.4647 24.9039C83.4201 23.0758 81.8435 21.6624 79.7874 20.6524L78.9056 22.4476ZM82.7406 25.9171C83.6064 27.3501 84.0465 28.969 84.0465 30.8H86.0465C86.0465 28.631 85.52 26.6499 84.4524 24.8829L82.7406 25.9171ZM84.0465 30.8C84.0465 32.8922 83.4446 34.7722 82.2327 36.4688L83.8602 37.6312C85.315 35.5945 86.0465 33.3078 86.0465 30.8H84.0465ZM82.2377 36.4618C81.0653 38.0739 79.2975 39.2302 76.8396 39.8836L77.3534 41.8164C80.1621 41.0698 82.361 39.6927 83.8552 37.6382L82.2377 36.4618ZM76.2353 41.3582L84.5853 55.5082L86.3077 54.4918L77.9577 40.3418L76.2353 41.3582ZM85.4465 54H77.3465V56H85.4465V54ZM66.3465 37.15H72.1965V35.15H66.3465V37.15ZM72.1965 37.15C74.2359 37.15 75.9497 36.6682 77.1406 35.5198L75.7523 34.0802C75.0766 34.7318 73.9571 35.15 72.1965 35.15V37.15ZM77.1536 35.5071C78.3169 34.3438 78.8465 32.7818 78.8465 30.95H76.8465C76.8465 32.3849 76.4427 33.3895 75.7394 34.0929L77.1536 35.5071ZM78.8465 30.95C78.8465 29.148 78.3138 27.6193 77.1269 26.5172L75.766 27.9828C76.4459 28.6141 76.8465 29.552 76.8465 30.95H78.8465ZM77.1406 26.5302C75.9497 25.3818 74.2359 24.9 72.1965 24.9V26.9C73.9571 26.9 75.0766 27.3182 75.7523 27.9698L77.1406 26.5302ZM72.1965 24.9H66.3465V26.9H72.1965V24.9ZM65.3465 25.9V36.15H67.3465V25.9H65.3465ZM97.1277 25.75V24.75H96.1277V25.75H97.1277ZM97.1277 34.5H96.1277V35.5H97.1277V34.5ZM108.878 34.5H109.878V33.5H108.878V34.5ZM108.878 40.05V41.05H109.878V40.05H108.878ZM97.1277 40.05V39.05H96.1277V40.05H97.1277ZM97.1277 49.3H96.1277V50.3H97.1277V49.3ZM110.378 49.3H111.378V48.3H110.378V49.3ZM110.378 55V56H111.378V55H110.378ZM90.1277 55H89.1277V56H90.1277V55ZM90.1277 20.05V19.05H89.1277V20.05H90.1277ZM110.378 20.05H111.378V19.05H110.378V20.05ZM110.378 25.75V26.75H111.378V25.75H110.378ZM96.1277 25.75V34.5H98.1277V25.75H96.1277ZM97.1277 35.5H108.878V33.5H97.1277V35.5ZM107.878 34.5V40.05H109.878V34.5H107.878ZM108.878 39.05H97.1277V41.05H108.878V39.05ZM96.1277 40.05V49.3H98.1277V40.05H96.1277ZM97.1277 50.3H110.378V48.3H97.1277V50.3ZM109.378 49.3V55H111.378V49.3H109.378ZM110.378 54H90.1277V56H110.378V54ZM91.1277 55V20.05H89.1277V55H91.1277ZM90.1277 21.05H110.378V19.05H90.1277V21.05ZM109.378 20.05V25.75H111.378V20.05H109.378ZM110.378 24.75H97.1277V26.75H110.378V24.75ZM136.889 48.35L137.834 48.0231L137.601 47.35H136.889V48.35ZM122.989 48.35V47.35H122.277L122.044 48.0231L122.989 48.35ZM120.689 55V56H121.401L121.634 55.3269L120.689 55ZM113.339 55L112.398 54.662L111.917 56H113.339V55ZM125.889 20.05V19.05H125.186L124.948 19.712L125.889 20.05ZM134.039 20.05L134.98 19.712L134.742 19.05H134.039V20.05ZM146.589 55V56H148.011L147.53 54.662L146.589 55ZM139.189 55L138.244 55.3269L138.477 56H139.189V55ZM134.989 42.75V43.75H136.393L135.934 42.4231L134.989 42.75ZM129.939 28.15L130.884 27.8231L129.939 25.0909L128.994 27.8231L129.939 28.15ZM124.889 42.75L123.944 42.4231L123.485 43.75H124.889V42.75ZM136.889 47.35H122.989V49.35H136.889V47.35ZM122.044 48.0231L119.744 54.6731L121.634 55.3269L123.934 48.6769L122.044 48.0231ZM120.689 54H113.339V56H120.689V54ZM114.28 55.338L126.83 20.388L124.948 19.712L112.398 54.662L114.28 55.338ZM125.889 21.05H134.039V19.05H125.889V21.05ZM133.098 20.388L145.648 55.338L147.53 54.662L134.98 19.712L133.098 20.388ZM146.589 54H139.189V56H146.589V54ZM140.134 54.6731L137.834 48.0231L135.944 48.6769L138.244 55.3269L140.134 54.6731ZM135.934 42.4231L130.884 27.8231L128.994 28.4769L134.044 43.0769L135.934 42.4231ZM128.994 27.8231L123.944 42.4231L125.834 43.0769L130.884 28.4769L128.994 27.8231ZM124.889 43.75H134.989V41.75H124.889V43.75ZM173.78 20.1H174.78V19.1H173.78V20.1ZM173.78 25.75V26.75H174.78V25.75H173.78ZM164.48 25.75V24.75H163.48V25.75H164.48ZM164.48 55V56H165.48V55H164.48ZM157.48 55H156.48V56H157.48V55ZM157.48 25.75H158.48V24.75H157.48V25.75ZM148.18 25.75H147.18V26.75H148.18V25.75ZM148.18 20.1V19.1H147.18V20.1H148.18ZM172.78 20.1V25.75H174.78V20.1H172.78ZM173.78 24.75H164.48V26.75H173.78V24.75ZM163.48 25.75V55H165.48V25.75H163.48ZM164.48 54H157.48V56H164.48V54ZM158.48 55V25.75H156.48V55H158.48ZM157.48 24.75H148.18V26.75H157.48V24.75ZM149.18 25.75V20.1H147.18V25.75H149.18ZM148.18 21.1H173.78V19.1H148.18V21.1ZM184.637 20.1H185.637V19.1H184.637V20.1ZM184.637 55V56H185.637V55H184.637ZM177.637 55H176.637V56H177.637V55ZM177.637 20.1V19.1H176.637V20.1H177.637ZM183.637 20.1V55H185.637V20.1H183.637ZM184.637 54H177.637V56H184.637V54ZM178.637 55V20.1H176.637V55H178.637ZM177.637 21.1H184.637V19.1H177.637V21.1ZM190.904 28.3L190.036 27.8027L190.034 27.8062L190.904 28.3ZM197.254 21.95L197.744 22.8216L197.747 22.8196L197.254 21.95ZM222.704 30.95V31.95H224.087L223.653 30.6365L222.704 30.95ZM214.654 30.95L213.752 31.3827L214.024 31.95H214.654V30.95ZM211.254 27.2L210.751 28.0645L210.76 28.0695L211.254 27.2ZM200.804 27.4L201.315 28.2591L201.321 28.2559L200.804 27.4ZM197.104 31.4L196.216 30.9392L196.213 30.946L196.209 30.9528L197.104 31.4ZM197.104 43.6L196.206 44.0404L196.211 44.0507L196.216 44.0608L197.104 43.6ZM200.804 47.65L200.278 48.501L200.289 48.5075L200.3 48.5138L200.804 47.65ZM211.254 47.8L211.756 48.6645L211.762 48.6609L211.254 47.8ZM214.654 44V43H214.024L213.752 43.5673L214.654 44ZM222.704 44L223.654 44.3109L224.083 43H222.704V44ZM216.554 52.35L217.115 53.1776L217.117 53.1762L216.554 52.35ZM197.254 53.05L196.755 53.9169L196.761 53.9206L196.768 53.9242L197.254 53.05ZM190.904 46.7L190.034 47.1938L190.039 47.2019L190.904 46.7ZM189.604 37.5C189.604 34.221 190.334 31.3278 191.773 28.7938L190.034 27.8062C188.406 30.6722 187.604 33.9123 187.604 37.5H189.604ZM191.771 28.7973C193.251 26.2156 195.239 24.2304 197.744 22.8216L196.763 21.0784C193.935 22.6696 191.69 24.9177 190.036 27.8027L191.771 28.7973ZM197.747 22.8196C200.286 21.378 203.13 20.65 206.304 20.65V18.65C202.81 18.65 199.621 19.4553 196.76 21.0804L197.747 22.8196ZM206.304 20.65C210.023 20.65 213.239 21.6006 215.99 23.4762L217.117 21.8238C214.001 19.6994 210.384 18.65 206.304 18.65V20.65ZM215.99 23.4762C218.733 25.3462 220.653 27.9281 221.754 31.2635L223.653 30.6365C222.421 26.9052 220.241 23.9538 217.117 21.8238L215.99 23.4762ZM222.704 29.95H214.654V31.95H222.704V29.95ZM215.555 30.5173C214.676 28.6854 213.408 27.2742 211.748 26.3305L210.76 28.0695C212.032 28.7925 213.031 29.8813 213.752 31.3827L215.555 30.5173ZM211.756 26.3355C210.149 25.4011 208.304 24.95 206.254 24.95V26.95C208.003 26.95 209.491 27.3322 210.751 28.0645L211.756 26.3355ZM206.254 24.95C204.054 24.95 202.056 25.475 200.286 26.5441L201.321 28.2559C202.751 27.3917 204.386 26.95 206.254 26.95V24.95ZM200.292 26.5409C198.554 27.5763 197.195 29.0529 196.216 30.9392L197.991 31.8608C198.812 30.2804 199.92 29.0904 201.315 28.2591L200.292 26.5409ZM196.209 30.9528C195.26 32.8505 194.804 35.0427 194.804 37.5H196.804C196.804 35.2906 197.213 33.4162 197.998 31.8472L196.209 30.9528ZM194.804 37.5C194.804 39.927 195.261 42.1153 196.206 44.0404L198.001 43.1596C197.212 41.5513 196.804 39.673 196.804 37.5H194.804ZM196.216 44.0608C197.194 45.9444 198.548 47.4336 200.278 48.501L201.329 46.799C199.925 45.9331 198.813 44.7223 197.991 43.1392L196.216 44.0608ZM200.3 48.5138C202.067 49.5449 204.061 50.05 206.254 50.05V48.05C204.379 48.05 202.74 47.6218 201.307 46.7862L200.3 48.5138ZM206.254 50.05C208.304 50.05 210.149 49.5989 211.756 48.6645L210.751 46.9355C209.491 47.6678 208.003 48.05 206.254 48.05V50.05ZM211.762 48.6609C213.414 47.6849 214.677 46.262 215.555 44.4327L213.752 43.5673C213.03 45.0714 212.026 46.1817 210.745 46.9391L211.762 48.6609ZM214.654 45H222.704V43H214.654V45ZM221.753 43.6891C220.651 47.0588 218.73 49.6555 215.99 51.5238L217.117 53.1762C220.243 51.0445 222.423 48.0746 223.654 44.3109L221.753 43.6891ZM215.992 51.5224C213.278 53.3632 210.062 54.3 206.304 54.3V56.3C210.412 56.3 214.029 55.2701 217.115 53.1776L215.992 51.5224ZM206.304 54.3C203.126 54.3 200.279 53.5868 197.739 52.1758L196.768 53.9242C199.628 55.5132 202.814 56.3 206.304 56.3V54.3ZM197.752 52.1831C195.24 50.7385 193.248 48.7488 191.768 46.1981L190.039 47.2019C191.692 50.0512 193.934 52.2948 196.755 53.9169L197.752 52.1831ZM191.773 46.2062C190.334 43.6722 189.604 40.779 189.604 37.5H187.604C187.604 41.0877 188.406 44.3278 190.034 47.1938L191.773 46.2062Z" fill="black" mask="url(#path-1-outside-1_10_44)"/>
</g>
<path d="M42.1441 79.114C42.1441 78.162 42.3588 77.308 42.7881 76.552C43.2174 75.7867 43.8008 75.1893 44.5381 74.76C45.2848 74.3307 46.1108 74.116 47.0161 74.116C48.0801 74.116 49.0088 74.3727 49.8021 74.886C50.5954 75.3993 51.1741 76.1273 51.5381 77.07H50.0121C49.7414 76.482 49.3494 76.0293 48.8361 75.712C48.3321 75.3947 47.7254 75.236 47.0161 75.236C46.3348 75.236 45.7234 75.3947 45.1821 75.712C44.6408 76.0293 44.2161 76.482 43.9081 77.07C43.6001 77.6487 43.4461 78.33 43.4461 79.114C43.4461 79.8887 43.6001 80.57 43.9081 81.158C44.2161 81.7367 44.6408 82.1847 45.1821 82.502C45.7234 82.8193 46.3348 82.978 47.0161 82.978C47.7254 82.978 48.3321 82.824 48.8361 82.516C49.3494 82.1987 49.7414 81.746 50.0121 81.158H51.5381C51.1741 82.0913 50.5954 82.8147 49.8021 83.328C49.0088 83.832 48.0801 84.084 47.0161 84.084C46.1108 84.084 45.2848 83.874 44.5381 83.454C43.8008 83.0247 43.2174 82.432 42.7881 81.676C42.3588 80.92 42.1441 80.066 42.1441 79.114ZM61.2326 84L58.9086 80.01H57.3686V84H56.0946V74.242H59.2446C59.9819 74.242 60.6026 74.368 61.1066 74.62C61.6199 74.872 62.0026 75.2127 62.2546 75.642C62.5066 76.0713 62.6326 76.5613 62.6326 77.112C62.6326 77.784 62.4366 78.3767 62.0446 78.89C61.6619 79.4033 61.0832 79.744 60.3086 79.912L62.7586 84H61.2326ZM57.3686 78.988H59.2446C59.9352 78.988 60.4532 78.82 60.7986 78.484C61.1439 78.1387 61.3166 77.6813 61.3166 77.112C61.3166 76.5333 61.1439 76.0853 60.7986 75.768C60.4626 75.4507 59.9446 75.292 59.2446 75.292H57.3686V78.988ZM68.5461 75.278V78.54H72.1021V79.59H68.5461V82.95H72.5221V84H67.2721V74.228H72.5221V75.278H68.5461ZM82.8779 81.83H78.6219L77.8379 84H76.4939L80.0219 74.298H81.4919L85.0059 84H83.6619L82.8779 81.83ZM82.5139 80.794L80.7499 75.866L78.9859 80.794H82.5139ZM95.2095 74.242V75.278H92.5495V84H91.2755V75.278H88.6015V74.242H95.2095ZM100.712 74.242V84H99.4377V74.242H100.712ZM113.607 74.242L109.925 84H108.455L104.773 74.242H106.131L109.197 82.656L112.263 74.242H113.607ZM118.938 75.278V78.54H122.494V79.59H118.938V82.95H122.914V84H117.664V74.228H122.914V75.278H118.938ZM139.662 81.83H135.406L134.622 84H133.278L136.806 74.298H138.276L141.79 84H140.446L139.662 81.83ZM139.298 80.794L137.534 75.866L135.77 80.794H139.298ZM153.38 77.07C153.109 76.5007 152.717 76.062 152.204 75.754C151.69 75.4367 151.093 75.278 150.412 75.278C149.73 75.278 149.114 75.4367 148.564 75.754C148.022 76.062 147.593 76.51 147.276 77.098C146.968 77.6767 146.814 78.3487 146.814 79.114C146.814 79.8793 146.968 80.5513 147.276 81.13C147.593 81.7087 148.022 82.1567 148.564 82.474C149.114 82.782 149.73 82.936 150.412 82.936C151.364 82.936 152.148 82.6513 152.764 82.082C153.38 81.5127 153.739 80.7427 153.842 79.772H149.95V78.736H155.2V79.716C155.125 80.5187 154.873 81.256 154.444 81.928C154.014 82.5907 153.45 83.118 152.75 83.51C152.05 83.8927 151.27 84.084 150.412 84.084C149.506 84.084 148.68 83.874 147.934 83.454C147.187 83.0247 146.594 82.432 146.156 81.676C145.726 80.92 145.512 80.066 145.512 79.114C145.512 78.162 145.726 77.308 146.156 76.552C146.594 75.7867 147.187 75.194 147.934 74.774C148.68 74.3447 149.506 74.13 150.412 74.13C151.448 74.13 152.362 74.3867 153.156 74.9C153.958 75.4133 154.542 76.1367 154.906 77.07H153.38ZM160.818 75.278V78.54H164.374V79.59H160.818V82.95H164.794V84H159.544V74.228H164.794V75.278H160.818ZM177.054 84H175.78L170.656 76.23V84H169.382V74.228H170.656L175.78 81.984V74.228H177.054V84ZM181.41 79.114C181.41 78.162 181.624 77.308 182.054 76.552C182.483 75.7867 183.066 75.1893 183.804 74.76C184.55 74.3307 185.376 74.116 186.282 74.116C187.346 74.116 188.274 74.3727 189.068 74.886C189.861 75.3993 190.44 76.1273 190.804 77.07H189.278C189.007 76.482 188.615 76.0293 188.102 75.712C187.598 75.3947 186.991 75.236 186.282 75.236C185.6 75.236 184.989 75.3947 184.448 75.712C183.906 76.0293 183.482 76.482 183.174 77.07C182.866 77.6487 182.712 78.33 182.712 79.114C182.712 79.8887 182.866 80.57 183.174 81.158C183.482 81.7367 183.906 82.1847 184.448 82.502C184.989 82.8193 185.6 82.978 186.282 82.978C186.991 82.978 187.598 82.824 188.102 82.516C188.615 82.1987 189.007 81.746 189.278 81.158H190.804C190.44 82.0913 189.861 82.8147 189.068 83.328C188.274 83.832 187.346 84.084 186.282 84.084C185.376 84.084 184.55 83.874 183.804 83.454C183.066 83.0247 182.483 82.432 182.054 81.676C181.624 80.92 181.41 80.066 181.41 79.114ZM202.192 74.242L199.014 80.318V84H197.74V80.318L194.548 74.242H195.962L198.37 79.184L200.778 74.242H202.192Z" fill="white"/>
<defs>
<filter id="filter0_d_10_44" x="16.5176" y="19.6504" width="210.186" height="43.6494" filterUnits="userSpaceOnUse" color-interpolation-filters="sRGB">
<feFlood flood-opacity="0" result="BackgroundImageFix"/>
<feColorMatrix in="SourceAlpha" type="matrix" values="0 0 0 0 0 0 0 0 0 0 0 0 0 0 0 0 0 0 127 0" result="hardAlpha"/>
<feOffset dy="4"/>
<feGaussianBlur stdDeviation="2"/>
<feComposite in2="hardAlpha" operator="out"/>
<feColorMatrix type="matrix" values="0 0 0 0 0 0 0 0 0 0 0 0 0 0 0 0 0 0 0.25 0"/>
<feBlend mode="normal" in2="BackgroundImageFix" result="effect1_dropShadow_10_44"/>
<feBlend mode="normal" in="SourceGraphic" in2="effect1_dropShadow_10_44" result="shape"/>
</filter>
</defs>
</svg>
