<svg width="226" height="220" viewBox="0 0 226 220" fill="none" xmlns="http://www.w3.org/2000/svg">
<path d="M109.77 43.1867C109.34 43.1867 108.909 43.0783 108.518 42.8614C108.518 42.8614 108.518 42.8614 108.517 42.8614L109.77 43.1867ZM109.77 43.1867C110.2 43.1867 110.63 43.0781 111.022 42.8612L114.658 40.8506C115.442 40.4169 115.911 39.6394 115.911 38.7707C115.911 37.9019 115.442 37.1245 114.658 36.6907L111.022 34.6801C111.022 34.6801 111.022 34.6801 111.022 34.6801L109.77 43.1867ZM109.597 36.4747L109.597 36.4747C109.635 36.4534 109.697 36.4281 109.771 36.4281C109.823 36.4281 109.881 36.4401 109.943 36.4749L109.943 36.4749L113.579 38.4855L113.579 38.4855C113.729 38.5686 113.751 38.6997 113.751 38.7711C113.751 38.8424 113.729 38.9735 113.579 39.0566L113.579 39.0566L109.943 41.0672L109.943 41.0672C109.793 41.1505 109.662 41.1032 109.597 41.0672L109.597 41.0671C109.531 41.0312 109.424 40.947 109.424 40.7816V36.7603C109.424 36.5951 109.531 36.5109 109.597 36.4747Z" fill="#6D95FC" stroke="white" stroke-width="0.05"/>
<path d="M100.916 38.7716C100.916 44.4098 105.705 48.9949 111.588 48.9949C117.471 48.9949 122.259 44.4098 122.259 38.7716C122.259 33.1334 117.471 28.5482 111.588 28.5482C105.705 28.5482 100.916 33.1334 100.916 38.7716ZM103.077 38.7716C103.077 34.2775 106.894 30.6195 111.588 30.6195C116.282 30.6195 120.099 34.2775 120.099 38.7716C120.099 43.2656 116.282 46.9237 111.588 46.9237C106.894 46.9237 103.077 43.2656 103.077 38.7716Z" fill="#6D95FC" stroke="white" stroke-width="0.05"/>
<path d="M78.8812 64.5676H144.295C144.891 64.5676 145.375 64.105 145.375 63.5319V14.0106C145.375 13.4378 144.891 12.975 144.295 12.975H78.8812C78.2858 12.975 77.8012 13.4378 77.8012 14.0106V63.5319C77.8012 64.105 78.2858 64.5676 78.8812 64.5676ZM143.215 15.0463V62.4963H79.9613V15.0463H143.215Z" fill="#6D95FC" stroke="white" stroke-width="0.05"/>
<path d="M85.2113 26.1629H93.6518C94.2472 26.1629 94.7319 25.7002 94.7319 25.1273V20.0741C94.7319 19.5012 94.2472 19.0385 93.6518 19.0385H85.2113C84.6159 19.0385 84.1312 19.5012 84.1312 20.0741V25.1273C84.1312 25.7002 84.6159 26.1629 85.2113 26.1629ZM92.5717 21.1098V24.0917H86.2914V21.1098H92.5717Z" fill="#6D95FC" stroke="white" stroke-width="0.05"/>
<path d="M99.9828 26.1629H108.423C109.019 26.1629 109.503 25.7002 109.503 25.1273V20.0741C109.503 19.5012 109.019 19.0385 108.423 19.0385H99.9828C99.3874 19.0385 98.9027 19.5012 98.9027 20.0741V25.1273C98.9027 25.7002 99.3874 26.1629 99.9828 26.1629ZM107.343 21.1098V24.0917H101.063V21.1098H107.343Z" fill="#6D95FC" stroke="white" stroke-width="0.05"/>
<path d="M69.3152 91.8556H153.861C157.907 91.8556 161.201 88.7019 161.201 84.8234V78.6923C161.201 78.1192 160.716 77.6566 160.121 77.6566H63.0551C62.4597 77.6566 61.975 78.1192 61.975 78.6923V84.8234C61.975 88.7019 65.2687 91.8556 69.3152 91.8556ZM64.1351 84.8234V79.7279H159.041V84.8234C159.041 87.558 156.718 89.7843 153.861 89.7843H69.3152C66.4578 89.7843 64.1351 87.558 64.1351 84.8234Z" fill="white" stroke="#6D95FC" stroke-width="0.05"/>
<path d="M63.0551 79.7274H160.121C160.716 79.7274 161.201 79.2648 161.201 78.6918V33.5162C161.201 28.8761 157.26 25.1029 152.419 25.1029H144.295C143.699 25.1029 143.215 25.5657 143.215 26.1386C143.215 26.7114 143.699 27.1742 144.295 27.1742H152.419C156.071 27.1742 159.041 30.0203 159.041 33.5162V77.6561H64.1351V33.5162C64.1351 30.0203 67.1047 27.1742 70.757 27.1742H78.881C79.4764 27.1742 79.9611 26.7115 79.9611 26.1386C79.9611 25.5657 79.4764 25.1029 78.881 25.1029H70.757C65.9156 25.1029 61.975 28.8761 61.975 33.5162V78.6918C61.975 79.2648 62.4597 79.7274 63.0551 79.7274Z" fill="white" stroke="#6D95FC" stroke-width="0.05"/>
<path d="M114.752 26.1629H123.193C123.788 26.1629 124.273 25.7002 124.273 25.1273V20.0741C124.273 19.5012 123.788 19.0385 123.193 19.0385H114.752C114.157 19.0385 113.672 19.5012 113.672 20.0741V25.1273C113.672 25.7002 114.157 26.1629 114.752 26.1629ZM122.113 21.1098V24.0917H115.832V21.1098H122.113Z" fill="#6D95FC" stroke="white" stroke-width="0.05"/>
<path d="M137.964 26.1379H129.524C128.941 26.1379 128.469 25.6854 128.469 25.1273V20.0741C128.469 19.516 128.941 19.0635 129.524 19.0635H137.964C138.547 19.0635 139.019 19.516 139.019 20.0741V25.1273C139.019 25.6854 138.547 26.1379 137.964 26.1379ZM130.579 24.1167H136.909V21.0848H130.579V24.1167Z" fill="#6D95FC" stroke="#6D95FC" stroke-width="0.05"/>
<path d="M93.6518 58.4788H85.2113C84.6287 58.4788 84.1562 58.0262 84.1562 57.4681V52.4149C84.1562 51.8569 84.6287 51.4043 85.2113 51.4043H93.6518C94.2344 51.4043 94.7069 51.8569 94.7069 52.4149V57.4681C94.7069 58.0262 94.2344 58.4788 93.6518 58.4788ZM86.2664 56.4575H92.5967V53.4256H86.2664V56.4575Z" fill="#6D95FC" stroke="#6D95FC" stroke-width="0.05"/>
<path d="M108.423 58.4788H99.9828C99.4002 58.4788 98.9277 58.0262 98.9277 57.4681V52.4149C98.9277 51.8569 99.4002 51.4043 99.9828 51.4043H108.423C109.006 51.4043 109.478 51.8569 109.478 52.4149V57.4681C109.478 58.0262 109.006 58.4788 108.423 58.4788ZM101.038 56.4575H107.368V53.4256H101.038V56.4575Z" fill="#6D95FC" stroke="#6D95FC" stroke-width="0.05"/>
<path d="M123.193 58.4788H114.752C114.17 58.4788 113.697 58.0262 113.697 57.4681V52.4149C113.697 51.8569 114.17 51.4043 114.752 51.4043H123.193C123.776 51.4043 124.248 51.8569 124.248 52.4149V57.4681C124.248 58.0262 123.776 58.4788 123.193 58.4788ZM115.807 56.4575H122.138V53.4256H115.807V56.4575Z" fill="#6D95FC" stroke="#6D95FC" stroke-width="0.05"/>
<path d="M137.964 58.4788H129.524C128.941 58.4788 128.469 58.0262 128.469 57.4681V52.4149C128.469 51.8569 128.941 51.4043 129.524 51.4043H137.964C138.547 51.4043 139.019 51.8569 139.019 52.4149V57.4681C139.019 58.0262 138.547 58.4788 137.964 58.4788ZM130.579 56.4575H136.909V53.4256H130.579V56.4575Z" fill="#6D95FC" stroke="#6D95FC" stroke-width="0.05"/>
<path d="M99.9828 103.983H123.194C123.79 103.983 124.274 103.52 124.274 102.947V90.8192C124.274 90.2461 123.79 89.7836 123.194 89.7836H99.9828C99.3874 89.7836 98.9027 90.2461 98.9027 90.8192V102.947C98.9027 103.52 99.3874 103.983 99.9828 103.983ZM122.114 91.8549V101.911H101.063V91.8549H122.114Z" fill="white" stroke="#6D95FC" stroke-width="0.05"/>
<path d="M105.258 103.983H117.919C118.515 103.983 118.999 103.52 118.999 102.947V90.8192C118.999 90.2461 118.515 89.7836 117.919 89.7836H105.258C104.663 89.7836 104.178 90.2461 104.178 90.8192V102.947C104.178 103.52 104.663 103.983 105.258 103.983ZM116.839 91.8549V101.911H106.338V91.8549H116.839Z" fill="white" stroke="#6D95FC" stroke-width="0.05"/>
<path d="M96.8175 108.025H126.359C128.117 108.025 129.549 106.655 129.549 104.968C129.549 103.282 128.117 101.912 126.359 101.912H96.8175C95.0595 101.912 93.6273 103.282 93.6273 104.968C93.6273 106.655 95.0595 108.025 96.8175 108.025ZM95.7875 104.968C95.7875 104.426 96.2486 103.983 96.8175 103.983H126.359C126.928 103.983 127.389 104.426 127.389 104.968C127.389 105.511 126.928 105.954 126.359 105.954H96.8175C96.2486 105.954 95.7875 105.511 95.7875 104.968Z" fill="white" stroke="#6D95FC" stroke-width="0.05"/>
<path d="M23.5475 132.342L18.1715 147H14.6015L9.22547 132.342H12.3755L16.4075 143.997L20.4185 132.342H23.5475ZM29.5102 132.342V147H26.5702V132.342H29.5102ZM38.7989 132.342C40.3389 132.342 41.6899 132.643 42.8519 133.245C44.0279 133.847 44.9309 134.708 45.5609 135.828C46.2049 136.934 46.5269 138.222 46.5269 139.692C46.5269 141.162 46.2049 142.45 45.5609 143.556C44.9309 144.648 44.0279 145.495 42.8519 146.097C41.6899 146.699 40.3389 147 38.7989 147H33.6749V132.342H38.7989ZM38.6939 144.501C40.2339 144.501 41.4239 144.081 42.2639 143.241C43.1039 142.401 43.5239 141.218 43.5239 139.692C43.5239 138.166 43.1039 136.976 42.2639 136.122C41.4239 135.254 40.2339 134.82 38.6939 134.82H36.6149V144.501H38.6939ZM52.9276 134.715V138.39H57.8626V140.721H52.9276V144.606H58.4926V147H49.9876V132.321H58.4926V134.715H52.9276ZM69.2284 147.147C67.8564 147.147 66.5964 146.825 65.4484 146.181C64.3004 145.537 63.3904 144.648 62.7184 143.514C62.0464 142.366 61.7104 141.071 61.7104 139.629C61.7104 138.201 62.0464 136.92 62.7184 135.786C63.3904 134.638 64.3004 133.742 65.4484 133.098C66.5964 132.454 67.8564 132.132 69.2284 132.132C70.6144 132.132 71.8744 132.454 73.0084 133.098C74.1564 133.742 75.0594 134.638 75.7174 135.786C76.3894 136.92 76.7254 138.201 76.7254 139.629C76.7254 141.071 76.3894 142.366 75.7174 143.514C75.0594 144.648 74.1564 145.537 73.0084 146.181C71.8604 146.825 70.6004 147.147 69.2284 147.147ZM69.2284 144.522C70.1104 144.522 70.8874 144.326 71.5594 143.934C72.2314 143.528 72.7564 142.954 73.1344 142.212C73.5124 141.47 73.7014 140.609 73.7014 139.629C73.7014 138.649 73.5124 137.795 73.1344 137.067C72.7564 136.325 72.2314 135.758 71.5594 135.366C70.8874 134.974 70.1104 134.778 69.2284 134.778C68.3464 134.778 67.5624 134.974 66.8764 135.366C66.2044 135.758 65.6794 136.325 65.3014 137.067C64.9234 137.795 64.7344 138.649 64.7344 139.629C64.7344 140.609 64.9234 141.47 65.3014 142.212C65.6794 142.954 66.2044 143.528 66.8764 143.934C67.5624 144.326 68.3464 144.522 69.2284 144.522ZM102.418 132.342V147H99.4776V137.466L95.5506 147H93.3246L89.3766 137.466V147H86.4366V132.342H89.7756L94.4376 143.241L99.0996 132.342H102.418ZM115.572 144.207H109.734L108.768 147H105.681L110.952 132.321H114.375L119.646 147H116.538L115.572 144.207ZM114.774 141.855L112.653 135.723L110.532 141.855H114.774ZM130.436 147L127.202 141.288H125.816V147H122.876V132.342H128.378C129.512 132.342 130.478 132.545 131.276 132.951C132.074 133.343 132.669 133.882 133.061 134.568C133.467 135.24 133.67 135.996 133.67 136.836C133.67 137.802 133.39 138.677 132.83 139.461C132.27 140.231 131.437 140.763 130.331 141.057L133.838 147H130.436ZM125.816 139.083H128.273C129.071 139.083 129.666 138.894 130.058 138.516C130.45 138.124 130.646 137.585 130.646 136.899C130.646 136.227 130.45 135.709 130.058 135.345C129.666 134.967 129.071 134.778 128.273 134.778H125.816V139.083ZM145.864 147L140.53 140.469V147H137.59V132.342H140.53V138.915L145.864 132.342H149.413L143.365 139.608L149.581 147H145.864ZM155.714 134.715V138.39H160.649V140.721H155.714V144.606H161.279V147H152.774V132.321H161.279V134.715H155.714ZM175.186 132.342V134.715H171.28V147H168.34V134.715H164.434V132.342H175.186ZM181.531 132.342V147H178.591V132.342H181.531ZM198.233 147H195.293L188.636 136.941V147H185.696V132.321H188.636L195.293 142.401V132.321H198.233V147ZM212.604 136.752C212.268 136.136 211.806 135.667 211.218 135.345C210.63 135.023 209.944 134.862 209.16 134.862C208.292 134.862 207.522 135.058 206.85 135.45C206.178 135.842 205.653 136.402 205.275 137.13C204.897 137.858 204.708 138.698 204.708 139.65C204.708 140.63 204.897 141.484 205.275 142.212C205.667 142.94 206.206 143.5 206.892 143.892C207.578 144.284 208.376 144.48 209.286 144.48C210.406 144.48 211.323 144.186 212.037 143.598C212.751 142.996 213.22 142.163 213.444 141.099H208.404V138.852H216.342V141.414C216.146 142.436 215.726 143.381 215.082 144.249C214.438 145.117 213.605 145.817 212.583 146.349C211.575 146.867 210.441 147.126 209.181 147.126C207.767 147.126 206.486 146.811 205.338 146.181C204.204 145.537 203.308 144.648 202.65 143.514C202.006 142.38 201.684 141.092 201.684 139.65C201.684 138.208 202.006 136.92 202.65 135.786C203.308 134.638 204.204 133.749 205.338 133.119C206.486 132.475 207.76 132.153 209.16 132.153C210.812 132.153 212.247 132.559 213.465 133.371C214.683 134.169 215.523 135.296 215.985 136.752H212.604Z" fill="#6D95FC"/>
<path d="M10.8755 172.031H15.1425V173H9.68549V161.117H10.8755V172.031ZM21.5838 173.136C20.7111 173.136 19.9234 172.943 19.2208 172.558C18.5294 172.161 17.9798 171.606 17.5718 170.892C17.1751 170.167 16.9768 169.322 16.9768 168.359C16.9768 167.396 17.1808 166.557 17.5888 165.843C17.9968 165.118 18.5521 164.562 19.2548 164.177C19.9574 163.78 20.7451 163.582 21.6178 163.582C22.4904 163.582 23.2781 163.78 23.9808 164.177C24.6948 164.562 25.2501 165.118 25.6468 165.843C26.0548 166.557 26.2588 167.396 26.2588 168.359C26.2588 169.311 26.0548 170.15 25.6468 170.875C25.2388 171.6 24.6778 172.161 23.9638 172.558C23.2498 172.943 22.4564 173.136 21.5838 173.136ZM21.5838 172.099C22.1958 172.099 22.7624 171.963 23.2838 171.691C23.8051 171.408 24.2244 170.988 24.5418 170.433C24.8704 169.866 25.0348 169.175 25.0348 168.359C25.0348 167.543 24.8761 166.857 24.5588 166.302C24.2414 165.735 23.8221 165.316 23.3008 165.044C22.7794 164.761 22.2128 164.619 21.6008 164.619C20.9888 164.619 20.4221 164.761 19.9008 165.044C19.3794 165.316 18.9601 165.735 18.6428 166.302C18.3368 166.857 18.1838 167.543 18.1838 168.359C18.1838 169.175 18.3368 169.866 18.6428 170.433C18.9601 170.988 19.3738 171.408 19.8838 171.691C20.4051 171.963 20.9718 172.099 21.5838 172.099ZM30.298 165.367C30.5587 164.789 30.9553 164.341 31.488 164.024C32.032 163.707 32.695 163.548 33.477 163.548V164.789H33.154C32.2927 164.789 31.6013 165.021 31.08 165.486C30.5587 165.951 30.298 166.727 30.298 167.815V173H29.108V163.718H30.298V165.367ZM44.3452 167.883C44.3452 168.291 44.3338 168.603 44.3112 168.818H36.6102C36.6442 169.521 36.8142 170.121 37.1202 170.62C37.4262 171.119 37.8285 171.498 38.3272 171.759C38.8258 172.008 39.3698 172.133 39.9592 172.133C40.7298 172.133 41.3758 171.946 41.8972 171.572C42.4298 171.198 42.7812 170.694 42.9512 170.059H44.2092C43.9825 170.966 43.4952 171.708 42.7472 172.286C42.0105 172.853 41.0812 173.136 39.9592 173.136C39.0865 173.136 38.3045 172.943 37.6132 172.558C36.9218 172.161 36.3778 171.606 35.9812 170.892C35.5958 170.167 35.4032 169.322 35.4032 168.359C35.4032 167.396 35.5958 166.551 35.9812 165.826C36.3665 165.101 36.9048 164.545 37.5962 164.16C38.2875 163.775 39.0752 163.582 39.9592 163.582C40.8432 163.582 41.6138 163.775 42.2712 164.16C42.9398 164.545 43.4498 165.067 43.8012 165.724C44.1638 166.37 44.3452 167.09 44.3452 167.883ZM43.1382 167.849C43.1495 167.158 43.0078 166.568 42.7132 166.081C42.4298 165.594 42.0388 165.225 41.5402 164.976C41.0415 164.727 40.4975 164.602 39.9082 164.602C39.0242 164.602 38.2705 164.885 37.6472 165.452C37.0238 166.019 36.6782 166.818 36.6102 167.849H43.1382ZM58.2524 163.548C59.3404 163.548 60.2244 163.894 60.9044 164.585C61.5957 165.265 61.9414 166.257 61.9414 167.56V173H60.7684V167.696C60.7684 166.687 60.5247 165.917 60.0374 165.384C59.55 164.851 58.887 164.585 58.0484 164.585C57.1757 164.585 56.4787 164.874 55.9574 165.452C55.436 166.03 55.1754 166.869 55.1754 167.968V173H54.0024V167.696C54.0024 166.687 53.7587 165.917 53.2714 165.384C52.784 164.851 52.1154 164.585 51.2654 164.585C50.3927 164.585 49.6957 164.874 49.1744 165.452C48.653 166.03 48.3924 166.869 48.3924 167.968V173H47.2024V163.718H48.3924V165.316C48.687 164.738 49.1064 164.302 49.6504 164.007C50.1944 163.701 50.8007 163.548 51.4694 163.548C52.274 163.548 52.9767 163.741 53.5774 164.126C54.1894 164.511 54.6314 165.078 54.9034 165.826C55.1527 165.089 55.5777 164.528 56.1784 164.143C56.7904 163.746 57.4817 163.548 58.2524 163.548ZM71.2042 161.967C70.9662 161.967 70.7622 161.882 70.5922 161.712C70.4222 161.542 70.3372 161.332 70.3372 161.083C70.3372 160.834 70.4222 160.63 70.5922 160.471C70.7622 160.301 70.9662 160.216 71.2042 160.216C71.4422 160.216 71.6462 160.301 71.8162 160.471C71.9862 160.63 72.0712 160.834 72.0712 161.083C72.0712 161.332 71.9862 161.542 71.8162 161.712C71.6462 161.882 71.4422 161.967 71.2042 161.967ZM71.7992 163.718V173H70.6092V163.718H71.7992ZM76.347 165.758C76.6417 165.135 77.1063 164.619 77.741 164.211C78.387 163.792 79.152 163.582 80.036 163.582C80.8747 163.582 81.6283 163.78 82.297 164.177C82.977 164.562 83.504 165.118 83.878 165.843C84.2633 166.557 84.456 167.39 84.456 168.342C84.456 169.294 84.2633 170.133 83.878 170.858C83.504 171.583 82.977 172.144 82.297 172.541C81.6283 172.938 80.8747 173.136 80.036 173.136C79.1633 173.136 78.404 172.932 77.758 172.524C77.112 172.105 76.6417 171.583 76.347 170.96V177.386H75.174V163.718H76.347V165.758ZM83.249 168.342C83.249 167.571 83.096 166.908 82.79 166.353C82.4953 165.786 82.0873 165.356 81.566 165.061C81.0447 164.766 80.4553 164.619 79.798 164.619C79.1633 164.619 78.5797 164.772 78.047 165.078C77.5257 165.384 77.112 165.82 76.806 166.387C76.5 166.954 76.347 167.611 76.347 168.359C76.347 169.107 76.5 169.764 76.806 170.331C77.112 170.898 77.5257 171.334 78.047 171.64C78.5797 171.946 79.1633 172.099 79.798 172.099C80.4553 172.099 81.0447 171.952 81.566 171.657C82.0873 171.351 82.4953 170.915 82.79 170.348C83.096 169.77 83.249 169.101 83.249 168.342ZM90.5217 173.136C89.4563 173.136 88.5837 172.892 87.9037 172.405C87.235 171.906 86.861 171.232 86.7817 170.382H88.0057C88.0623 170.903 88.306 171.328 88.7367 171.657C89.1787 171.974 89.768 172.133 90.5047 172.133C91.1507 172.133 91.655 171.98 92.0177 171.674C92.3917 171.368 92.5787 170.988 92.5787 170.535C92.5787 170.218 92.4767 169.957 92.2727 169.753C92.0687 169.549 91.808 169.39 91.4907 169.277C91.1847 169.152 90.7653 169.022 90.2327 168.886C89.5413 168.705 88.9803 168.523 88.5497 168.342C88.119 168.161 87.7507 167.894 87.4447 167.543C87.15 167.18 87.0027 166.699 87.0027 166.098C87.0027 165.645 87.1387 165.225 87.4107 164.84C87.6827 164.455 88.068 164.149 88.5667 163.922C89.0653 163.695 89.632 163.582 90.2667 163.582C91.264 163.582 92.0687 163.837 92.6807 164.347C93.2927 164.846 93.6214 165.537 93.6667 166.421H92.4767C92.4427 165.877 92.2274 165.441 91.8307 165.112C91.4454 164.772 90.9127 164.602 90.2327 164.602C89.632 164.602 89.1447 164.744 88.7707 165.027C88.3967 165.31 88.2097 165.662 88.2097 166.081C88.2097 166.444 88.3173 166.744 88.5327 166.982C88.7593 167.209 89.037 167.39 89.3657 167.526C89.6943 167.651 90.1363 167.792 90.6917 167.951C91.3603 168.132 91.893 168.308 92.2897 168.478C92.6863 168.648 93.0263 168.897 93.3097 169.226C93.593 169.555 93.7404 169.991 93.7517 170.535C93.7517 171.034 93.6157 171.481 93.3437 171.878C93.0717 172.263 92.692 172.569 92.2047 172.796C91.7173 173.023 91.1563 173.136 90.5217 173.136ZM104.713 163.718V173H103.523V171.368C103.251 171.946 102.831 172.388 102.265 172.694C101.698 173 101.063 173.153 100.361 173.153C99.25 173.153 98.3434 172.813 97.6407 172.133C96.938 171.442 96.5867 170.444 96.5867 169.141V163.718H97.7597V169.005C97.7597 170.014 98.009 170.784 98.5077 171.317C99.0177 171.85 99.709 172.116 100.582 172.116C101.477 172.116 102.191 171.833 102.724 171.266C103.256 170.699 103.523 169.866 103.523 168.767V163.718H104.713ZM119.16 163.548C120.248 163.548 121.132 163.894 121.812 164.585C122.503 165.265 122.849 166.257 122.849 167.56V173H121.676V167.696C121.676 166.687 121.432 165.917 120.945 165.384C120.457 164.851 119.794 164.585 118.956 164.585C118.083 164.585 117.386 164.874 116.865 165.452C116.343 166.03 116.083 166.869 116.083 167.968V173H114.91V167.696C114.91 166.687 114.666 165.917 114.179 165.384C113.691 164.851 113.023 164.585 112.173 164.585C111.3 164.585 110.603 164.874 110.082 165.452C109.56 166.03 109.3 166.869 109.3 167.968V173H108.11V163.718H109.3V165.316C109.594 164.738 110.014 164.302 110.558 164.007C111.102 163.701 111.708 163.548 112.377 163.548C113.181 163.548 113.884 163.741 114.485 164.126C115.097 164.511 115.539 165.078 115.811 165.826C116.06 165.089 116.485 164.528 117.086 164.143C117.698 163.746 118.389 163.548 119.16 163.548ZM140.475 173H139.285L132.706 163.004V173H131.516V161.117H132.706L139.285 171.096V161.117H140.475V173ZM152.249 167.883C152.249 168.291 152.237 168.603 152.215 168.818H144.514C144.548 169.521 144.718 170.121 145.024 170.62C145.33 171.119 145.732 171.498 146.231 171.759C146.729 172.008 147.273 172.133 147.863 172.133C148.633 172.133 149.279 171.946 149.801 171.572C150.333 171.198 150.685 170.694 150.855 170.059H152.113C151.886 170.966 151.399 171.708 150.651 172.286C149.914 172.853 148.985 173.136 147.863 173.136C146.99 173.136 146.208 172.943 145.517 172.558C144.825 172.161 144.281 171.606 143.885 170.892C143.499 170.167 143.307 169.322 143.307 168.359C143.307 167.396 143.499 166.551 143.885 165.826C144.27 165.101 144.808 164.545 145.5 164.16C146.191 163.775 146.979 163.582 147.863 163.582C148.747 163.582 149.517 163.775 150.175 164.16C150.843 164.545 151.353 165.067 151.705 165.724C152.067 166.37 152.249 167.09 152.249 167.883ZM151.042 167.849C151.053 167.158 150.911 166.568 150.617 166.081C150.333 165.594 149.942 165.225 149.444 164.976C148.945 164.727 148.401 164.602 147.812 164.602C146.928 164.602 146.174 164.885 145.551 165.452C144.927 166.019 144.582 166.818 144.514 167.849H151.042ZM154.562 168.342C154.562 167.39 154.755 166.557 155.14 165.843C155.525 165.118 156.052 164.562 156.721 164.177C157.401 163.78 158.166 163.582 159.016 163.582C159.889 163.582 160.648 163.792 161.294 164.211C161.94 164.619 162.399 165.135 162.671 165.758V163.718H163.861V177.386H162.671V170.96C162.399 171.583 161.934 172.105 161.277 172.524C160.631 172.932 159.866 173.136 158.982 173.136C158.143 173.136 157.384 172.938 156.704 172.541C156.035 172.144 155.508 171.583 155.123 170.858C154.749 170.133 154.562 169.294 154.562 168.342ZM162.671 168.359C162.671 167.611 162.518 166.954 162.212 166.387C161.906 165.82 161.487 165.384 160.954 165.078C160.433 164.772 159.855 164.619 159.22 164.619C158.563 164.619 157.973 164.766 157.452 165.061C156.931 165.356 156.517 165.786 156.211 166.353C155.916 166.908 155.769 167.571 155.769 168.342C155.769 169.101 155.916 169.77 156.211 170.348C156.517 170.915 156.931 171.351 157.452 171.657C157.973 171.952 158.563 172.099 159.22 172.099C159.855 172.099 160.433 171.946 160.954 171.64C161.487 171.334 161.906 170.898 162.212 170.331C162.518 169.764 162.671 169.107 162.671 168.359ZM175.299 163.718V173H174.109V171.368C173.837 171.946 173.417 172.388 172.851 172.694C172.284 173 171.649 173.153 170.947 173.153C169.836 173.153 168.929 172.813 168.227 172.133C167.524 171.442 167.173 170.444 167.173 169.141V163.718H168.346V169.005C168.346 170.014 168.595 170.784 169.094 171.317C169.604 171.85 170.295 172.116 171.168 172.116C172.063 172.116 172.777 171.833 173.31 171.266C173.842 170.699 174.109 169.866 174.109 168.767V163.718H175.299ZM187.093 167.883C187.093 168.291 187.082 168.603 187.059 168.818H179.358C179.392 169.521 179.562 170.121 179.868 170.62C180.174 171.119 180.577 171.498 181.075 171.759C181.574 172.008 182.118 172.133 182.707 172.133C183.478 172.133 184.124 171.946 184.645 171.572C185.178 171.198 185.529 170.694 185.699 170.059H186.957C186.731 170.966 186.243 171.708 185.495 172.286C184.759 172.853 183.829 173.136 182.707 173.136C181.835 173.136 181.053 172.943 180.361 172.558C179.67 172.161 179.126 171.606 178.729 170.892C178.344 170.167 178.151 169.322 178.151 168.359C178.151 167.396 178.344 166.551 178.729 165.826C179.115 165.101 179.653 164.545 180.344 164.16C181.036 163.775 181.823 163.582 182.707 163.582C183.591 163.582 184.362 163.775 185.019 164.16C185.688 164.545 186.198 165.067 186.549 165.724C186.912 166.37 187.093 167.09 187.093 167.883ZM185.886 167.849C185.898 167.158 185.756 166.568 185.461 166.081C185.178 165.594 184.787 165.225 184.288 164.976C183.79 164.727 183.246 164.602 182.656 164.602C181.772 164.602 181.019 164.885 180.395 165.452C179.772 166.019 179.426 166.818 179.358 167.849H185.886ZM194.752 168.342C194.752 167.39 194.944 166.557 195.33 165.843C195.715 165.118 196.242 164.562 196.911 164.177C197.591 163.78 198.356 163.582 199.206 163.582C200.022 163.582 200.758 163.78 201.416 164.177C202.073 164.574 202.555 165.089 202.861 165.724V160.42H204.051V173H202.861V170.926C202.577 171.572 202.113 172.105 201.467 172.524C200.821 172.932 200.061 173.136 199.189 173.136C198.339 173.136 197.574 172.938 196.894 172.541C196.225 172.144 195.698 171.583 195.313 170.858C194.939 170.133 194.752 169.294 194.752 168.342ZM202.861 168.359C202.861 167.611 202.708 166.954 202.402 166.387C202.096 165.82 201.676 165.384 201.144 165.078C200.622 164.772 200.044 164.619 199.41 164.619C198.752 164.619 198.163 164.766 197.642 165.061C197.12 165.356 196.707 165.786 196.401 166.353C196.106 166.908 195.959 167.571 195.959 168.342C195.959 169.101 196.106 169.77 196.401 170.348C196.707 170.915 197.12 171.351 197.642 171.657C198.163 171.952 198.752 172.099 199.41 172.099C200.044 172.099 200.622 171.946 201.144 171.64C201.676 171.334 202.096 170.898 202.402 170.331C202.708 169.764 202.861 169.107 202.861 168.359ZM211.51 173.136C210.638 173.136 209.85 172.943 209.147 172.558C208.456 172.161 207.906 171.606 207.498 170.892C207.102 170.167 206.903 169.322 206.903 168.359C206.903 167.396 207.107 166.557 207.515 165.843C207.923 165.118 208.479 164.562 209.181 164.177C209.884 163.78 210.672 163.582 211.544 163.582C212.417 163.582 213.205 163.78 213.907 164.177C214.621 164.562 215.177 165.118 215.573 165.843C215.981 166.557 216.185 167.396 216.185 168.359C216.185 169.311 215.981 170.15 215.573 170.875C215.165 171.6 214.604 172.161 213.89 172.558C213.176 172.943 212.383 173.136 211.51 173.136ZM211.51 172.099C212.122 172.099 212.689 171.963 213.21 171.691C213.732 171.408 214.151 170.988 214.468 170.433C214.797 169.866 214.961 169.175 214.961 168.359C214.961 167.543 214.803 166.857 214.485 166.302C214.168 165.735 213.749 165.316 213.227 165.044C212.706 164.761 212.139 164.619 211.527 164.619C210.915 164.619 210.349 164.761 209.827 165.044C209.306 165.316 208.887 165.735 208.569 166.302C208.263 166.857 208.11 167.543 208.11 168.359C208.11 169.175 208.263 169.866 208.569 170.433C208.887 170.988 209.3 171.408 209.81 171.691C210.332 171.963 210.898 172.099 211.51 172.099ZM9.61403 186.758C9.9087 186.135 10.3734 185.619 11.008 185.211C11.654 184.792 12.419 184.582 13.303 184.582C14.1417 184.582 14.8954 184.78 15.564 185.177C16.244 185.562 16.771 186.118 17.145 186.843C17.5304 187.557 17.723 188.39 17.723 189.342C17.723 190.294 17.5304 191.133 17.145 191.858C16.771 192.583 16.244 193.144 15.564 193.541C14.8954 193.938 14.1417 194.136 13.303 194.136C12.4304 194.136 11.671 193.932 11.025 193.524C10.379 193.105 9.9087 192.583 9.61403 191.96V198.386H8.44103V184.718H9.61403V186.758ZM16.516 189.342C16.516 188.571 16.363 187.908 16.057 187.353C15.7624 186.786 15.3544 186.356 14.833 186.061C14.3117 185.766 13.7224 185.619 13.065 185.619C12.4304 185.619 11.8467 185.772 11.314 186.078C10.7927 186.384 10.379 186.82 10.073 187.387C9.76703 187.954 9.61403 188.611 9.61403 189.359C9.61403 190.107 9.76703 190.764 10.073 191.331C10.379 191.898 10.7927 192.334 11.314 192.64C11.8467 192.946 12.4304 193.099 13.065 193.099C13.7224 193.099 14.3117 192.952 14.833 192.657C15.3544 192.351 15.7624 191.915 16.057 191.348C16.363 190.77 16.516 190.101 16.516 189.342ZM24.6557 194.136C23.783 194.136 22.9954 193.943 22.2927 193.558C21.6014 193.161 21.0517 192.606 20.6437 191.892C20.247 191.167 20.0487 190.322 20.0487 189.359C20.0487 188.396 20.2527 187.557 20.6607 186.843C21.0687 186.118 21.624 185.562 22.3267 185.177C23.0294 184.78 23.817 184.582 24.6897 184.582C25.5624 184.582 26.35 184.78 27.0527 185.177C27.7667 185.562 28.322 186.118 28.7187 186.843C29.1267 187.557 29.3307 188.396 29.3307 189.359C29.3307 190.311 29.1267 191.15 28.7187 191.875C28.3107 192.6 27.7497 193.161 27.0357 193.558C26.3217 193.943 25.5284 194.136 24.6557 194.136ZM24.6557 193.099C25.2677 193.099 25.8344 192.963 26.3557 192.691C26.877 192.408 27.2964 191.988 27.6137 191.433C27.9424 190.866 28.1067 190.175 28.1067 189.359C28.1067 188.543 27.948 187.857 27.6307 187.302C27.3134 186.735 26.894 186.316 26.3727 186.044C25.8514 185.761 25.2847 185.619 24.6727 185.619C24.0607 185.619 23.494 185.761 22.9727 186.044C22.4514 186.316 22.032 186.735 21.7147 187.302C21.4087 187.857 21.2557 188.543 21.2557 189.359C21.2557 190.175 21.4087 190.866 21.7147 191.433C22.032 191.988 22.4457 192.408 22.9557 192.691C23.477 192.963 24.0437 193.099 24.6557 193.099ZM33.3699 186.367C33.6306 185.789 34.0273 185.341 34.5599 185.024C35.1039 184.707 35.7669 184.548 36.5489 184.548V185.789H36.2259C35.3646 185.789 34.6733 186.021 34.1519 186.486C33.6306 186.951 33.3699 187.727 33.3699 188.815V194H32.1799V184.718H33.3699V186.367ZM40.2091 186.367C40.4698 185.789 40.8665 185.341 41.3991 185.024C41.9431 184.707 42.6061 184.548 43.3881 184.548V185.789H43.0651C42.2038 185.789 41.5125 186.021 40.9911 186.486C40.4698 186.951 40.2091 187.727 40.2091 188.815V194H39.0191V184.718H40.2091V186.367ZM49.9213 194.136C49.0486 194.136 48.261 193.943 47.5583 193.558C46.867 193.161 46.3173 192.606 45.9093 191.892C45.5126 191.167 45.3143 190.322 45.3143 189.359C45.3143 188.396 45.5183 187.557 45.9263 186.843C46.3343 186.118 46.8896 185.562 47.5923 185.177C48.295 184.78 49.0826 184.582 49.9553 184.582C50.828 184.582 51.6156 184.78 52.3183 185.177C53.0323 185.562 53.5876 186.118 53.9843 186.843C54.3923 187.557 54.5963 188.396 54.5963 189.359C54.5963 190.311 54.3923 191.15 53.9843 191.875C53.5763 192.6 53.0153 193.161 52.3013 193.558C51.5873 193.943 50.794 194.136 49.9213 194.136ZM49.9213 193.099C50.5333 193.099 51.1 192.963 51.6213 192.691C52.1426 192.408 52.562 191.988 52.8793 191.433C53.208 190.866 53.3723 190.175 53.3723 189.359C53.3723 188.543 53.2136 187.857 52.8963 187.302C52.579 186.735 52.1596 186.316 51.6383 186.044C51.117 185.761 50.5503 185.619 49.9383 185.619C49.3263 185.619 48.7596 185.761 48.2383 186.044C47.717 186.316 47.2976 186.735 46.9803 187.302C46.6743 187.857 46.5213 188.543 46.5213 189.359C46.5213 190.175 46.6743 190.866 46.9803 191.433C47.2976 191.988 47.7113 192.408 48.2213 192.691C48.7426 192.963 49.3093 193.099 49.9213 193.099ZM62.2466 189.342C62.2466 188.39 62.4392 187.557 62.8246 186.843C63.2099 186.118 63.7369 185.562 64.4056 185.177C65.0856 184.78 65.8506 184.582 66.7006 184.582C67.5732 184.582 68.3326 184.792 68.9786 185.211C69.6246 185.619 70.0836 186.135 70.3556 186.758V184.718H71.5456V198.386H70.3556V191.96C70.0836 192.583 69.6189 193.105 68.9616 193.524C68.3156 193.932 67.5506 194.136 66.6666 194.136C65.8279 194.136 65.0686 193.938 64.3886 193.541C63.7199 193.144 63.1929 192.583 62.8076 191.858C62.4336 191.133 62.2466 190.294 62.2466 189.342ZM70.3556 189.359C70.3556 188.611 70.2026 187.954 69.8966 187.387C69.5906 186.82 69.1712 186.384 68.6386 186.078C68.1172 185.772 67.5392 185.619 66.9046 185.619C66.2472 185.619 65.6579 185.766 65.1366 186.061C64.6152 186.356 64.2016 186.786 63.8956 187.353C63.6009 187.908 63.4536 188.571 63.4536 189.342C63.4536 190.101 63.6009 190.77 63.8956 191.348C64.2016 191.915 64.6152 192.351 65.1366 192.657C65.6579 192.952 66.2472 193.099 66.9046 193.099C67.5392 193.099 68.1172 192.946 68.6386 192.64C69.1712 192.334 69.5906 191.898 69.8966 191.331C70.2026 190.764 70.3556 190.107 70.3556 189.359ZM82.9832 184.718V194H81.7932V192.368C81.5212 192.946 81.1019 193.388 80.5352 193.694C79.9686 194 79.3339 194.153 78.6312 194.153C77.5206 194.153 76.6139 193.813 75.9112 193.133C75.2086 192.442 74.8572 191.444 74.8572 190.141V184.718H76.0302V190.005C76.0302 191.014 76.2796 191.784 76.7782 192.317C77.2882 192.85 77.9796 193.116 78.8522 193.116C79.7476 193.116 80.4616 192.833 80.9942 192.266C81.5269 191.699 81.7932 190.866 81.7932 189.767V184.718H82.9832ZM86.9751 182.967C86.7371 182.967 86.5331 182.882 86.3631 182.712C86.1931 182.542 86.1081 182.332 86.1081 182.083C86.1081 181.834 86.1931 181.63 86.3631 181.471C86.5331 181.301 86.7371 181.216 86.9751 181.216C87.2131 181.216 87.4171 181.301 87.5871 181.471C87.7571 181.63 87.8421 181.834 87.8421 182.083C87.8421 182.332 87.7571 182.542 87.5871 182.712C87.4171 182.882 87.2131 182.967 86.9751 182.967ZM87.5701 184.718V194H86.3801V184.718H87.5701ZM94.1408 194.136C93.0755 194.136 92.2028 193.892 91.5228 193.405C90.8542 192.906 90.4802 192.232 90.4008 191.382H91.6248C91.6815 191.903 91.9252 192.328 92.3558 192.657C92.7978 192.974 93.3872 193.133 94.1238 193.133C94.7698 193.133 95.2742 192.98 95.6368 192.674C96.0108 192.368 96.1978 191.988 96.1978 191.535C96.1978 191.218 96.0958 190.957 95.8918 190.753C95.6878 190.549 95.4272 190.39 95.1098 190.277C94.8038 190.152 94.3845 190.022 93.8518 189.886C93.1605 189.705 92.5995 189.523 92.1688 189.342C91.7382 189.161 91.3698 188.894 91.0638 188.543C90.7692 188.18 90.6218 187.699 90.6218 187.098C90.6218 186.645 90.7578 186.225 91.0298 185.84C91.3018 185.455 91.6872 185.149 92.1858 184.922C92.6845 184.695 93.2512 184.582 93.8858 184.582C94.8832 184.582 95.6878 184.837 96.2998 185.347C96.9118 185.846 97.2405 186.537 97.2858 187.421H96.0958C96.0618 186.877 95.8465 186.441 95.4498 186.112C95.0645 185.772 94.5318 185.602 93.8518 185.602C93.2512 185.602 92.7638 185.744 92.3898 186.027C92.0158 186.31 91.8288 186.662 91.8288 187.081C91.8288 187.444 91.9365 187.744 92.1518 187.982C92.3785 188.209 92.6562 188.39 92.9848 188.526C93.3135 188.651 93.7555 188.792 94.3108 188.951C94.9795 189.132 95.5122 189.308 95.9088 189.478C96.3055 189.648 96.6455 189.897 96.9288 190.226C97.2122 190.555 97.3595 190.991 97.3708 191.535C97.3708 192.034 97.2348 192.481 96.9628 192.878C96.6908 193.263 96.3112 193.569 95.8238 193.796C95.3365 194.023 94.7755 194.136 94.1408 194.136ZM99.7468 189.342C99.7468 188.39 99.9395 187.557 100.325 186.843C100.71 186.118 101.237 185.562 101.906 185.177C102.586 184.78 103.351 184.582 104.201 184.582C105.074 184.582 105.833 184.792 106.479 185.211C107.125 185.619 107.584 186.135 107.856 186.758V184.718H109.046V198.386H107.856V191.96C107.584 192.583 107.119 193.105 106.462 193.524C105.816 193.932 105.051 194.136 104.167 194.136C103.328 194.136 102.569 193.938 101.889 193.541C101.22 193.144 100.693 192.583 100.308 191.858C99.9338 191.133 99.7468 190.294 99.7468 189.342ZM107.856 189.359C107.856 188.611 107.703 187.954 107.397 187.387C107.091 186.82 106.672 186.384 106.139 186.078C105.618 185.772 105.04 185.619 104.405 185.619C103.748 185.619 103.158 185.766 102.637 186.061C102.116 186.356 101.702 186.786 101.396 187.353C101.101 187.908 100.954 188.571 100.954 189.342C100.954 190.101 101.101 190.77 101.396 191.348C101.702 191.915 102.116 192.351 102.637 192.657C103.158 192.952 103.748 193.099 104.405 193.099C105.04 193.099 105.618 192.946 106.139 192.64C106.672 192.334 107.091 191.898 107.397 191.331C107.703 190.764 107.856 190.107 107.856 189.359ZM120.484 184.718V194H119.294V192.368C119.022 192.946 118.602 193.388 118.036 193.694C117.469 194 116.834 194.153 116.132 194.153C115.021 194.153 114.114 193.813 113.412 193.133C112.709 192.442 112.358 191.444 112.358 190.141V184.718H113.531V190.005C113.531 191.014 113.78 191.784 114.279 192.317C114.789 192.85 115.48 193.116 116.353 193.116C117.248 193.116 117.962 192.833 118.495 192.266C119.027 191.699 119.294 190.866 119.294 189.767V184.718H120.484ZM123.336 189.342C123.336 188.39 123.523 187.557 123.897 186.843C124.283 186.118 124.81 185.562 125.478 185.177C126.158 184.78 126.923 184.582 127.773 184.582C128.657 184.582 129.417 184.786 130.051 185.194C130.697 185.602 131.162 186.123 131.445 186.758V184.718H132.635V194H131.445V191.943C131.151 192.578 130.68 193.105 130.034 193.524C129.4 193.932 128.64 194.136 127.756 194.136C126.918 194.136 126.158 193.938 125.478 193.541C124.81 193.144 124.283 192.583 123.897 191.858C123.523 191.133 123.336 190.294 123.336 189.342ZM131.445 189.359C131.445 188.611 131.292 187.954 130.986 187.387C130.68 186.82 130.261 186.384 129.728 186.078C129.207 185.772 128.629 185.619 127.994 185.619C127.337 185.619 126.748 185.766 126.226 186.061C125.705 186.356 125.291 186.786 124.985 187.353C124.691 187.908 124.543 188.571 124.543 189.342C124.543 190.101 124.691 190.77 124.985 191.348C125.291 191.915 125.705 192.351 126.226 192.657C126.748 192.952 127.337 193.099 127.994 193.099C128.629 193.099 129.207 192.946 129.728 192.64C130.261 192.334 130.68 191.898 130.986 191.331C131.292 190.764 131.445 190.107 131.445 189.359ZM147.082 184.548C148.17 184.548 149.054 184.894 149.734 185.585C150.425 186.265 150.771 187.257 150.771 188.56V194H149.598V188.696C149.598 187.687 149.354 186.917 148.867 186.384C148.38 185.851 147.717 185.585 146.878 185.585C146.005 185.585 145.308 185.874 144.787 186.452C144.266 187.03 144.005 187.869 144.005 188.968V194H142.832V188.696C142.832 187.687 142.588 186.917 142.101 186.384C141.614 185.851 140.945 185.585 140.095 185.585C139.222 185.585 138.525 185.874 138.004 186.452C137.483 187.03 137.222 187.869 137.222 188.968V194H136.032V184.718H137.222V186.316C137.517 185.738 137.936 185.302 138.48 185.007C139.024 184.701 139.63 184.548 140.299 184.548C141.104 184.548 141.806 184.741 142.407 185.126C143.019 185.511 143.461 186.078 143.733 186.826C143.982 186.089 144.407 185.528 145.008 185.143C145.62 184.746 146.311 184.548 147.082 184.548ZM167.837 188.883C167.837 189.291 167.826 189.603 167.803 189.818H160.102C160.136 190.521 160.306 191.121 160.612 191.62C160.918 192.119 161.32 192.498 161.819 192.759C162.318 193.008 162.862 193.133 163.451 193.133C164.222 193.133 164.868 192.946 165.389 192.572C165.922 192.198 166.273 191.694 166.443 191.059H167.701C167.474 191.966 166.987 192.708 166.239 193.286C165.502 193.853 164.573 194.136 163.451 194.136C162.578 194.136 161.796 193.943 161.105 193.558C160.414 193.161 159.87 192.606 159.473 191.892C159.088 191.167 158.895 190.322 158.895 189.359C158.895 188.396 159.088 187.551 159.473 186.826C159.858 186.101 160.397 185.545 161.088 185.16C161.779 184.775 162.567 184.582 163.451 184.582C164.335 184.582 165.106 184.775 165.763 185.16C166.432 185.545 166.942 186.067 167.293 186.724C167.656 187.37 167.837 188.09 167.837 188.883ZM166.63 188.849C166.641 188.158 166.5 187.568 166.205 187.081C165.922 186.594 165.531 186.225 165.032 185.976C164.533 185.727 163.989 185.602 163.4 185.602C162.516 185.602 161.762 185.885 161.139 186.452C160.516 187.019 160.17 187.818 160.102 188.849H166.63ZM173.89 194.136C172.825 194.136 171.952 193.892 171.272 193.405C170.603 192.906 170.229 192.232 170.15 191.382H171.374C171.431 191.903 171.674 192.328 172.105 192.657C172.547 192.974 173.136 193.133 173.873 193.133C174.519 193.133 175.023 192.98 175.386 192.674C175.76 192.368 175.947 191.988 175.947 191.535C175.947 191.218 175.845 190.957 175.641 190.753C175.437 190.549 175.176 190.39 174.859 190.277C174.553 190.152 174.134 190.022 173.601 189.886C172.91 189.705 172.349 189.523 171.918 189.342C171.487 189.161 171.119 188.894 170.813 188.543C170.518 188.18 170.371 187.699 170.371 187.098C170.371 186.645 170.507 186.225 170.779 185.84C171.051 185.455 171.436 185.149 171.935 184.922C172.434 184.695 173 184.582 173.635 184.582C174.632 184.582 175.437 184.837 176.049 185.347C176.661 185.846 176.99 186.537 177.035 187.421H175.845C175.811 186.877 175.596 186.441 175.199 186.112C174.814 185.772 174.281 185.602 173.601 185.602C173 185.602 172.513 185.744 172.139 186.027C171.765 186.31 171.578 186.662 171.578 187.081C171.578 187.444 171.686 187.744 171.901 187.982C172.128 188.209 172.405 188.39 172.734 188.526C173.063 188.651 173.505 188.792 174.06 188.951C174.729 189.132 175.261 189.308 175.658 189.478C176.055 189.648 176.395 189.897 176.678 190.226C176.961 190.555 177.109 190.991 177.12 191.535C177.12 192.034 176.984 192.481 176.712 192.878C176.44 193.263 176.06 193.569 175.573 193.796C175.086 194.023 174.525 194.136 173.89 194.136ZM181.587 185.721V191.484C181.587 192.051 181.695 192.442 181.91 192.657C182.125 192.872 182.505 192.98 183.049 192.98H184.137V194H182.862C182.023 194 181.4 193.807 180.992 193.422C180.584 193.025 180.38 192.379 180.38 191.484V185.721H179.088V184.718H180.38V182.389H181.587V184.718H184.137V185.721H181.587ZM191.581 189.342C191.581 188.39 191.773 187.557 192.159 186.843C192.544 186.118 193.071 185.562 193.74 185.177C194.42 184.78 195.185 184.582 196.035 184.582C196.907 184.582 197.667 184.792 198.313 185.211C198.959 185.619 199.418 186.135 199.69 186.758V184.718H200.88V198.386H199.69V191.96C199.418 192.583 198.953 193.105 198.296 193.524C197.65 193.932 196.885 194.136 196.001 194.136C195.162 194.136 194.403 193.938 193.723 193.541C193.054 193.144 192.527 192.583 192.142 191.858C191.768 191.133 191.581 190.294 191.581 189.342ZM199.69 189.359C199.69 188.611 199.537 187.954 199.231 187.387C198.925 186.82 198.505 186.384 197.973 186.078C197.451 185.772 196.873 185.619 196.239 185.619C195.581 185.619 194.992 185.766 194.471 186.061C193.949 186.356 193.536 186.786 193.23 187.353C192.935 187.908 192.788 188.571 192.788 189.342C192.788 190.101 192.935 190.77 193.23 191.348C193.536 191.915 193.949 192.351 194.471 192.657C194.992 192.952 195.581 193.099 196.239 193.099C196.873 193.099 197.451 192.946 197.973 192.64C198.505 192.334 198.925 191.898 199.231 191.331C199.537 190.764 199.69 190.107 199.69 189.359ZM212.317 184.718V194H211.127V192.368C210.855 192.946 210.436 193.388 209.869 193.694C209.303 194 208.668 194.153 207.965 194.153C206.855 194.153 205.948 193.813 205.245 193.133C204.543 192.442 204.191 191.444 204.191 190.141V184.718H205.364V190.005C205.364 191.014 205.614 191.784 206.112 192.317C206.622 192.85 207.314 193.116 208.186 193.116C209.082 193.116 209.796 192.833 210.328 192.266C210.861 191.699 211.127 190.866 211.127 189.767V184.718H212.317ZM216.309 182.967C216.071 182.967 215.867 182.882 215.697 182.712C215.527 182.542 215.442 182.332 215.442 182.083C215.442 181.834 215.527 181.63 215.697 181.471C215.867 181.301 216.071 181.216 216.309 181.216C216.547 181.216 216.751 181.301 216.921 181.471C217.091 181.63 217.176 181.834 217.176 182.083C217.176 182.332 217.091 182.542 216.921 182.712C216.751 182.882 216.547 182.967 216.309 182.967ZM216.904 184.718V194H215.714V184.718H216.904ZM72.3725 210.342C72.3725 209.39 72.5652 208.557 72.9505 207.843C73.3359 207.118 73.8629 206.562 74.5315 206.177C75.2115 205.78 75.9765 205.582 76.8265 205.582C77.6425 205.582 78.3792 205.78 79.0365 206.177C79.6939 206.574 80.1755 207.089 80.4815 207.724V202.42H81.6715V215H80.4815V212.926C80.1982 213.572 79.7335 214.105 79.0875 214.524C78.4415 214.932 77.6822 215.136 76.8095 215.136C75.9595 215.136 75.1945 214.938 74.5145 214.541C73.8459 214.144 73.3189 213.583 72.9335 212.858C72.5595 212.133 72.3725 211.294 72.3725 210.342ZM80.4815 210.359C80.4815 209.611 80.3285 208.954 80.0225 208.387C79.7165 207.82 79.2972 207.384 78.7645 207.078C78.2432 206.772 77.6652 206.619 77.0305 206.619C76.3732 206.619 75.7839 206.766 75.2625 207.061C74.7412 207.356 74.3275 207.786 74.0215 208.353C73.7269 208.908 73.5795 209.571 73.5795 210.342C73.5795 211.101 73.7269 211.77 74.0215 212.348C74.3275 212.915 74.7412 213.351 75.2625 213.657C75.7839 213.952 76.3732 214.099 77.0305 214.099C77.6652 214.099 78.2432 213.946 78.7645 213.64C79.2972 213.334 79.7165 212.898 80.0225 212.331C80.3285 211.764 80.4815 211.107 80.4815 210.359ZM89.1312 215.136C88.2585 215.136 87.4709 214.943 86.7682 214.558C86.0769 214.161 85.5272 213.606 85.1192 212.892C84.7225 212.167 84.5242 211.322 84.5242 210.359C84.5242 209.396 84.7282 208.557 85.1362 207.843C85.5442 207.118 86.0995 206.562 86.8022 206.177C87.5049 205.78 88.2925 205.582 89.1652 205.582C90.0379 205.582 90.8255 205.78 91.5282 206.177C92.2422 206.562 92.7975 207.118 93.1942 207.843C93.6022 208.557 93.8062 209.396 93.8062 210.359C93.8062 211.311 93.6022 212.15 93.1942 212.875C92.7862 213.6 92.2252 214.161 91.5112 214.558C90.7972 214.943 90.0039 215.136 89.1312 215.136ZM89.1312 214.099C89.7432 214.099 90.3099 213.963 90.8312 213.691C91.3525 213.408 91.7719 212.988 92.0892 212.433C92.4179 211.866 92.5822 211.175 92.5822 210.359C92.5822 209.543 92.4235 208.857 92.1062 208.302C91.7889 207.735 91.3695 207.316 90.8482 207.044C90.3269 206.761 89.7602 206.619 89.1482 206.619C88.5362 206.619 87.9695 206.761 87.4482 207.044C86.9269 207.316 86.5075 207.735 86.1902 208.302C85.8842 208.857 85.7312 209.543 85.7312 210.359C85.7312 211.175 85.8842 211.866 86.1902 212.433C86.5075 212.988 86.9212 213.408 87.4312 213.691C87.9525 213.963 88.5192 214.099 89.1312 214.099ZM101.456 210.342C101.456 209.39 101.649 208.557 102.034 207.843C102.42 207.118 102.947 206.562 103.615 206.177C104.295 205.78 105.06 205.582 105.91 205.582C106.783 205.582 107.542 205.792 108.188 206.211C108.834 206.619 109.293 207.135 109.565 207.758V205.718H110.755V219.386H109.565V212.96C109.293 213.583 108.829 214.105 108.171 214.524C107.525 214.932 106.76 215.136 105.876 215.136C105.038 215.136 104.278 214.938 103.598 214.541C102.93 214.144 102.403 213.583 102.017 212.858C101.643 212.133 101.456 211.294 101.456 210.342ZM109.565 210.359C109.565 209.611 109.412 208.954 109.106 208.387C108.8 207.82 108.381 207.384 107.848 207.078C107.327 206.772 106.749 206.619 106.114 206.619C105.457 206.619 104.868 206.766 104.346 207.061C103.825 207.356 103.411 207.786 103.105 208.353C102.811 208.908 102.663 209.571 102.663 210.342C102.663 211.101 102.811 211.77 103.105 212.348C103.411 212.915 103.825 213.351 104.346 213.657C104.868 213.952 105.457 214.099 106.114 214.099C106.749 214.099 107.327 213.946 107.848 213.64C108.381 213.334 108.8 212.898 109.106 212.331C109.412 211.764 109.565 211.107 109.565 210.359ZM122.193 205.718V215H121.003V213.368C120.731 213.946 120.312 214.388 119.745 214.694C119.178 215 118.544 215.153 117.841 215.153C116.73 215.153 115.824 214.813 115.121 214.133C114.418 213.442 114.067 212.444 114.067 211.141V205.718H115.24V211.005C115.24 212.014 115.489 212.784 115.988 213.317C116.498 213.85 117.189 214.116 118.062 214.116C118.957 214.116 119.671 213.833 120.204 213.266C120.737 212.699 121.003 211.866 121.003 210.767V205.718H122.193ZM125.046 210.342C125.046 209.39 125.233 208.557 125.607 207.843C125.992 207.118 126.519 206.562 127.188 206.177C127.868 205.78 128.633 205.582 129.483 205.582C130.367 205.582 131.126 205.786 131.761 206.194C132.407 206.602 132.872 207.123 133.155 207.758V205.718H134.345V215H133.155V212.943C132.86 213.578 132.39 214.105 131.744 214.524C131.109 214.932 130.35 215.136 129.466 215.136C128.627 215.136 127.868 214.938 127.188 214.541C126.519 214.144 125.992 213.583 125.607 212.858C125.233 212.133 125.046 211.294 125.046 210.342ZM133.155 210.359C133.155 209.611 133.002 208.954 132.696 208.387C132.39 207.82 131.971 207.384 131.438 207.078C130.917 206.772 130.339 206.619 129.704 206.619C129.047 206.619 128.457 206.766 127.936 207.061C127.415 207.356 127.001 207.786 126.695 208.353C126.4 208.908 126.253 209.571 126.253 210.342C126.253 211.101 126.4 211.77 126.695 212.348C127.001 212.915 127.415 213.351 127.936 213.657C128.457 213.952 129.047 214.099 129.704 214.099C130.339 214.099 130.917 213.946 131.438 213.64C131.971 213.334 132.39 212.898 132.696 212.331C133.002 211.764 133.155 211.107 133.155 210.359ZM148.792 205.548C149.88 205.548 150.764 205.894 151.444 206.585C152.135 207.265 152.481 208.257 152.481 209.56V215H151.308V209.696C151.308 208.687 151.064 207.917 150.577 207.384C150.089 206.851 149.426 206.585 148.588 206.585C147.715 206.585 147.018 206.874 146.497 207.452C145.975 208.03 145.715 208.869 145.715 209.968V215H144.542V209.696C144.542 208.687 144.298 207.917 143.811 207.384C143.323 206.851 142.655 206.585 141.805 206.585C140.932 206.585 140.235 206.874 139.714 207.452C139.192 208.03 138.932 208.869 138.932 209.968V215H137.742V205.718H138.932V207.316C139.226 206.738 139.646 206.302 140.19 206.007C140.734 205.701 141.34 205.548 142.009 205.548C142.813 205.548 143.516 205.741 144.117 206.126C144.729 206.511 145.171 207.078 145.443 207.826C145.692 207.089 146.117 206.528 146.718 206.143C147.33 205.746 148.021 205.548 148.792 205.548Z" fill="white"/>
</svg>
