<svg width="226" height="211" viewBox="0 0 226 211" fill="none" xmlns="http://www.w3.org/2000/svg">
<g clip-path="url(#clip0_74_418)">
<path d="M86.3574 87.2906C86.3574 81.6954 90.7134 77.1777 96.0187 77.1777C101.324 77.1777 105.68 81.6954 105.68 87.2906C105.68 92.8859 101.324 97.4035 96.0187 97.4035C90.7134 97.4035 86.3574 92.8859 86.3574 87.2906ZM88.2606 87.2906C88.2606 91.7262 91.72 95.3713 96.0187 95.3713C100.317 95.3713 103.777 91.7262 103.777 87.2906C103.777 82.855 100.317 79.21 96.0187 79.21C91.72 79.21 88.2606 82.855 88.2606 87.2906Z" fill="#6D95FC" stroke="black"/>
<path d="M92.1641 87.2906C92.1641 85.0382 93.9143 83.2422 96.0189 83.2422C98.1235 83.2422 99.8737 85.0382 99.8737 87.2906C99.8737 89.5429 98.1235 91.339 96.0189 91.339C93.9143 91.339 92.1641 89.5429 92.1641 87.2906ZM94.0673 87.2906C94.0673 88.3826 94.9215 89.3067 96.0189 89.3067C97.1163 89.3067 97.9705 88.3826 97.9705 87.2906C97.9705 86.1986 97.1163 85.2744 96.0189 85.2744C94.9215 85.2744 94.0673 86.1986 94.0673 87.2906Z" fill="#6D95FC" stroke="black"/>
<mask id="path-4-inside-1_74_418" fill="white">
<path d="M156.137 83.8214L145.637 79.7097H143.921V67.0501C147.299 65.7979 149.728 62.4367 149.728 58.4839V56.1643C149.728 54.3342 150.545 52.5952 151.969 51.3911C156.08 47.9162 158.437 42.7662 158.437 37.2581C158.437 32.0883 156.32 27.144 152.627 23.6949C150.166 21.395 147.137 19.9215 143.921 19.3495V17.5484C143.921 15.0406 141.968 13 139.567 13H72.7923C70.3913 13 68.4375 15.0406 68.4375 17.5484V84.258C68.4375 86.7658 70.3913 88.8064 72.7923 88.8064H77.2081C77.4751 90.5012 78.6175 91.9253 80.2188 92.4742C80.6588 92.6259 80.9997 92.9534 81.1578 93.3792C81.233 93.5795 81.3088 93.7765 81.3918 93.9721C81.5628 94.3843 81.5427 94.8683 81.3367 95.296C80.4644 97.0972 80.7969 99.265 82.1629 100.695L83.1862 101.765C84.5523 103.191 86.6279 103.538 88.3536 102.626C88.7632 102.411 89.2272 102.39 89.6238 102.57C89.8097 102.655 89.9983 102.734 90.1914 102.812C90.5965 102.977 90.9114 103.336 91.0566 103.793C91.6573 105.711 93.3617 107 95.2948 107H96.7405C98.6743 107 100.378 105.71 100.981 103.793C101.126 103.334 101.44 102.977 101.847 102.812C102.039 102.734 102.228 102.655 102.415 102.568C102.811 102.391 103.272 102.41 103.682 102.626C105.407 103.535 107.485 103.188 108.852 101.763L109.876 100.694C111.241 99.2656 111.574 97.0956 110.701 95.2967C110.635 95.16 110.621 95.0145 110.593 94.8723H145.638L156.137 90.7592C157.512 90.2177 158.437 88.8248 158.437 87.2903C158.437 85.7558 157.512 84.3629 156.136 83.8214L156.137 83.8214ZM114.828 85.7742C114.634 84.5416 113.975 83.456 113.014 82.7419H143.921V85.7742H114.828ZM114.828 88.8064H143.922V91.8387H113.015C113.977 91.1246 114.636 90.0389 114.83 88.8064H114.828ZM141.019 64.5484C137.817 64.5484 135.212 61.8282 135.212 58.4839H146.825C146.825 61.8282 144.221 64.5484 141.019 64.5484ZM140.053 41.8064H141.984L141.111 55.4516H140.924L140.053 41.8064ZM155.535 37.2581C155.535 41.8458 153.569 46.1382 150.144 49.0338C148.218 50.6609 147.054 52.9697 146.864 55.4516H144.021L144.892 41.8064H146.825C149.226 41.8064 151.18 39.7658 151.18 37.2581C151.18 34.7503 149.226 32.7097 146.825 32.7097H146.638C144.353 32.7097 142.442 34.5744 142.293 36.9562L142.177 38.7742H139.86L139.744 36.9576C139.595 34.5744 137.684 32.7097 135.399 32.7097H135.212C132.811 32.7097 130.857 34.7503 130.857 37.2581C130.857 39.7658 132.811 41.8064 135.212 41.8064H137.144L138.015 55.4516H135.171C134.975 52.9804 133.789 50.6528 131.831 48.979C127.807 45.5406 125.881 40.2525 126.682 34.835C127.655 28.2521 132.978 22.9361 139.342 22.195C139.91 22.1287 140.477 22.0969 141.039 22.0969C144.618 22.0969 147.996 23.4357 150.692 25.9543C153.769 28.8288 155.535 32.9493 155.535 37.2581ZM145.088 38.7742L145.191 37.1565C145.24 36.3633 145.877 35.7419 146.638 35.7419H146.825C147.626 35.7419 148.277 36.4215 148.277 37.2581C148.277 38.0946 147.626 38.7742 146.825 38.7742H145.088ZM136.949 38.7742H135.212C134.411 38.7742 133.76 38.0946 133.76 37.2581C133.76 36.4215 134.411 35.7419 135.212 35.7419H135.399C136.16 35.7419 136.797 36.3633 136.846 37.1579L136.949 38.7742ZM106.18 37.2581H101.825C100.339 37.2581 99.0252 38.0432 98.2398 39.2337C97.015 38.0174 95.3683 37.2581 93.5498 37.2581H93.1533C91.9168 37.2581 90.7029 37.608 89.6415 38.274L82.9543 42.4644V45.5677L89.285 50.856C90.4897 51.8645 92.0049 52.4195 93.5497 52.4195C95.3688 52.4195 97.0149 51.66 98.2397 50.4438C99.0251 51.6344 100.339 52.4195 101.825 52.4195H106.18V55.4517H77.1479V34.2259H106.18L106.18 37.2581ZM93.5498 49.3871C92.6627 49.3871 91.7917 49.069 91.0995 48.4882L85.9054 44.1504L91.1339 40.8738C91.745 40.4921 92.4423 40.2904 93.1519 40.2904H93.5485C95.7109 40.2904 97.4705 42.1279 97.4705 44.3853V45.2923C97.4705 47.5495 95.7112 49.3871 93.5498 49.3871ZM101.825 49.3871C101.024 49.3871 100.374 48.7075 100.374 47.871V41.8064C100.374 40.9699 101.024 40.2903 101.825 40.2903H123.877C124.418 43.6698 125.845 46.8111 128.07 49.3871H101.825ZM72.7931 16.0323H139.567C140.368 16.0323 141.019 16.7118 141.019 17.5484V19.0753C140.354 19.074 139.687 19.1044 139.018 19.1816C134.751 19.6784 130.874 21.8937 128.077 25.129H106.181V19.0645H97.4709V25.129H94.5676V19.0645H85.858V25.129H82.9547V19.0645H74.2451V25.129H71.3418V17.5483C71.3418 16.7118 71.9925 16.0322 72.7934 16.0322L72.7931 16.0323ZM103.277 25.129H100.374V22.0968H103.277V25.129ZM91.6641 25.129H88.7609V22.0968H91.6641V25.129ZM80.0512 25.129H77.148V22.0968H80.0512V25.129ZM71.3415 84.258V28.1613H125.96C124.895 30.0565 124.143 32.15 123.815 34.3746C123.671 35.3432 123.625 36.3051 123.625 37.2581H109.084V31.1935H74.2453V58.4839H109.084V52.4193H131.016C131.846 53.5199 132.311 54.8282 132.311 56.1731V58.4839C132.311 63.5006 136.217 67.5806 141.02 67.5806V79.7097H110.594C110.622 79.5668 110.637 79.4213 110.702 79.2866C111.574 77.4855 111.242 75.3177 109.876 73.8875L108.853 72.8187C107.488 71.3906 105.409 71.0399 103.685 71.9558C103.278 72.1723 102.813 72.194 102.415 72.0119C102.229 71.9273 102.04 71.8481 101.847 71.7696C101.442 71.6045 101.127 71.2464 100.982 70.7889C100.381 68.8694 98.6765 67.5806 96.7433 67.5806H95.2975C93.3638 67.5806 91.66 68.8706 91.0573 70.7875C90.9121 71.2471 90.5985 71.6031 90.1909 71.7682C89.999 71.8468 89.8104 71.926 89.6232 72.0126C89.2266 72.1899 88.7665 72.1703 88.3556 71.9551C86.6311 71.0454 84.5535 71.3926 83.1862 72.818L82.1616 73.8868C80.7969 75.3149 80.4645 77.4849 81.3373 79.2839C81.5447 79.713 81.5635 80.1962 81.3911 80.6105C81.3101 80.8047 81.2343 81.0017 81.1591 81.2034C81.001 81.6264 80.6582 81.9553 80.2201 82.107C78.6182 82.6552 77.4756 84.0793 77.2099 85.7741H72.7942C71.9932 85.7741 71.3425 85.0945 71.3425 84.2579L71.3415 84.258ZM108.174 92.2765C108.113 92.4403 108.048 92.6028 107.982 92.7618C107.466 94.0039 107.512 95.4259 108.109 96.6611C108.413 97.2906 108.297 98.0487 107.821 98.5476L106.798 99.615C106.32 100.114 105.596 100.235 104.99 99.9168C103.81 99.2934 102.448 99.2454 101.26 99.7835C101.106 99.8532 100.951 99.9216 100.795 99.9852C99.5774 100.479 98.641 101.524 98.2243 102.848C98.013 103.518 97.4174 103.968 96.7415 103.968H95.2958C94.6192 103.968 94.0243 103.518 93.8137 102.846C93.397 101.524 92.4593 100.481 91.2429 99.9859C91.0861 99.9223 90.9306 99.8539 90.7783 99.7856C90.2294 99.5372 89.6449 99.4127 89.0564 99.4127C88.3695 99.4127 87.6819 99.5812 87.0429 99.9176C86.4402 100.236 85.7144 100.115 85.2368 99.6171L84.2148 98.5483C83.7372 98.0495 83.6212 97.2914 83.9258 96.6605C84.5226 95.4266 84.5686 94.0046 84.0534 92.764C83.9867 92.6036 83.9212 92.4411 83.8603 92.2787C83.3872 91.0069 82.3867 90.0289 81.1197 89.5937C80.4813 89.3737 80.0504 88.7517 80.0504 88.0457V86.5357C80.0504 85.8291 80.4814 85.2077 81.1249 84.9878C82.3905 84.5525 83.389 83.5731 83.8629 82.3027C83.9238 82.1389 83.9892 81.9765 84.0547 81.8174C84.5712 80.5754 84.5251 79.1534 83.9283 77.9181C83.6237 77.2887 83.7397 76.5306 84.216 76.0317L85.2393 74.963C85.7169 74.4655 86.4427 74.3457 87.0468 74.6624C88.2281 75.2858 89.593 75.3359 90.7775 74.7958C90.9311 74.7261 91.0866 74.6577 91.2421 74.5941C92.4598 74.1 93.3962 73.0549 93.8129 71.7316C94.0235 71.0629 94.6191 70.6128 95.295 70.6128H96.7407C97.4173 70.6128 98.0122 71.0629 98.2228 71.735C98.6395 73.0569 99.5772 74.0998 100.794 74.5947C100.95 74.6583 101.106 74.7267 101.258 74.795C102.449 75.3345 103.809 75.2864 104.992 74.6631C105.597 74.3429 106.321 74.4674 106.798 74.9636L107.82 76.0323C108.297 76.5312 108.413 77.2892 108.109 77.9201C107.512 79.154 107.466 80.576 107.981 81.8167C108.048 81.9771 108.113 82.1395 108.174 82.302C108.647 83.5737 109.648 84.5517 110.915 84.987C111.555 85.2069 111.986 85.829 111.986 86.5349V88.0449C111.986 88.7516 111.555 89.3729 110.912 89.5929C109.646 90.0281 108.647 91.0061 108.174 92.2765ZM155.117 87.9196L146.825 91.1671V83.4139L155.117 86.6599C155.366 86.7581 155.535 87.0112 155.535 87.2901C155.535 87.5689 155.366 87.8222 155.117 87.9196Z"/>
</mask>
<path d="M156.137 83.8214L145.637 79.7097H143.921V67.0501C147.299 65.7979 149.728 62.4367 149.728 58.4839V56.1643C149.728 54.3342 150.545 52.5952 151.969 51.3911C156.08 47.9162 158.437 42.7662 158.437 37.2581C158.437 32.0883 156.32 27.144 152.627 23.6949C150.166 21.395 147.137 19.9215 143.921 19.3495V17.5484C143.921 15.0406 141.968 13 139.567 13H72.7923C70.3913 13 68.4375 15.0406 68.4375 17.5484V84.258C68.4375 86.7658 70.3913 88.8064 72.7923 88.8064H77.2081C77.4751 90.5012 78.6175 91.9253 80.2188 92.4742C80.6588 92.6259 80.9997 92.9534 81.1578 93.3792C81.233 93.5795 81.3088 93.7765 81.3918 93.9721C81.5628 94.3843 81.5427 94.8683 81.3367 95.296C80.4644 97.0972 80.7969 99.265 82.1629 100.695L83.1862 101.765C84.5523 103.191 86.6279 103.538 88.3536 102.626C88.7632 102.411 89.2272 102.39 89.6238 102.57C89.8097 102.655 89.9983 102.734 90.1914 102.812C90.5965 102.977 90.9114 103.336 91.0566 103.793C91.6573 105.711 93.3617 107 95.2948 107H96.7405C98.6743 107 100.378 105.71 100.981 103.793C101.126 103.334 101.44 102.977 101.847 102.812C102.039 102.734 102.228 102.655 102.415 102.568C102.811 102.391 103.272 102.41 103.682 102.626C105.407 103.535 107.485 103.188 108.852 101.763L109.876 100.694C111.241 99.2656 111.574 97.0956 110.701 95.2967C110.635 95.16 110.621 95.0145 110.593 94.8723H145.638L156.137 90.7592C157.512 90.2177 158.437 88.8248 158.437 87.2903C158.437 85.7558 157.512 84.3629 156.136 83.8214L156.137 83.8214ZM114.828 85.7742C114.634 84.5416 113.975 83.456 113.014 82.7419H143.921V85.7742H114.828ZM114.828 88.8064H143.922V91.8387H113.015C113.977 91.1246 114.636 90.0389 114.83 88.8064H114.828ZM141.019 64.5484C137.817 64.5484 135.212 61.8282 135.212 58.4839H146.825C146.825 61.8282 144.221 64.5484 141.019 64.5484ZM140.053 41.8064H141.984L141.111 55.4516H140.924L140.053 41.8064ZM155.535 37.2581C155.535 41.8458 153.569 46.1382 150.144 49.0338C148.218 50.6609 147.054 52.9697 146.864 55.4516H144.021L144.892 41.8064H146.825C149.226 41.8064 151.18 39.7658 151.18 37.2581C151.18 34.7503 149.226 32.7097 146.825 32.7097H146.638C144.353 32.7097 142.442 34.5744 142.293 36.9562L142.177 38.7742H139.86L139.744 36.9576C139.595 34.5744 137.684 32.7097 135.399 32.7097H135.212C132.811 32.7097 130.857 34.7503 130.857 37.2581C130.857 39.7658 132.811 41.8064 135.212 41.8064H137.144L138.015 55.4516H135.171C134.975 52.9804 133.789 50.6528 131.831 48.979C127.807 45.5406 125.881 40.2525 126.682 34.835C127.655 28.2521 132.978 22.9361 139.342 22.195C139.91 22.1287 140.477 22.0969 141.039 22.0969C144.618 22.0969 147.996 23.4357 150.692 25.9543C153.769 28.8288 155.535 32.9493 155.535 37.2581ZM145.088 38.7742L145.191 37.1565C145.24 36.3633 145.877 35.7419 146.638 35.7419H146.825C147.626 35.7419 148.277 36.4215 148.277 37.2581C148.277 38.0946 147.626 38.7742 146.825 38.7742H145.088ZM136.949 38.7742H135.212C134.411 38.7742 133.76 38.0946 133.76 37.2581C133.76 36.4215 134.411 35.7419 135.212 35.7419H135.399C136.16 35.7419 136.797 36.3633 136.846 37.1579L136.949 38.7742ZM106.18 37.2581H101.825C100.339 37.2581 99.0252 38.0432 98.2398 39.2337C97.015 38.0174 95.3683 37.2581 93.5498 37.2581H93.1533C91.9168 37.2581 90.7029 37.608 89.6415 38.274L82.9543 42.4644V45.5677L89.285 50.856C90.4897 51.8645 92.0049 52.4195 93.5497 52.4195C95.3688 52.4195 97.0149 51.66 98.2397 50.4438C99.0251 51.6344 100.339 52.4195 101.825 52.4195H106.18V55.4517H77.1479V34.2259H106.18L106.18 37.2581ZM93.5498 49.3871C92.6627 49.3871 91.7917 49.069 91.0995 48.4882L85.9054 44.1504L91.1339 40.8738C91.745 40.4921 92.4423 40.2904 93.1519 40.2904H93.5485C95.7109 40.2904 97.4705 42.1279 97.4705 44.3853V45.2923C97.4705 47.5495 95.7112 49.3871 93.5498 49.3871ZM101.825 49.3871C101.024 49.3871 100.374 48.7075 100.374 47.871V41.8064C100.374 40.9699 101.024 40.2903 101.825 40.2903H123.877C124.418 43.6698 125.845 46.8111 128.07 49.3871H101.825ZM72.7931 16.0323H139.567C140.368 16.0323 141.019 16.7118 141.019 17.5484V19.0753C140.354 19.074 139.687 19.1044 139.018 19.1816C134.751 19.6784 130.874 21.8937 128.077 25.129H106.181V19.0645H97.4709V25.129H94.5676V19.0645H85.858V25.129H82.9547V19.0645H74.2451V25.129H71.3418V17.5483C71.3418 16.7118 71.9925 16.0322 72.7934 16.0322L72.7931 16.0323ZM103.277 25.129H100.374V22.0968H103.277V25.129ZM91.6641 25.129H88.7609V22.0968H91.6641V25.129ZM80.0512 25.129H77.148V22.0968H80.0512V25.129ZM71.3415 84.258V28.1613H125.96C124.895 30.0565 124.143 32.15 123.815 34.3746C123.671 35.3432 123.625 36.3051 123.625 37.2581H109.084V31.1935H74.2453V58.4839H109.084V52.4193H131.016C131.846 53.5199 132.311 54.8282 132.311 56.1731V58.4839C132.311 63.5006 136.217 67.5806 141.02 67.5806V79.7097H110.594C110.622 79.5668 110.637 79.4213 110.702 79.2866C111.574 77.4855 111.242 75.3177 109.876 73.8875L108.853 72.8187C107.488 71.3906 105.409 71.0399 103.685 71.9558C103.278 72.1723 102.813 72.194 102.415 72.0119C102.229 71.9273 102.04 71.8481 101.847 71.7696C101.442 71.6045 101.127 71.2464 100.982 70.7889C100.381 68.8694 98.6765 67.5806 96.7433 67.5806H95.2975C93.3638 67.5806 91.66 68.8706 91.0573 70.7875C90.9121 71.2471 90.5985 71.6031 90.1909 71.7682C89.999 71.8468 89.8104 71.926 89.6232 72.0126C89.2266 72.1899 88.7665 72.1703 88.3556 71.9551C86.6311 71.0454 84.5535 71.3926 83.1862 72.818L82.1616 73.8868C80.7969 75.3149 80.4645 77.4849 81.3373 79.2839C81.5447 79.713 81.5635 80.1962 81.3911 80.6105C81.3101 80.8047 81.2343 81.0017 81.1591 81.2034C81.001 81.6264 80.6582 81.9553 80.2201 82.107C78.6182 82.6552 77.4756 84.0793 77.2099 85.7741H72.7942C71.9932 85.7741 71.3425 85.0945 71.3425 84.2579L71.3415 84.258ZM108.174 92.2765C108.113 92.4403 108.048 92.6028 107.982 92.7618C107.466 94.0039 107.512 95.4259 108.109 96.6611C108.413 97.2906 108.297 98.0487 107.821 98.5476L106.798 99.615C106.32 100.114 105.596 100.235 104.99 99.9168C103.81 99.2934 102.448 99.2454 101.26 99.7835C101.106 99.8532 100.951 99.9216 100.795 99.9852C99.5774 100.479 98.641 101.524 98.2243 102.848C98.013 103.518 97.4174 103.968 96.7415 103.968H95.2958C94.6192 103.968 94.0243 103.518 93.8137 102.846C93.397 101.524 92.4593 100.481 91.2429 99.9859C91.0861 99.9223 90.9306 99.8539 90.7783 99.7856C90.2294 99.5372 89.6449 99.4127 89.0564 99.4127C88.3695 99.4127 87.6819 99.5812 87.0429 99.9176C86.4402 100.236 85.7144 100.115 85.2368 99.6171L84.2148 98.5483C83.7372 98.0495 83.6212 97.2914 83.9258 96.6605C84.5226 95.4266 84.5686 94.0046 84.0534 92.764C83.9867 92.6036 83.9212 92.4411 83.8603 92.2787C83.3872 91.0069 82.3867 90.0289 81.1197 89.5937C80.4813 89.3737 80.0504 88.7517 80.0504 88.0457V86.5357C80.0504 85.8291 80.4814 85.2077 81.1249 84.9878C82.3905 84.5525 83.389 83.5731 83.8629 82.3027C83.9238 82.1389 83.9892 81.9765 84.0547 81.8174C84.5712 80.5754 84.5251 79.1534 83.9283 77.9181C83.6237 77.2887 83.7397 76.5306 84.216 76.0317L85.2393 74.963C85.7169 74.4655 86.4427 74.3457 87.0468 74.6624C88.2281 75.2858 89.593 75.3359 90.7775 74.7958C90.9311 74.7261 91.0866 74.6577 91.2421 74.5941C92.4598 74.1 93.3962 73.0549 93.8129 71.7316C94.0235 71.0629 94.6191 70.6128 95.295 70.6128H96.7407C97.4173 70.6128 98.0122 71.0629 98.2228 71.735C98.6395 73.0569 99.5772 74.0998 100.794 74.5947C100.95 74.6583 101.106 74.7267 101.258 74.795C102.449 75.3345 103.809 75.2864 104.992 74.6631C105.597 74.3429 106.321 74.4674 106.798 74.9636L107.82 76.0323C108.297 76.5312 108.413 77.2892 108.109 77.9201C107.512 79.154 107.466 80.576 107.981 81.8167C108.048 81.9771 108.113 82.1395 108.174 82.302C108.647 83.5737 109.648 84.5517 110.915 84.987C111.555 85.2069 111.986 85.829 111.986 86.5349V88.0449C111.986 88.7516 111.555 89.3729 110.912 89.5929C109.646 90.0281 108.647 91.0061 108.174 92.2765ZM155.117 87.9196L146.825 91.1671V83.4139L155.117 86.6599C155.366 86.7581 155.535 87.0112 155.535 87.2901C155.535 87.5689 155.366 87.8222 155.117 87.9196Z" fill="white" stroke="black" stroke-width="2" mask="url(#path-4-inside-1_74_418)"/>
<path d="M112.486 55.9512H128.906V57.9834H112.486V55.9512Z" fill="#6D95FC" stroke="black"/>
<path d="M112.486 62.0166H128.906V64.0489H112.486V62.0166Z" fill="#6D95FC" stroke="black"/>
<path d="M112.486 68.0811H128.906V70.1133H112.486V68.0811Z" fill="#6D95FC" stroke="black"/>
<path d="M121.195 74.1455H123.099V76.1778H121.195V74.1455Z" fill="#6D95FC" stroke="black"/>
<path d="M127.002 74.1455H128.905V76.1778H127.002V74.1455Z" fill="#6D95FC" stroke="black"/>
<path d="M115.389 74.1455H117.292V76.1778H115.389V74.1455Z" fill="#6D95FC" stroke="black"/>
</g>
<rect x="68" y="13" width="90" height="94" stroke="black"/>
<path d="M40.0727 118.842L35.9777 133.5H32.5127L29.7617 123.063L26.8847 133.5L23.4407 133.521L19.4927 118.842H22.6427L25.2257 130.224L28.2077 118.842H31.4837L34.2977 130.161L36.9017 118.842H40.0727ZM46.1924 121.215V124.89H51.1274V127.221H46.1924V131.106H51.7574V133.5H43.2524V118.821H51.7574V121.215H46.1924ZM64.0052 125.982C64.8312 126.136 65.5102 126.549 66.0422 127.221C66.5742 127.893 66.8402 128.663 66.8402 129.531C66.8402 130.315 66.6442 131.008 66.2522 131.61C65.8742 132.198 65.3212 132.66 64.5932 132.996C63.8652 133.332 63.0042 133.5 62.0102 133.5H55.6892V118.842H61.7372C62.7312 118.842 63.5852 119.003 64.2992 119.325C65.0272 119.647 65.5732 120.095 65.9372 120.669C66.3152 121.243 66.5042 121.894 66.5042 122.622C66.5042 123.476 66.2732 124.19 65.8112 124.764C65.3632 125.338 64.7612 125.744 64.0052 125.982ZM58.6292 124.89H61.3172C62.0172 124.89 62.5562 124.736 62.9342 124.428C63.3122 124.106 63.5012 123.651 63.5012 123.063C63.5012 122.475 63.3122 122.02 62.9342 121.698C62.5562 121.376 62.0172 121.215 61.3172 121.215H58.6292V124.89ZM61.5902 131.106C62.3042 131.106 62.8572 130.938 63.2492 130.602C63.6552 130.266 63.8582 129.79 63.8582 129.174C63.8582 128.544 63.6482 128.054 63.2282 127.704C62.8082 127.34 62.2412 127.158 61.5272 127.158H58.6292V131.106H61.5902ZM75.5043 133.647C74.4823 133.647 73.5583 133.472 72.7323 133.122C71.9203 132.772 71.2763 132.268 70.8003 131.61C70.3243 130.952 70.0793 130.175 70.0653 129.279H73.2153C73.2573 129.881 73.4673 130.357 73.8453 130.707C74.2373 131.057 74.7693 131.232 75.4413 131.232C76.1273 131.232 76.6663 131.071 77.0583 130.749C77.4503 130.413 77.6463 129.979 77.6463 129.447C77.6463 129.013 77.5133 128.656 77.2473 128.376C76.9813 128.096 76.6453 127.879 76.2393 127.725C75.8473 127.557 75.3013 127.375 74.6013 127.179C73.6493 126.899 72.8723 126.626 72.2703 126.36C71.6823 126.08 71.1713 125.667 70.7373 125.121C70.3173 124.561 70.1073 123.819 70.1073 122.895C70.1073 122.027 70.3243 121.271 70.7583 120.627C71.1923 119.983 71.8013 119.493 72.5853 119.157C73.3693 118.807 74.2653 118.632 75.2733 118.632C76.7853 118.632 78.0103 119.003 78.9483 119.745C79.9003 120.473 80.4253 121.495 80.5233 122.811H77.2893C77.2613 122.307 77.0443 121.894 76.6383 121.572C76.2463 121.236 75.7213 121.068 75.0633 121.068C74.4893 121.068 74.0273 121.215 73.6773 121.509C73.3413 121.803 73.1733 122.23 73.1733 122.79C73.1733 123.182 73.2993 123.511 73.5513 123.777C73.8173 124.029 74.1393 124.239 74.5173 124.407C74.9093 124.561 75.4553 124.743 76.1553 124.953C77.1073 125.233 77.8843 125.513 78.4863 125.793C79.0883 126.073 79.6063 126.493 80.0403 127.053C80.4743 127.613 80.6913 128.348 80.6913 129.258C80.6913 130.042 80.4883 130.77 80.0823 131.442C79.6763 132.114 79.0813 132.653 78.2973 133.059C77.5133 133.451 76.5823 133.647 75.5043 133.647ZM87.4402 118.842V133.5H84.5002V118.842H87.4402ZM101.58 118.842V121.215H97.6739V133.5H94.7339V121.215H90.8279V118.842H101.58ZM107.925 121.215V124.89H112.86V127.221H107.925V131.106H113.49V133.5H104.985V118.821H113.49V121.215H107.925ZM128.81 118.842C130.35 118.842 131.701 119.143 132.863 119.745C134.039 120.347 134.942 121.208 135.572 122.328C136.216 123.434 136.538 124.722 136.538 126.192C136.538 127.662 136.216 128.95 135.572 130.056C134.942 131.148 134.039 131.995 132.863 132.597C131.701 133.199 130.35 133.5 128.81 133.5H123.686V118.842H128.81ZM128.705 131.001C130.245 131.001 131.435 130.581 132.275 129.741C133.115 128.901 133.535 127.718 133.535 126.192C133.535 124.666 133.115 123.476 132.275 122.622C131.435 121.754 130.245 121.32 128.705 121.32H126.626V131.001H128.705ZM142.938 121.215V124.89H147.873V127.221H142.938V131.106H148.503V133.5H139.998V118.821H148.503V121.215H142.938ZM157.496 133.647C156.474 133.647 155.55 133.472 154.724 133.122C153.912 132.772 153.268 132.268 152.792 131.61C152.316 130.952 152.071 130.175 152.057 129.279H155.207C155.249 129.881 155.459 130.357 155.837 130.707C156.229 131.057 156.761 131.232 157.433 131.232C158.119 131.232 158.658 131.071 159.05 130.749C159.442 130.413 159.638 129.979 159.638 129.447C159.638 129.013 159.505 128.656 159.239 128.376C158.973 128.096 158.637 127.879 158.231 127.725C157.839 127.557 157.293 127.375 156.593 127.179C155.641 126.899 154.864 126.626 154.262 126.36C153.674 126.08 153.163 125.667 152.729 125.121C152.309 124.561 152.099 123.819 152.099 122.895C152.099 122.027 152.316 121.271 152.75 120.627C153.184 119.983 153.793 119.493 154.577 119.157C155.361 118.807 156.257 118.632 157.265 118.632C158.777 118.632 160.002 119.003 160.94 119.745C161.892 120.473 162.417 121.495 162.515 122.811H159.281C159.253 122.307 159.036 121.894 158.63 121.572C158.238 121.236 157.713 121.068 157.055 121.068C156.481 121.068 156.019 121.215 155.669 121.509C155.333 121.803 155.165 122.23 155.165 122.79C155.165 123.182 155.291 123.511 155.543 123.777C155.809 124.029 156.131 124.239 156.509 124.407C156.901 124.561 157.447 124.743 158.147 124.953C159.099 125.233 159.876 125.513 160.478 125.793C161.08 126.073 161.598 126.493 162.032 127.053C162.466 127.613 162.683 128.348 162.683 129.258C162.683 130.042 162.48 130.77 162.074 131.442C161.668 132.114 161.073 132.653 160.289 133.059C159.505 133.451 158.574 133.647 157.496 133.647ZM169.432 118.842V133.5H166.492V118.842H169.432ZM183.803 123.252C183.467 122.636 183.005 122.167 182.417 121.845C181.829 121.523 181.143 121.362 180.359 121.362C179.491 121.362 178.721 121.558 178.049 121.95C177.377 122.342 176.852 122.902 176.474 123.63C176.096 124.358 175.907 125.198 175.907 126.15C175.907 127.13 176.096 127.984 176.474 128.712C176.866 129.44 177.405 130 178.091 130.392C178.777 130.784 179.575 130.98 180.485 130.98C181.605 130.98 182.522 130.686 183.236 130.098C183.95 129.496 184.419 128.663 184.643 127.599H179.603V125.352H187.541V127.914C187.345 128.936 186.925 129.881 186.281 130.749C185.637 131.617 184.804 132.317 183.782 132.849C182.774 133.367 181.64 133.626 180.38 133.626C178.966 133.626 177.685 133.311 176.537 132.681C175.403 132.037 174.507 131.148 173.849 130.014C173.205 128.88 172.883 127.592 172.883 126.15C172.883 124.708 173.205 123.42 173.849 122.286C174.507 121.138 175.403 120.249 176.537 119.619C177.685 118.975 178.959 118.653 180.359 118.653C182.011 118.653 183.446 119.059 184.664 119.871C185.882 120.669 186.722 121.796 187.184 123.252H183.803ZM203.513 133.5H200.573L193.916 123.441V133.5H190.976V118.821H193.916L200.573 128.901V118.821H203.513V133.5Z" fill="#6D95FC"/>
<path d="M10.8755 161.531H15.1425V162.5H9.68549V150.617H10.8755V161.531ZM21.5838 162.636C20.7111 162.636 19.9234 162.443 19.2208 162.058C18.5294 161.661 17.9798 161.106 17.5718 160.392C17.1751 159.667 16.9768 158.822 16.9768 157.859C16.9768 156.896 17.1808 156.057 17.5888 155.343C17.9968 154.618 18.5521 154.062 19.2548 153.677C19.9574 153.28 20.7451 153.082 21.6178 153.082C22.4904 153.082 23.2781 153.28 23.9808 153.677C24.6948 154.062 25.2501 154.618 25.6468 155.343C26.0548 156.057 26.2588 156.896 26.2588 157.859C26.2588 158.811 26.0548 159.65 25.6468 160.375C25.2388 161.1 24.6778 161.661 23.9638 162.058C23.2498 162.443 22.4564 162.636 21.5838 162.636ZM21.5838 161.599C22.1958 161.599 22.7624 161.463 23.2838 161.191C23.8051 160.908 24.2244 160.488 24.5418 159.933C24.8704 159.366 25.0348 158.675 25.0348 157.859C25.0348 157.043 24.8761 156.357 24.5588 155.802C24.2414 155.235 23.8221 154.816 23.3008 154.544C22.7794 154.261 22.2128 154.119 21.6008 154.119C20.9888 154.119 20.4221 154.261 19.9008 154.544C19.3794 154.816 18.9601 155.235 18.6428 155.802C18.3368 156.357 18.1838 157.043 18.1838 157.859C18.1838 158.675 18.3368 159.366 18.6428 159.933C18.9601 160.488 19.3738 160.908 19.8838 161.191C20.4051 161.463 20.9718 161.599 21.5838 161.599ZM30.298 154.867C30.5587 154.289 30.9553 153.841 31.488 153.524C32.032 153.207 32.695 153.048 33.477 153.048V154.289H33.154C32.2927 154.289 31.6013 154.521 31.08 154.986C30.5587 155.451 30.298 156.227 30.298 157.315V162.5H29.108V153.218H30.298V154.867ZM44.3452 157.383C44.3452 157.791 44.3338 158.103 44.3112 158.318H36.6102C36.6442 159.021 36.8142 159.621 37.1202 160.12C37.4262 160.619 37.8285 160.998 38.3272 161.259C38.8258 161.508 39.3698 161.633 39.9592 161.633C40.7298 161.633 41.3758 161.446 41.8972 161.072C42.4298 160.698 42.7812 160.194 42.9512 159.559H44.2092C43.9825 160.466 43.4952 161.208 42.7472 161.786C42.0105 162.353 41.0812 162.636 39.9592 162.636C39.0865 162.636 38.3045 162.443 37.6132 162.058C36.9218 161.661 36.3778 161.106 35.9812 160.392C35.5958 159.667 35.4032 158.822 35.4032 157.859C35.4032 156.896 35.5958 156.051 35.9812 155.326C36.3665 154.601 36.9048 154.045 37.5962 153.66C38.2875 153.275 39.0752 153.082 39.9592 153.082C40.8432 153.082 41.6138 153.275 42.2712 153.66C42.9398 154.045 43.4498 154.567 43.8012 155.224C44.1638 155.87 44.3452 156.59 44.3452 157.383ZM43.1382 157.349C43.1495 156.658 43.0078 156.068 42.7132 155.581C42.4298 155.094 42.0388 154.725 41.5402 154.476C41.0415 154.227 40.4975 154.102 39.9082 154.102C39.0242 154.102 38.2705 154.385 37.6472 154.952C37.0238 155.519 36.6782 156.318 36.6102 157.349H43.1382ZM58.2524 153.048C59.3404 153.048 60.2244 153.394 60.9044 154.085C61.5957 154.765 61.9414 155.757 61.9414 157.06V162.5H60.7684V157.196C60.7684 156.187 60.5247 155.417 60.0374 154.884C59.55 154.351 58.887 154.085 58.0484 154.085C57.1757 154.085 56.4787 154.374 55.9574 154.952C55.436 155.53 55.1754 156.369 55.1754 157.468V162.5H54.0024V157.196C54.0024 156.187 53.7587 155.417 53.2714 154.884C52.784 154.351 52.1154 154.085 51.2654 154.085C50.3927 154.085 49.6957 154.374 49.1744 154.952C48.653 155.53 48.3924 156.369 48.3924 157.468V162.5H47.2024V153.218H48.3924V154.816C48.687 154.238 49.1064 153.802 49.6504 153.507C50.1944 153.201 50.8007 153.048 51.4694 153.048C52.274 153.048 52.9767 153.241 53.5774 153.626C54.1894 154.011 54.6314 154.578 54.9034 155.326C55.1527 154.589 55.5777 154.028 56.1784 153.643C56.7904 153.246 57.4817 153.048 58.2524 153.048ZM71.2042 151.467C70.9662 151.467 70.7622 151.382 70.5922 151.212C70.4222 151.042 70.3372 150.832 70.3372 150.583C70.3372 150.334 70.4222 150.13 70.5922 149.971C70.7622 149.801 70.9662 149.716 71.2042 149.716C71.4422 149.716 71.6462 149.801 71.8162 149.971C71.9862 150.13 72.0712 150.334 72.0712 150.583C72.0712 150.832 71.9862 151.042 71.8162 151.212C71.6462 151.382 71.4422 151.467 71.2042 151.467ZM71.7992 153.218V162.5H70.6092V153.218H71.7992ZM76.347 155.258C76.6417 154.635 77.1063 154.119 77.741 153.711C78.387 153.292 79.152 153.082 80.036 153.082C80.8747 153.082 81.6283 153.28 82.297 153.677C82.977 154.062 83.504 154.618 83.878 155.343C84.2633 156.057 84.456 156.89 84.456 157.842C84.456 158.794 84.2633 159.633 83.878 160.358C83.504 161.083 82.977 161.644 82.297 162.041C81.6283 162.438 80.8747 162.636 80.036 162.636C79.1633 162.636 78.404 162.432 77.758 162.024C77.112 161.605 76.6417 161.083 76.347 160.46V166.886H75.174V153.218H76.347V155.258ZM83.249 157.842C83.249 157.071 83.096 156.408 82.79 155.853C82.4953 155.286 82.0873 154.856 81.566 154.561C81.0447 154.266 80.4553 154.119 79.798 154.119C79.1633 154.119 78.5797 154.272 78.047 154.578C77.5257 154.884 77.112 155.32 76.806 155.887C76.5 156.454 76.347 157.111 76.347 157.859C76.347 158.607 76.5 159.264 76.806 159.831C77.112 160.398 77.5257 160.834 78.047 161.14C78.5797 161.446 79.1633 161.599 79.798 161.599C80.4553 161.599 81.0447 161.452 81.566 161.157C82.0873 160.851 82.4953 160.415 82.79 159.848C83.096 159.27 83.249 158.601 83.249 157.842ZM90.5217 162.636C89.4563 162.636 88.5837 162.392 87.9037 161.905C87.235 161.406 86.861 160.732 86.7817 159.882H88.0057C88.0623 160.403 88.306 160.828 88.7367 161.157C89.1787 161.474 89.768 161.633 90.5047 161.633C91.1507 161.633 91.655 161.48 92.0177 161.174C92.3917 160.868 92.5787 160.488 92.5787 160.035C92.5787 159.718 92.4767 159.457 92.2727 159.253C92.0687 159.049 91.808 158.89 91.4907 158.777C91.1847 158.652 90.7653 158.522 90.2327 158.386C89.5413 158.205 88.9803 158.023 88.5497 157.842C88.119 157.661 87.7507 157.394 87.4447 157.043C87.15 156.68 87.0027 156.199 87.0027 155.598C87.0027 155.145 87.1387 154.725 87.4107 154.34C87.6827 153.955 88.068 153.649 88.5667 153.422C89.0653 153.195 89.632 153.082 90.2667 153.082C91.264 153.082 92.0687 153.337 92.6807 153.847C93.2927 154.346 93.6214 155.037 93.6667 155.921H92.4767C92.4427 155.377 92.2274 154.941 91.8307 154.612C91.4454 154.272 90.9127 154.102 90.2327 154.102C89.632 154.102 89.1447 154.244 88.7707 154.527C88.3967 154.81 88.2097 155.162 88.2097 155.581C88.2097 155.944 88.3173 156.244 88.5327 156.482C88.7593 156.709 89.037 156.89 89.3657 157.026C89.6943 157.151 90.1363 157.292 90.6917 157.451C91.3603 157.632 91.893 157.808 92.2897 157.978C92.6863 158.148 93.0263 158.397 93.3097 158.726C93.593 159.055 93.7404 159.491 93.7517 160.035C93.7517 160.534 93.6157 160.981 93.3437 161.378C93.0717 161.763 92.692 162.069 92.2047 162.296C91.7173 162.523 91.1563 162.636 90.5217 162.636ZM104.713 153.218V162.5H103.523V160.868C103.251 161.446 102.831 161.888 102.265 162.194C101.698 162.5 101.063 162.653 100.361 162.653C99.25 162.653 98.3434 162.313 97.6407 161.633C96.938 160.942 96.5867 159.944 96.5867 158.641V153.218H97.7597V158.505C97.7597 159.514 98.009 160.284 98.5077 160.817C99.0177 161.35 99.709 161.616 100.582 161.616C101.477 161.616 102.191 161.333 102.724 160.766C103.256 160.199 103.523 159.366 103.523 158.267V153.218H104.713ZM119.16 153.048C120.248 153.048 121.132 153.394 121.812 154.085C122.503 154.765 122.849 155.757 122.849 157.06V162.5H121.676V157.196C121.676 156.187 121.432 155.417 120.945 154.884C120.457 154.351 119.794 154.085 118.956 154.085C118.083 154.085 117.386 154.374 116.865 154.952C116.343 155.53 116.083 156.369 116.083 157.468V162.5H114.91V157.196C114.91 156.187 114.666 155.417 114.179 154.884C113.691 154.351 113.023 154.085 112.173 154.085C111.3 154.085 110.603 154.374 110.082 154.952C109.56 155.53 109.3 156.369 109.3 157.468V162.5H108.11V153.218H109.3V154.816C109.594 154.238 110.014 153.802 110.558 153.507C111.102 153.201 111.708 153.048 112.377 153.048C113.181 153.048 113.884 153.241 114.485 153.626C115.097 154.011 115.539 154.578 115.811 155.326C116.06 154.589 116.485 154.028 117.086 153.643C117.698 153.246 118.389 153.048 119.16 153.048ZM140.475 162.5H139.285L132.706 152.504V162.5H131.516V150.617H132.706L139.285 160.596V150.617H140.475V162.5ZM152.249 157.383C152.249 157.791 152.237 158.103 152.215 158.318H144.514C144.548 159.021 144.718 159.621 145.024 160.12C145.33 160.619 145.732 160.998 146.231 161.259C146.729 161.508 147.273 161.633 147.863 161.633C148.633 161.633 149.279 161.446 149.801 161.072C150.333 160.698 150.685 160.194 150.855 159.559H152.113C151.886 160.466 151.399 161.208 150.651 161.786C149.914 162.353 148.985 162.636 147.863 162.636C146.99 162.636 146.208 162.443 145.517 162.058C144.825 161.661 144.281 161.106 143.885 160.392C143.499 159.667 143.307 158.822 143.307 157.859C143.307 156.896 143.499 156.051 143.885 155.326C144.27 154.601 144.808 154.045 145.5 153.66C146.191 153.275 146.979 153.082 147.863 153.082C148.747 153.082 149.517 153.275 150.175 153.66C150.843 154.045 151.353 154.567 151.705 155.224C152.067 155.87 152.249 156.59 152.249 157.383ZM151.042 157.349C151.053 156.658 150.911 156.068 150.617 155.581C150.333 155.094 149.942 154.725 149.444 154.476C148.945 154.227 148.401 154.102 147.812 154.102C146.928 154.102 146.174 154.385 145.551 154.952C144.927 155.519 144.582 156.318 144.514 157.349H151.042ZM154.562 157.842C154.562 156.89 154.755 156.057 155.14 155.343C155.525 154.618 156.052 154.062 156.721 153.677C157.401 153.28 158.166 153.082 159.016 153.082C159.889 153.082 160.648 153.292 161.294 153.711C161.94 154.119 162.399 154.635 162.671 155.258V153.218H163.861V166.886H162.671V160.46C162.399 161.083 161.934 161.605 161.277 162.024C160.631 162.432 159.866 162.636 158.982 162.636C158.143 162.636 157.384 162.438 156.704 162.041C156.035 161.644 155.508 161.083 155.123 160.358C154.749 159.633 154.562 158.794 154.562 157.842ZM162.671 157.859C162.671 157.111 162.518 156.454 162.212 155.887C161.906 155.32 161.487 154.884 160.954 154.578C160.433 154.272 159.855 154.119 159.22 154.119C158.563 154.119 157.973 154.266 157.452 154.561C156.931 154.856 156.517 155.286 156.211 155.853C155.916 156.408 155.769 157.071 155.769 157.842C155.769 158.601 155.916 159.27 156.211 159.848C156.517 160.415 156.931 160.851 157.452 161.157C157.973 161.452 158.563 161.599 159.22 161.599C159.855 161.599 160.433 161.446 160.954 161.14C161.487 160.834 161.906 160.398 162.212 159.831C162.518 159.264 162.671 158.607 162.671 157.859ZM175.299 153.218V162.5H174.109V160.868C173.837 161.446 173.417 161.888 172.851 162.194C172.284 162.5 171.649 162.653 170.947 162.653C169.836 162.653 168.929 162.313 168.227 161.633C167.524 160.942 167.173 159.944 167.173 158.641V153.218H168.346V158.505C168.346 159.514 168.595 160.284 169.094 160.817C169.604 161.35 170.295 161.616 171.168 161.616C172.063 161.616 172.777 161.333 173.31 160.766C173.842 160.199 174.109 159.366 174.109 158.267V153.218H175.299ZM187.093 157.383C187.093 157.791 187.082 158.103 187.059 158.318H179.358C179.392 159.021 179.562 159.621 179.868 160.12C180.174 160.619 180.577 160.998 181.075 161.259C181.574 161.508 182.118 161.633 182.707 161.633C183.478 161.633 184.124 161.446 184.645 161.072C185.178 160.698 185.529 160.194 185.699 159.559H186.957C186.731 160.466 186.243 161.208 185.495 161.786C184.759 162.353 183.829 162.636 182.707 162.636C181.835 162.636 181.053 162.443 180.361 162.058C179.67 161.661 179.126 161.106 178.729 160.392C178.344 159.667 178.151 158.822 178.151 157.859C178.151 156.896 178.344 156.051 178.729 155.326C179.115 154.601 179.653 154.045 180.344 153.66C181.036 153.275 181.823 153.082 182.707 153.082C183.591 153.082 184.362 153.275 185.019 153.66C185.688 154.045 186.198 154.567 186.549 155.224C186.912 155.87 187.093 156.59 187.093 157.383ZM185.886 157.349C185.898 156.658 185.756 156.068 185.461 155.581C185.178 155.094 184.787 154.725 184.288 154.476C183.79 154.227 183.246 154.102 182.656 154.102C181.772 154.102 181.019 154.385 180.395 154.952C179.772 155.519 179.426 156.318 179.358 157.349H185.886ZM194.752 157.842C194.752 156.89 194.944 156.057 195.33 155.343C195.715 154.618 196.242 154.062 196.911 153.677C197.591 153.28 198.356 153.082 199.206 153.082C200.022 153.082 200.758 153.28 201.416 153.677C202.073 154.074 202.555 154.589 202.861 155.224V149.92H204.051V162.5H202.861V160.426C202.577 161.072 202.113 161.605 201.467 162.024C200.821 162.432 200.061 162.636 199.189 162.636C198.339 162.636 197.574 162.438 196.894 162.041C196.225 161.644 195.698 161.083 195.313 160.358C194.939 159.633 194.752 158.794 194.752 157.842ZM202.861 157.859C202.861 157.111 202.708 156.454 202.402 155.887C202.096 155.32 201.676 154.884 201.144 154.578C200.622 154.272 200.044 154.119 199.41 154.119C198.752 154.119 198.163 154.266 197.642 154.561C197.12 154.856 196.707 155.286 196.401 155.853C196.106 156.408 195.959 157.071 195.959 157.842C195.959 158.601 196.106 159.27 196.401 159.848C196.707 160.415 197.12 160.851 197.642 161.157C198.163 161.452 198.752 161.599 199.41 161.599C200.044 161.599 200.622 161.446 201.144 161.14C201.676 160.834 202.096 160.398 202.402 159.831C202.708 159.264 202.861 158.607 202.861 157.859ZM211.51 162.636C210.638 162.636 209.85 162.443 209.147 162.058C208.456 161.661 207.906 161.106 207.498 160.392C207.102 159.667 206.903 158.822 206.903 157.859C206.903 156.896 207.107 156.057 207.515 155.343C207.923 154.618 208.479 154.062 209.181 153.677C209.884 153.28 210.672 153.082 211.544 153.082C212.417 153.082 213.205 153.28 213.907 153.677C214.621 154.062 215.177 154.618 215.573 155.343C215.981 156.057 216.185 156.896 216.185 157.859C216.185 158.811 215.981 159.65 215.573 160.375C215.165 161.1 214.604 161.661 213.89 162.058C213.176 162.443 212.383 162.636 211.51 162.636ZM211.51 161.599C212.122 161.599 212.689 161.463 213.21 161.191C213.732 160.908 214.151 160.488 214.468 159.933C214.797 159.366 214.961 158.675 214.961 157.859C214.961 157.043 214.803 156.357 214.485 155.802C214.168 155.235 213.749 154.816 213.227 154.544C212.706 154.261 212.139 154.119 211.527 154.119C210.915 154.119 210.349 154.261 209.827 154.544C209.306 154.816 208.887 155.235 208.569 155.802C208.263 156.357 208.11 157.043 208.11 157.859C208.11 158.675 208.263 159.366 208.569 159.933C208.887 160.488 209.3 160.908 209.81 161.191C210.332 161.463 210.898 161.599 211.51 161.599ZM9.61403 176.258C9.9087 175.635 10.3734 175.119 11.008 174.711C11.654 174.292 12.419 174.082 13.303 174.082C14.1417 174.082 14.8954 174.28 15.564 174.677C16.244 175.062 16.771 175.618 17.145 176.343C17.5304 177.057 17.723 177.89 17.723 178.842C17.723 179.794 17.5304 180.633 17.145 181.358C16.771 182.083 16.244 182.644 15.564 183.041C14.8954 183.438 14.1417 183.636 13.303 183.636C12.4304 183.636 11.671 183.432 11.025 183.024C10.379 182.605 9.9087 182.083 9.61403 181.46V187.886H8.44103V174.218H9.61403V176.258ZM16.516 178.842C16.516 178.071 16.363 177.408 16.057 176.853C15.7624 176.286 15.3544 175.856 14.833 175.561C14.3117 175.266 13.7224 175.119 13.065 175.119C12.4304 175.119 11.8467 175.272 11.314 175.578C10.7927 175.884 10.379 176.32 10.073 176.887C9.76703 177.454 9.61403 178.111 9.61403 178.859C9.61403 179.607 9.76703 180.264 10.073 180.831C10.379 181.398 10.7927 181.834 11.314 182.14C11.8467 182.446 12.4304 182.599 13.065 182.599C13.7224 182.599 14.3117 182.452 14.833 182.157C15.3544 181.851 15.7624 181.415 16.057 180.848C16.363 180.27 16.516 179.601 16.516 178.842ZM24.6557 183.636C23.783 183.636 22.9954 183.443 22.2927 183.058C21.6014 182.661 21.0517 182.106 20.6437 181.392C20.247 180.667 20.0487 179.822 20.0487 178.859C20.0487 177.896 20.2527 177.057 20.6607 176.343C21.0687 175.618 21.624 175.062 22.3267 174.677C23.0294 174.28 23.817 174.082 24.6897 174.082C25.5624 174.082 26.35 174.28 27.0527 174.677C27.7667 175.062 28.322 175.618 28.7187 176.343C29.1267 177.057 29.3307 177.896 29.3307 178.859C29.3307 179.811 29.1267 180.65 28.7187 181.375C28.3107 182.1 27.7497 182.661 27.0357 183.058C26.3217 183.443 25.5284 183.636 24.6557 183.636ZM24.6557 182.599C25.2677 182.599 25.8344 182.463 26.3557 182.191C26.877 181.908 27.2964 181.488 27.6137 180.933C27.9424 180.366 28.1067 179.675 28.1067 178.859C28.1067 178.043 27.948 177.357 27.6307 176.802C27.3134 176.235 26.894 175.816 26.3727 175.544C25.8514 175.261 25.2847 175.119 24.6727 175.119C24.0607 175.119 23.494 175.261 22.9727 175.544C22.4514 175.816 22.032 176.235 21.7147 176.802C21.4087 177.357 21.2557 178.043 21.2557 178.859C21.2557 179.675 21.4087 180.366 21.7147 180.933C22.032 181.488 22.4457 181.908 22.9557 182.191C23.477 182.463 24.0437 182.599 24.6557 182.599ZM33.3699 175.867C33.6306 175.289 34.0273 174.841 34.5599 174.524C35.1039 174.207 35.7669 174.048 36.5489 174.048V175.289H36.2259C35.3646 175.289 34.6733 175.521 34.1519 175.986C33.6306 176.451 33.3699 177.227 33.3699 178.315V183.5H32.1799V174.218H33.3699V175.867ZM40.2091 175.867C40.4698 175.289 40.8665 174.841 41.3991 174.524C41.9431 174.207 42.6061 174.048 43.3881 174.048V175.289H43.0651C42.2038 175.289 41.5125 175.521 40.9911 175.986C40.4698 176.451 40.2091 177.227 40.2091 178.315V183.5H39.0191V174.218H40.2091V175.867ZM49.9213 183.636C49.0486 183.636 48.261 183.443 47.5583 183.058C46.867 182.661 46.3173 182.106 45.9093 181.392C45.5126 180.667 45.3143 179.822 45.3143 178.859C45.3143 177.896 45.5183 177.057 45.9263 176.343C46.3343 175.618 46.8896 175.062 47.5923 174.677C48.295 174.28 49.0826 174.082 49.9553 174.082C50.828 174.082 51.6156 174.28 52.3183 174.677C53.0323 175.062 53.5876 175.618 53.9843 176.343C54.3923 177.057 54.5963 177.896 54.5963 178.859C54.5963 179.811 54.3923 180.65 53.9843 181.375C53.5763 182.1 53.0153 182.661 52.3013 183.058C51.5873 183.443 50.794 183.636 49.9213 183.636ZM49.9213 182.599C50.5333 182.599 51.1 182.463 51.6213 182.191C52.1426 181.908 52.562 181.488 52.8793 180.933C53.208 180.366 53.3723 179.675 53.3723 178.859C53.3723 178.043 53.2136 177.357 52.8963 176.802C52.579 176.235 52.1596 175.816 51.6383 175.544C51.117 175.261 50.5503 175.119 49.9383 175.119C49.3263 175.119 48.7596 175.261 48.2383 175.544C47.717 175.816 47.2976 176.235 46.9803 176.802C46.6743 177.357 46.5213 178.043 46.5213 178.859C46.5213 179.675 46.6743 180.366 46.9803 180.933C47.2976 181.488 47.7113 181.908 48.2213 182.191C48.7426 182.463 49.3093 182.599 49.9213 182.599ZM62.2466 178.842C62.2466 177.89 62.4392 177.057 62.8246 176.343C63.2099 175.618 63.7369 175.062 64.4056 174.677C65.0856 174.28 65.8506 174.082 66.7006 174.082C67.5732 174.082 68.3326 174.292 68.9786 174.711C69.6246 175.119 70.0836 175.635 70.3556 176.258V174.218H71.5456V187.886H70.3556V181.46C70.0836 182.083 69.6189 182.605 68.9616 183.024C68.3156 183.432 67.5506 183.636 66.6666 183.636C65.8279 183.636 65.0686 183.438 64.3886 183.041C63.7199 182.644 63.1929 182.083 62.8076 181.358C62.4336 180.633 62.2466 179.794 62.2466 178.842ZM70.3556 178.859C70.3556 178.111 70.2026 177.454 69.8966 176.887C69.5906 176.32 69.1712 175.884 68.6386 175.578C68.1172 175.272 67.5392 175.119 66.9046 175.119C66.2472 175.119 65.6579 175.266 65.1366 175.561C64.6152 175.856 64.2016 176.286 63.8956 176.853C63.6009 177.408 63.4536 178.071 63.4536 178.842C63.4536 179.601 63.6009 180.27 63.8956 180.848C64.2016 181.415 64.6152 181.851 65.1366 182.157C65.6579 182.452 66.2472 182.599 66.9046 182.599C67.5392 182.599 68.1172 182.446 68.6386 182.14C69.1712 181.834 69.5906 181.398 69.8966 180.831C70.2026 180.264 70.3556 179.607 70.3556 178.859ZM82.9832 174.218V183.5H81.7932V181.868C81.5212 182.446 81.1019 182.888 80.5352 183.194C79.9686 183.5 79.3339 183.653 78.6312 183.653C77.5206 183.653 76.6139 183.313 75.9112 182.633C75.2086 181.942 74.8572 180.944 74.8572 179.641V174.218H76.0302V179.505C76.0302 180.514 76.2796 181.284 76.7782 181.817C77.2882 182.35 77.9796 182.616 78.8522 182.616C79.7476 182.616 80.4616 182.333 80.9942 181.766C81.5269 181.199 81.7932 180.366 81.7932 179.267V174.218H82.9832ZM86.9751 172.467C86.7371 172.467 86.5331 172.382 86.3631 172.212C86.1931 172.042 86.1081 171.832 86.1081 171.583C86.1081 171.334 86.1931 171.13 86.3631 170.971C86.5331 170.801 86.7371 170.716 86.9751 170.716C87.2131 170.716 87.4171 170.801 87.5871 170.971C87.7571 171.13 87.8421 171.334 87.8421 171.583C87.8421 171.832 87.7571 172.042 87.5871 172.212C87.4171 172.382 87.2131 172.467 86.9751 172.467ZM87.5701 174.218V183.5H86.3801V174.218H87.5701ZM94.1408 183.636C93.0755 183.636 92.2028 183.392 91.5228 182.905C90.8542 182.406 90.4802 181.732 90.4008 180.882H91.6248C91.6815 181.403 91.9252 181.828 92.3558 182.157C92.7978 182.474 93.3872 182.633 94.1238 182.633C94.7698 182.633 95.2742 182.48 95.6368 182.174C96.0108 181.868 96.1978 181.488 96.1978 181.035C96.1978 180.718 96.0958 180.457 95.8918 180.253C95.6878 180.049 95.4272 179.89 95.1098 179.777C94.8038 179.652 94.3845 179.522 93.8518 179.386C93.1605 179.205 92.5995 179.023 92.1688 178.842C91.7382 178.661 91.3698 178.394 91.0638 178.043C90.7692 177.68 90.6218 177.199 90.6218 176.598C90.6218 176.145 90.7578 175.725 91.0298 175.34C91.3018 174.955 91.6872 174.649 92.1858 174.422C92.6845 174.195 93.2512 174.082 93.8858 174.082C94.8832 174.082 95.6878 174.337 96.2998 174.847C96.9118 175.346 97.2405 176.037 97.2858 176.921H96.0958C96.0618 176.377 95.8465 175.941 95.4498 175.612C95.0645 175.272 94.5318 175.102 93.8518 175.102C93.2512 175.102 92.7638 175.244 92.3898 175.527C92.0158 175.81 91.8288 176.162 91.8288 176.581C91.8288 176.944 91.9365 177.244 92.1518 177.482C92.3785 177.709 92.6562 177.89 92.9848 178.026C93.3135 178.151 93.7555 178.292 94.3108 178.451C94.9795 178.632 95.5122 178.808 95.9088 178.978C96.3055 179.148 96.6455 179.397 96.9288 179.726C97.2122 180.055 97.3595 180.491 97.3708 181.035C97.3708 181.534 97.2348 181.981 96.9628 182.378C96.6908 182.763 96.3112 183.069 95.8238 183.296C95.3365 183.523 94.7755 183.636 94.1408 183.636ZM99.7468 178.842C99.7468 177.89 99.9395 177.057 100.325 176.343C100.71 175.618 101.237 175.062 101.906 174.677C102.586 174.28 103.351 174.082 104.201 174.082C105.074 174.082 105.833 174.292 106.479 174.711C107.125 175.119 107.584 175.635 107.856 176.258V174.218H109.046V187.886H107.856V181.46C107.584 182.083 107.119 182.605 106.462 183.024C105.816 183.432 105.051 183.636 104.167 183.636C103.328 183.636 102.569 183.438 101.889 183.041C101.22 182.644 100.693 182.083 100.308 181.358C99.9338 180.633 99.7468 179.794 99.7468 178.842ZM107.856 178.859C107.856 178.111 107.703 177.454 107.397 176.887C107.091 176.32 106.672 175.884 106.139 175.578C105.618 175.272 105.04 175.119 104.405 175.119C103.748 175.119 103.158 175.266 102.637 175.561C102.116 175.856 101.702 176.286 101.396 176.853C101.101 177.408 100.954 178.071 100.954 178.842C100.954 179.601 101.101 180.27 101.396 180.848C101.702 181.415 102.116 181.851 102.637 182.157C103.158 182.452 103.748 182.599 104.405 182.599C105.04 182.599 105.618 182.446 106.139 182.14C106.672 181.834 107.091 181.398 107.397 180.831C107.703 180.264 107.856 179.607 107.856 178.859ZM120.484 174.218V183.5H119.294V181.868C119.022 182.446 118.602 182.888 118.036 183.194C117.469 183.5 116.834 183.653 116.132 183.653C115.021 183.653 114.114 183.313 113.412 182.633C112.709 181.942 112.358 180.944 112.358 179.641V174.218H113.531V179.505C113.531 180.514 113.78 181.284 114.279 181.817C114.789 182.35 115.48 182.616 116.353 182.616C117.248 182.616 117.962 182.333 118.495 181.766C119.027 181.199 119.294 180.366 119.294 179.267V174.218H120.484ZM123.336 178.842C123.336 177.89 123.523 177.057 123.897 176.343C124.283 175.618 124.81 175.062 125.478 174.677C126.158 174.28 126.923 174.082 127.773 174.082C128.657 174.082 129.417 174.286 130.051 174.694C130.697 175.102 131.162 175.623 131.445 176.258V174.218H132.635V183.5H131.445V181.443C131.151 182.078 130.68 182.605 130.034 183.024C129.4 183.432 128.64 183.636 127.756 183.636C126.918 183.636 126.158 183.438 125.478 183.041C124.81 182.644 124.283 182.083 123.897 181.358C123.523 180.633 123.336 179.794 123.336 178.842ZM131.445 178.859C131.445 178.111 131.292 177.454 130.986 176.887C130.68 176.32 130.261 175.884 129.728 175.578C129.207 175.272 128.629 175.119 127.994 175.119C127.337 175.119 126.748 175.266 126.226 175.561C125.705 175.856 125.291 176.286 124.985 176.853C124.691 177.408 124.543 178.071 124.543 178.842C124.543 179.601 124.691 180.27 124.985 180.848C125.291 181.415 125.705 181.851 126.226 182.157C126.748 182.452 127.337 182.599 127.994 182.599C128.629 182.599 129.207 182.446 129.728 182.14C130.261 181.834 130.68 181.398 130.986 180.831C131.292 180.264 131.445 179.607 131.445 178.859ZM147.082 174.048C148.17 174.048 149.054 174.394 149.734 175.085C150.425 175.765 150.771 176.757 150.771 178.06V183.5H149.598V178.196C149.598 177.187 149.354 176.417 148.867 175.884C148.38 175.351 147.717 175.085 146.878 175.085C146.005 175.085 145.308 175.374 144.787 175.952C144.266 176.53 144.005 177.369 144.005 178.468V183.5H142.832V178.196C142.832 177.187 142.588 176.417 142.101 175.884C141.614 175.351 140.945 175.085 140.095 175.085C139.222 175.085 138.525 175.374 138.004 175.952C137.483 176.53 137.222 177.369 137.222 178.468V183.5H136.032V174.218H137.222V175.816C137.517 175.238 137.936 174.802 138.48 174.507C139.024 174.201 139.63 174.048 140.299 174.048C141.104 174.048 141.806 174.241 142.407 174.626C143.019 175.011 143.461 175.578 143.733 176.326C143.982 175.589 144.407 175.028 145.008 174.643C145.62 174.246 146.311 174.048 147.082 174.048ZM167.837 178.383C167.837 178.791 167.826 179.103 167.803 179.318H160.102C160.136 180.021 160.306 180.621 160.612 181.12C160.918 181.619 161.32 181.998 161.819 182.259C162.318 182.508 162.862 182.633 163.451 182.633C164.222 182.633 164.868 182.446 165.389 182.072C165.922 181.698 166.273 181.194 166.443 180.559H167.701C167.474 181.466 166.987 182.208 166.239 182.786C165.502 183.353 164.573 183.636 163.451 183.636C162.578 183.636 161.796 183.443 161.105 183.058C160.414 182.661 159.87 182.106 159.473 181.392C159.088 180.667 158.895 179.822 158.895 178.859C158.895 177.896 159.088 177.051 159.473 176.326C159.858 175.601 160.397 175.045 161.088 174.66C161.779 174.275 162.567 174.082 163.451 174.082C164.335 174.082 165.106 174.275 165.763 174.66C166.432 175.045 166.942 175.567 167.293 176.224C167.656 176.87 167.837 177.59 167.837 178.383ZM166.63 178.349C166.641 177.658 166.5 177.068 166.205 176.581C165.922 176.094 165.531 175.725 165.032 175.476C164.533 175.227 163.989 175.102 163.4 175.102C162.516 175.102 161.762 175.385 161.139 175.952C160.516 176.519 160.17 177.318 160.102 178.349H166.63ZM173.89 183.636C172.825 183.636 171.952 183.392 171.272 182.905C170.603 182.406 170.229 181.732 170.15 180.882H171.374C171.431 181.403 171.674 181.828 172.105 182.157C172.547 182.474 173.136 182.633 173.873 182.633C174.519 182.633 175.023 182.48 175.386 182.174C175.76 181.868 175.947 181.488 175.947 181.035C175.947 180.718 175.845 180.457 175.641 180.253C175.437 180.049 175.176 179.89 174.859 179.777C174.553 179.652 174.134 179.522 173.601 179.386C172.91 179.205 172.349 179.023 171.918 178.842C171.487 178.661 171.119 178.394 170.813 178.043C170.518 177.68 170.371 177.199 170.371 176.598C170.371 176.145 170.507 175.725 170.779 175.34C171.051 174.955 171.436 174.649 171.935 174.422C172.434 174.195 173 174.082 173.635 174.082C174.632 174.082 175.437 174.337 176.049 174.847C176.661 175.346 176.99 176.037 177.035 176.921H175.845C175.811 176.377 175.596 175.941 175.199 175.612C174.814 175.272 174.281 175.102 173.601 175.102C173 175.102 172.513 175.244 172.139 175.527C171.765 175.81 171.578 176.162 171.578 176.581C171.578 176.944 171.686 177.244 171.901 177.482C172.128 177.709 172.405 177.89 172.734 178.026C173.063 178.151 173.505 178.292 174.06 178.451C174.729 178.632 175.261 178.808 175.658 178.978C176.055 179.148 176.395 179.397 176.678 179.726C176.961 180.055 177.109 180.491 177.12 181.035C177.12 181.534 176.984 181.981 176.712 182.378C176.44 182.763 176.06 183.069 175.573 183.296C175.086 183.523 174.525 183.636 173.89 183.636ZM181.587 175.221V180.984C181.587 181.551 181.695 181.942 181.91 182.157C182.125 182.372 182.505 182.48 183.049 182.48H184.137V183.5H182.862C182.023 183.5 181.4 183.307 180.992 182.922C180.584 182.525 180.38 181.879 180.38 180.984V175.221H179.088V174.218H180.38V171.889H181.587V174.218H184.137V175.221H181.587ZM191.581 178.842C191.581 177.89 191.773 177.057 192.159 176.343C192.544 175.618 193.071 175.062 193.74 174.677C194.42 174.28 195.185 174.082 196.035 174.082C196.907 174.082 197.667 174.292 198.313 174.711C198.959 175.119 199.418 175.635 199.69 176.258V174.218H200.88V187.886H199.69V181.46C199.418 182.083 198.953 182.605 198.296 183.024C197.65 183.432 196.885 183.636 196.001 183.636C195.162 183.636 194.403 183.438 193.723 183.041C193.054 182.644 192.527 182.083 192.142 181.358C191.768 180.633 191.581 179.794 191.581 178.842ZM199.69 178.859C199.69 178.111 199.537 177.454 199.231 176.887C198.925 176.32 198.505 175.884 197.973 175.578C197.451 175.272 196.873 175.119 196.239 175.119C195.581 175.119 194.992 175.266 194.471 175.561C193.949 175.856 193.536 176.286 193.23 176.853C192.935 177.408 192.788 178.071 192.788 178.842C192.788 179.601 192.935 180.27 193.23 180.848C193.536 181.415 193.949 181.851 194.471 182.157C194.992 182.452 195.581 182.599 196.239 182.599C196.873 182.599 197.451 182.446 197.973 182.14C198.505 181.834 198.925 181.398 199.231 180.831C199.537 180.264 199.69 179.607 199.69 178.859ZM212.317 174.218V183.5H211.127V181.868C210.855 182.446 210.436 182.888 209.869 183.194C209.303 183.5 208.668 183.653 207.965 183.653C206.855 183.653 205.948 183.313 205.245 182.633C204.543 181.942 204.191 180.944 204.191 179.641V174.218H205.364V179.505C205.364 180.514 205.614 181.284 206.112 181.817C206.622 182.35 207.314 182.616 208.186 182.616C209.082 182.616 209.796 182.333 210.328 181.766C210.861 181.199 211.127 180.366 211.127 179.267V174.218H212.317ZM216.309 172.467C216.071 172.467 215.867 172.382 215.697 172.212C215.527 172.042 215.442 171.832 215.442 171.583C215.442 171.334 215.527 171.13 215.697 170.971C215.867 170.801 216.071 170.716 216.309 170.716C216.547 170.716 216.751 170.801 216.921 170.971C217.091 171.13 217.176 171.334 217.176 171.583C217.176 171.832 217.091 172.042 216.921 172.212C216.751 172.382 216.547 172.467 216.309 172.467ZM216.904 174.218V183.5H215.714V174.218H216.904ZM72.3725 199.842C72.3725 198.89 72.5652 198.057 72.9505 197.343C73.3359 196.618 73.8629 196.062 74.5315 195.677C75.2115 195.28 75.9765 195.082 76.8265 195.082C77.6425 195.082 78.3792 195.28 79.0365 195.677C79.6939 196.074 80.1755 196.589 80.4815 197.224V191.92H81.6715V204.5H80.4815V202.426C80.1982 203.072 79.7335 203.605 79.0875 204.024C78.4415 204.432 77.6822 204.636 76.8095 204.636C75.9595 204.636 75.1945 204.438 74.5145 204.041C73.8459 203.644 73.3189 203.083 72.9335 202.358C72.5595 201.633 72.3725 200.794 72.3725 199.842ZM80.4815 199.859C80.4815 199.111 80.3285 198.454 80.0225 197.887C79.7165 197.32 79.2972 196.884 78.7645 196.578C78.2432 196.272 77.6652 196.119 77.0305 196.119C76.3732 196.119 75.7839 196.266 75.2625 196.561C74.7412 196.856 74.3275 197.286 74.0215 197.853C73.7269 198.408 73.5795 199.071 73.5795 199.842C73.5795 200.601 73.7269 201.27 74.0215 201.848C74.3275 202.415 74.7412 202.851 75.2625 203.157C75.7839 203.452 76.3732 203.599 77.0305 203.599C77.6652 203.599 78.2432 203.446 78.7645 203.14C79.2972 202.834 79.7165 202.398 80.0225 201.831C80.3285 201.264 80.4815 200.607 80.4815 199.859ZM89.1312 204.636C88.2585 204.636 87.4709 204.443 86.7682 204.058C86.0769 203.661 85.5272 203.106 85.1192 202.392C84.7225 201.667 84.5242 200.822 84.5242 199.859C84.5242 198.896 84.7282 198.057 85.1362 197.343C85.5442 196.618 86.0995 196.062 86.8022 195.677C87.5049 195.28 88.2925 195.082 89.1652 195.082C90.0379 195.082 90.8255 195.28 91.5282 195.677C92.2422 196.062 92.7975 196.618 93.1942 197.343C93.6022 198.057 93.8062 198.896 93.8062 199.859C93.8062 200.811 93.6022 201.65 93.1942 202.375C92.7862 203.1 92.2252 203.661 91.5112 204.058C90.7972 204.443 90.0039 204.636 89.1312 204.636ZM89.1312 203.599C89.7432 203.599 90.3099 203.463 90.8312 203.191C91.3525 202.908 91.7719 202.488 92.0892 201.933C92.4179 201.366 92.5822 200.675 92.5822 199.859C92.5822 199.043 92.4235 198.357 92.1062 197.802C91.7889 197.235 91.3695 196.816 90.8482 196.544C90.3269 196.261 89.7602 196.119 89.1482 196.119C88.5362 196.119 87.9695 196.261 87.4482 196.544C86.9269 196.816 86.5075 197.235 86.1902 197.802C85.8842 198.357 85.7312 199.043 85.7312 199.859C85.7312 200.675 85.8842 201.366 86.1902 201.933C86.5075 202.488 86.9212 202.908 87.4312 203.191C87.9525 203.463 88.5192 203.599 89.1312 203.599ZM101.456 199.842C101.456 198.89 101.649 198.057 102.034 197.343C102.42 196.618 102.947 196.062 103.615 195.677C104.295 195.28 105.06 195.082 105.91 195.082C106.783 195.082 107.542 195.292 108.188 195.711C108.834 196.119 109.293 196.635 109.565 197.258V195.218H110.755V208.886H109.565V202.46C109.293 203.083 108.829 203.605 108.171 204.024C107.525 204.432 106.76 204.636 105.876 204.636C105.038 204.636 104.278 204.438 103.598 204.041C102.93 203.644 102.403 203.083 102.017 202.358C101.643 201.633 101.456 200.794 101.456 199.842ZM109.565 199.859C109.565 199.111 109.412 198.454 109.106 197.887C108.8 197.32 108.381 196.884 107.848 196.578C107.327 196.272 106.749 196.119 106.114 196.119C105.457 196.119 104.868 196.266 104.346 196.561C103.825 196.856 103.411 197.286 103.105 197.853C102.811 198.408 102.663 199.071 102.663 199.842C102.663 200.601 102.811 201.27 103.105 201.848C103.411 202.415 103.825 202.851 104.346 203.157C104.868 203.452 105.457 203.599 106.114 203.599C106.749 203.599 107.327 203.446 107.848 203.14C108.381 202.834 108.8 202.398 109.106 201.831C109.412 201.264 109.565 200.607 109.565 199.859ZM122.193 195.218V204.5H121.003V202.868C120.731 203.446 120.312 203.888 119.745 204.194C119.178 204.5 118.544 204.653 117.841 204.653C116.73 204.653 115.824 204.313 115.121 203.633C114.418 202.942 114.067 201.944 114.067 200.641V195.218H115.24V200.505C115.24 201.514 115.489 202.284 115.988 202.817C116.498 203.35 117.189 203.616 118.062 203.616C118.957 203.616 119.671 203.333 120.204 202.766C120.737 202.199 121.003 201.366 121.003 200.267V195.218H122.193ZM125.046 199.842C125.046 198.89 125.233 198.057 125.607 197.343C125.992 196.618 126.519 196.062 127.188 195.677C127.868 195.28 128.633 195.082 129.483 195.082C130.367 195.082 131.126 195.286 131.761 195.694C132.407 196.102 132.872 196.623 133.155 197.258V195.218H134.345V204.5H133.155V202.443C132.86 203.078 132.39 203.605 131.744 204.024C131.109 204.432 130.35 204.636 129.466 204.636C128.627 204.636 127.868 204.438 127.188 204.041C126.519 203.644 125.992 203.083 125.607 202.358C125.233 201.633 125.046 200.794 125.046 199.842ZM133.155 199.859C133.155 199.111 133.002 198.454 132.696 197.887C132.39 197.32 131.971 196.884 131.438 196.578C130.917 196.272 130.339 196.119 129.704 196.119C129.047 196.119 128.457 196.266 127.936 196.561C127.415 196.856 127.001 197.286 126.695 197.853C126.4 198.408 126.253 199.071 126.253 199.842C126.253 200.601 126.4 201.27 126.695 201.848C127.001 202.415 127.415 202.851 127.936 203.157C128.457 203.452 129.047 203.599 129.704 203.599C130.339 203.599 130.917 203.446 131.438 203.14C131.971 202.834 132.39 202.398 132.696 201.831C133.002 201.264 133.155 200.607 133.155 199.859ZM148.792 195.048C149.88 195.048 150.764 195.394 151.444 196.085C152.135 196.765 152.481 197.757 152.481 199.06V204.5H151.308V199.196C151.308 198.187 151.064 197.417 150.577 196.884C150.089 196.351 149.426 196.085 148.588 196.085C147.715 196.085 147.018 196.374 146.497 196.952C145.975 197.53 145.715 198.369 145.715 199.468V204.5H144.542V199.196C144.542 198.187 144.298 197.417 143.811 196.884C143.323 196.351 142.655 196.085 141.805 196.085C140.932 196.085 140.235 196.374 139.714 196.952C139.192 197.53 138.932 198.369 138.932 199.468V204.5H137.742V195.218H138.932V196.816C139.226 196.238 139.646 195.802 140.19 195.507C140.734 195.201 141.34 195.048 142.009 195.048C142.813 195.048 143.516 195.241 144.117 195.626C144.729 196.011 145.171 196.578 145.443 197.326C145.692 196.589 146.117 196.028 146.718 195.643C147.33 195.246 148.021 195.048 148.792 195.048Z" fill="white"/>
<defs>
<clipPath id="clip0_74_418">
<rect x="68" y="13" width="90" height="94" fill="white"/>
</clipPath>
</defs>
</svg>
