<svg width="226" height="220" viewBox="0 0 226 220" fill="none" xmlns="http://www.w3.org/2000/svg">
<mask id="path-1-inside-1_74_245" fill="white">
<path d="M153.493 83.509H72.5072C68.6433 83.509 65.5 80.4107 65.5 76.6021V70.5587C65.5 70.0084 65.9526 69.5625 66.5106 69.5625H159.489C160.048 69.5625 160.5 70.0084 160.5 70.5587V76.6021C160.5 80.4107 157.357 83.509 153.493 83.509ZM67.5213 71.5549V76.6021C67.5213 79.3121 69.7578 81.5167 72.5072 81.5167H153.493C156.242 81.5167 158.479 79.3121 158.479 76.6021V71.5549H67.5213Z"/>
</mask>
<path d="M153.493 83.509H72.5072C68.6433 83.509 65.5 80.4107 65.5 76.6021V70.5587C65.5 70.0084 65.9526 69.5625 66.5106 69.5625H159.489C160.048 69.5625 160.5 70.0084 160.5 70.5587V76.6021C160.5 80.4107 157.357 83.509 153.493 83.509ZM67.5213 71.5549V76.6021C67.5213 79.3121 69.7578 81.5167 72.5072 81.5167H153.493C156.242 81.5167 158.479 79.3121 158.479 76.6021V71.5549H67.5213Z" fill="#6D95FC"/>
<path d="M67.5213 71.5549V67.5549H63.5213V71.5549H67.5213ZM158.479 71.5549H162.479V67.5549H158.479V71.5549ZM153.493 79.509H72.5072V87.509H153.493V79.509ZM72.5072 79.509C70.7979 79.509 69.5 78.1474 69.5 76.6021H61.5C61.5 82.674 66.4887 87.509 72.5072 87.509V79.509ZM69.5 76.6021V70.5587H61.5V76.6021H69.5ZM69.5 70.5587C69.5 72.2722 68.1067 73.5625 66.5106 73.5625V65.5625C63.7985 65.5625 61.5 67.7446 61.5 70.5587H69.5ZM66.5106 73.5625H159.489V65.5625H66.5106V73.5625ZM159.489 73.5625C157.893 73.5625 156.5 72.2717 156.5 70.5587H164.5C164.5 67.7451 162.202 65.5625 159.489 65.5625V73.5625ZM156.5 70.5587V76.6021H164.5V70.5587H156.5ZM156.5 76.6021C156.5 78.1474 155.202 79.509 153.493 79.509V87.509C159.511 87.509 164.5 82.6741 164.5 76.6021H156.5ZM63.5213 71.5549V76.6021H71.5213V71.5549H63.5213ZM63.5213 76.6021C63.5213 81.5754 67.6032 85.5167 72.5072 85.5167V77.5167C71.9124 77.5167 71.5213 77.0489 71.5213 76.6021H63.5213ZM72.5072 85.5167H153.493V77.5167H72.5072V85.5167ZM153.493 85.5167C158.397 85.5167 162.479 81.5754 162.479 76.6021H154.479C154.479 77.0489 154.088 77.5167 153.493 77.5167V85.5167ZM162.479 76.6021V71.5549H154.479V76.6021H162.479ZM158.479 67.5549H67.5213V75.5549H158.479V67.5549Z" fill="#FBFBFB" mask="url(#path-1-inside-1_74_245)"/>
<mask id="path-3-inside-2_74_245" fill="white">
<path d="M159.489 71.5546H66.5106C65.9526 71.5546 65.5 71.1087 65.5 70.5584V26.0291C65.5 21.4699 69.263 17.7607 73.8883 17.7607H109.059C109.617 17.7607 110.07 18.2068 110.07 18.7569C110.07 19.307 109.617 19.7531 109.059 19.7531H73.8883C70.3775 19.7531 67.5213 22.5685 67.5213 26.0291V69.5622H158.479V26.0291C158.479 22.5685 155.622 19.7531 152.112 19.7531H129.069C128.51 19.7531 128.058 19.307 128.058 18.7569C128.058 18.2068 128.51 17.7607 129.069 17.7607H152.112C156.737 17.7607 160.5 21.4699 160.5 26.0291V70.5584C160.5 71.1087 160.048 71.5546 159.489 71.5546Z"/>
</mask>
<path d="M159.489 71.5546H66.5106C65.9526 71.5546 65.5 71.1087 65.5 70.5584V26.0291C65.5 21.4699 69.263 17.7607 73.8883 17.7607H109.059C109.617 17.7607 110.07 18.2068 110.07 18.7569C110.07 19.307 109.617 19.7531 109.059 19.7531H73.8883C70.3775 19.7531 67.5213 22.5685 67.5213 26.0291V69.5622H158.479V26.0291C158.479 22.5685 155.622 19.7531 152.112 19.7531H129.069C128.51 19.7531 128.058 19.307 128.058 18.7569C128.058 18.2068 128.51 17.7607 129.069 17.7607H152.112C156.737 17.7607 160.5 21.4699 160.5 26.0291V70.5584C160.5 71.1087 160.048 71.5546 159.489 71.5546Z" fill="#6D95FC"/>
<path d="M67.5213 69.5622H63.5213V73.5622H67.5213V69.5622ZM158.479 69.5622V73.5622H162.479V69.5622H158.479ZM159.489 67.5546H66.5106V75.5546H159.489V67.5546ZM66.5106 67.5546C68.1067 67.5546 69.5 68.8449 69.5 70.5584H61.5C61.5 73.3725 63.7985 75.5546 66.5106 75.5546V67.5546ZM69.5 70.5584V26.0291H61.5V70.5584H69.5ZM69.5 26.0291C69.5 23.7332 71.4176 21.7607 73.8883 21.7607V13.7607C67.1084 13.7607 61.5 19.2067 61.5 26.0291H69.5ZM73.8883 21.7607H109.059V13.7607H73.8883V21.7607ZM109.059 21.7607C107.462 21.7607 106.07 20.4701 106.07 18.7569H114.07C114.07 15.9436 111.772 13.7607 109.059 13.7607V21.7607ZM106.07 18.7569C106.07 17.0437 107.462 15.7531 109.059 15.7531V23.7531C111.772 23.7531 114.07 21.5703 114.07 18.7569H106.07ZM109.059 15.7531H73.8883V23.7531H109.059V15.7531ZM73.8883 15.7531C68.2229 15.7531 63.5213 20.3052 63.5213 26.0291H71.5213C71.5213 24.8318 72.5322 23.7531 73.8883 23.7531V15.7531ZM63.5213 26.0291V69.5622H71.5213V26.0291H63.5213ZM67.5213 73.5622H158.479V65.5622H67.5213V73.5622ZM162.479 69.5622V26.0291H154.479V69.5622H162.479ZM162.479 26.0291C162.479 20.3052 157.777 15.7531 152.112 15.7531V23.7531C153.468 23.7531 154.479 24.8318 154.479 26.0291H162.479ZM152.112 15.7531H129.069V23.7531H152.112V15.7531ZM129.069 15.7531C130.665 15.7531 132.058 17.0443 132.058 18.7569H124.058C124.058 21.5698 126.355 23.7531 129.069 23.7531V15.7531ZM132.058 18.7569C132.058 20.4696 130.665 21.7607 129.069 21.7607V13.7607C126.355 13.7607 124.058 15.9441 124.058 18.7569H132.058ZM129.069 21.7607H152.112V13.7607H129.069V21.7607ZM152.112 21.7607C154.582 21.7607 156.5 23.7332 156.5 26.0291H164.5C164.5 19.2067 158.892 13.7607 152.112 13.7607V21.7607ZM156.5 26.0291V70.5584H164.5V26.0291H156.5ZM156.5 70.5584C156.5 68.8454 157.893 67.5546 159.489 67.5546V75.5546C162.202 75.5546 164.5 73.3719 164.5 70.5584H156.5Z" fill="#FBFBFB" mask="url(#path-3-inside-2_74_245)"/>
<mask id="path-5-inside-3_74_245" fill="white">
<path d="M97.1338 41.3682C96.8696 41.3682 96.6115 41.266 96.419 41.0766C96.1561 40.8174 96.0588 40.437 96.1658 40.086L100.454 25.998C100.502 25.84 100.589 25.6963 100.707 25.5798L124.29 2.33425C125.817 0.829023 127.847 0 130.006 0C132.166 0 134.196 0.829023 135.723 2.33425C137.251 3.83948 138.092 5.84081 138.092 7.96946C138.092 10.0983 137.251 12.0994 135.723 13.6049L112.141 36.8502C112.023 36.9667 111.877 37.0526 111.717 37.0998L97.4242 41.3262C97.3286 41.3547 97.2308 41.3682 97.1338 41.3682ZM102.316 26.8108L98.641 38.8864L110.892 35.2636L134.294 12.1959C135.44 11.0668 136.07 9.56594 136.07 7.96946C136.07 6.37297 135.44 4.87193 134.294 3.74305C133.149 2.61398 131.626 1.99236 130.006 1.99236C128.387 1.99236 126.864 2.61418 125.719 3.74305L102.316 26.8108Z"/>
</mask>
<path d="M97.1338 41.3682C96.8696 41.3682 96.6115 41.266 96.419 41.0766C96.1561 40.8174 96.0588 40.437 96.1658 40.086L100.454 25.998C100.502 25.84 100.589 25.6963 100.707 25.5798L124.29 2.33425C125.817 0.829023 127.847 0 130.006 0C132.166 0 134.196 0.829023 135.723 2.33425C137.251 3.83948 138.092 5.84081 138.092 7.96946C138.092 10.0983 137.251 12.0994 135.723 13.6049L112.141 36.8502C112.023 36.9667 111.877 37.0526 111.717 37.0998L97.4242 41.3262C97.3286 41.3547 97.2308 41.3682 97.1338 41.3682ZM102.316 26.8108L98.641 38.8864L110.892 35.2636L134.294 12.1959C135.44 11.0668 136.07 9.56594 136.07 7.96946C136.07 6.37297 135.44 4.87193 134.294 3.74305C133.149 2.61398 131.626 1.99236 130.006 1.99236C128.387 1.99236 126.864 2.61418 125.719 3.74305L102.316 26.8108Z" fill="#6D95FC"/>
<path d="M96.419 41.0766L93.6111 43.9253L93.6126 43.9268L96.419 41.0766ZM96.1658 40.086L99.9922 41.2514L99.9925 41.2506L96.1658 40.086ZM100.454 25.998L96.6269 24.8328L96.6268 24.8333L100.454 25.998ZM100.707 25.5798L97.8988 22.731H97.8988L100.707 25.5798ZM124.29 2.33425L127.098 5.18298V5.18298L124.29 2.33425ZM135.723 2.33425L132.915 5.18298L132.916 5.18317L135.723 2.33425ZM135.723 13.6049L132.915 10.7561L132.915 10.7561L135.723 13.6049ZM112.141 36.8502L114.949 39.6989L114.949 39.6989L112.141 36.8502ZM111.717 37.0998L110.586 33.2628L110.582 33.264L111.717 37.0998ZM97.4242 41.3262L96.2899 37.4904L96.2819 37.4928L97.4242 41.3262ZM102.316 26.8108L99.5081 23.9621L98.785 24.6749L98.4894 25.6462L102.316 26.8108ZM98.641 38.8864L94.8143 37.7217L92.6513 44.8288L99.7753 42.7222L98.641 38.8864ZM110.892 35.2636L112.026 39.0994L112.986 38.8154L113.7 38.1124L110.892 35.2636ZM134.294 12.1959L137.102 15.0446L137.103 15.0443L134.294 12.1959ZM134.294 3.74305L131.486 6.59153L131.486 6.59178L134.294 3.74305ZM125.719 3.74305L128.527 6.59178L125.719 3.74305ZM97.1338 37.3682C97.8959 37.3682 98.6528 37.6624 99.2255 38.2264L93.6126 43.9268C94.5701 44.8696 95.8433 45.3682 97.1338 45.3682V37.3682ZM99.227 38.2278C100.016 39.0051 100.322 40.1683 99.9922 41.2514L92.3393 38.9205C91.7956 40.7057 92.2965 42.6296 93.6111 43.9253L99.227 38.2278ZM99.9925 41.2506L104.28 27.1626L96.6268 24.8333L92.3391 38.9213L99.9925 41.2506ZM104.28 27.1631C104.134 27.6441 103.87 28.0787 103.515 28.4285L97.8988 22.731C97.3075 23.3139 96.8696 24.0358 96.6269 24.8328L104.28 27.1631ZM103.515 28.4285L127.098 5.18298L121.482 -0.514475L97.8988 22.731L103.515 28.4285ZM127.098 5.18298C127.87 4.4213 128.89 4 130.006 4V-4C126.805 -4 123.763 -2.76325 121.482 -0.514475L127.098 5.18298ZM130.006 4C131.124 4 132.143 4.4213 132.915 5.18298L138.531 -0.514475C136.25 -2.76325 133.209 -4 130.006 -4V4ZM132.916 5.18317C133.686 5.94284 134.092 6.92054 134.092 7.96946H142.092C142.092 4.76109 140.815 1.73613 138.531 -0.51466L132.916 5.18317ZM134.092 7.96946C134.092 9.01847 133.686 9.99611 132.915 10.7561L138.531 16.4536C140.815 14.2027 142.092 11.1781 142.092 7.96946H134.092ZM132.915 10.7561L109.333 34.0014L114.949 39.6989L138.531 16.4536L132.915 10.7561ZM109.333 34.0014C109.685 33.6542 110.116 33.4013 110.586 33.2628L112.847 40.9368C113.638 40.7039 114.36 40.2793 114.949 39.6989L109.333 34.0014ZM110.582 33.264L96.2899 37.4904L98.5585 45.162L112.851 40.9356L110.582 33.264ZM96.2819 37.4928C96.5704 37.4068 96.8582 37.3682 97.1338 37.3682V45.3682C97.6034 45.3682 98.0868 45.3026 98.5666 45.1596L96.2819 37.4928ZM98.4894 25.6462L94.8143 37.7217L102.468 40.051L106.143 27.9755L98.4894 25.6462ZM99.7753 42.7222L112.026 39.0994L109.757 31.4278L97.5067 35.0506L99.7753 42.7222ZM113.7 38.1124L137.102 15.0446L131.486 9.34713L108.084 32.4149L113.7 38.1124ZM137.103 15.0443C139.004 13.17 140.07 10.6459 140.07 7.96946H132.07C132.07 8.48602 131.875 8.96354 131.486 9.34738L137.103 15.0443ZM140.07 7.96946C140.07 5.29326 139.004 2.76869 137.102 0.894325L131.486 6.59178C131.875 6.97516 132.07 7.45269 132.07 7.96946H140.07ZM137.103 0.894573C135.203 -0.978566 132.668 -2.00764 130.006 -2.00764V5.99236C130.584 5.99236 131.096 6.20653 131.486 6.59153L137.103 0.894573ZM130.006 -2.00764C127.344 -2.00764 124.81 -0.978113 122.911 0.894325L128.527 6.59178C128.918 6.20647 129.429 5.99236 130.006 5.99236V-2.00764ZM122.911 0.894325L99.5081 23.9621L105.124 29.6596L128.527 6.59178L122.911 0.894325Z" fill="#6D95FC" mask="url(#path-5-inside-3_74_245)"/>
<mask id="path-7-inside-4_74_245" fill="white">
<path d="M104.995 32.1736C103.83 32.1736 102.666 31.7367 101.779 30.8628C100.006 29.1149 100.006 26.271 101.779 24.5231C102.174 24.1342 102.814 24.1342 103.208 24.5231C103.603 24.9122 103.603 25.5428 103.208 25.9319C102.223 26.903 102.223 28.4829 103.208 29.454C104.193 30.4251 105.796 30.4251 106.781 29.454C107.176 29.0651 107.816 29.0653 108.211 29.454C108.605 29.8431 108.605 30.4739 108.211 30.8628C107.324 31.7367 106.16 32.1736 104.995 32.1736Z"/>
</mask>
<path d="M104.995 32.1736C103.83 32.1736 102.666 31.7367 101.779 30.8628C100.006 29.1149 100.006 26.271 101.779 24.5231C102.174 24.1342 102.814 24.1342 103.208 24.5231C103.603 24.9122 103.603 25.5428 103.208 25.9319C102.223 26.903 102.223 28.4829 103.208 29.454C104.193 30.4251 105.796 30.4251 106.781 29.454C107.176 29.0651 107.816 29.0653 108.211 29.454C108.605 29.8431 108.605 30.4739 108.211 30.8628C107.324 31.7367 106.16 32.1736 104.995 32.1736Z" fill="#6D95FC"/>
<path d="M101.779 30.8628L98.9709 33.7114L98.9714 33.7119L101.779 30.8628ZM101.779 24.5231L98.971 21.6744L98.9709 21.6746L101.779 24.5231ZM103.208 24.5231L106.016 21.6744L106.016 21.6737L103.208 24.5231ZM106.781 29.454L103.975 26.6039L103.973 26.6053L106.781 29.454ZM108.211 29.454L111.019 26.6053L111.018 26.6046L108.211 29.454ZM108.211 30.8628L105.403 28.0134L105.403 28.0141L108.211 30.8628ZM104.995 28.1736C104.826 28.1736 104.687 28.1125 104.587 28.0138L98.9714 33.7119C100.645 35.3609 102.834 36.1736 104.995 36.1736V28.1736ZM104.587 28.0143C104.403 27.833 104.403 27.553 104.587 27.3717L98.9709 21.6746C95.6087 24.9891 95.6087 30.3969 98.9709 33.7114L104.587 28.0143ZM104.587 27.3719C103.424 28.5184 101.563 28.5173 100.401 27.3726L106.016 21.6737C104.064 19.7511 100.923 19.7501 98.971 21.6744L104.587 27.3719ZM100.4 27.3719C99.2057 26.1943 99.2057 24.2607 100.4 23.0832L106.016 28.7807C108 26.8249 108 23.6301 106.016 21.6744L100.4 27.3719ZM100.4 23.0832C97.8258 25.6209 97.8258 29.7651 100.4 32.3028L106.016 26.6053C106.62 27.2008 106.62 28.1851 106.016 28.7807L100.4 23.0832ZM100.4 32.3028C102.943 34.8089 107.047 34.8089 109.589 32.3028L103.973 26.6053C104.546 26.0413 105.444 26.0413 106.016 26.6053L100.4 32.3028ZM109.588 32.3042C108.426 33.4485 106.566 33.4487 105.403 32.3035L111.018 26.6046C109.066 24.6819 105.927 24.6817 103.975 26.6039L109.588 32.3042ZM105.403 32.3028C104.209 31.1256 104.207 29.1917 105.403 28.0134L111.018 33.7123C113.003 31.7562 113.002 28.5606 111.019 26.6053L105.403 32.3028ZM105.403 28.0141C105.303 28.1123 105.164 28.1736 104.995 28.1736V36.1736C107.155 36.1736 109.345 35.361 111.019 33.7116L105.403 28.0141Z" fill="#6D95FC" mask="url(#path-7-inside-4_74_245)"/>
<path d="M120.763 18.4807C120.763 18.4808 120.763 18.4808 120.763 18.4809L120.763 18.4807ZM119.385 17.0404L119.384 17.0408L119.385 17.0404ZM119.359 17.0563L119.359 17.0564L119.359 17.0563ZM119.359 17.0564L119.364 17.061L119.359 17.0564Z" fill="#6D95FC" stroke="#6D95FC" stroke-width="4"/>
<mask id="path-10-inside-5_74_245" fill="white">
<path d="M132.152 16.7143C131.894 16.7143 131.635 16.6171 131.438 16.4226L121.433 6.56083C121.038 6.17173 121.038 5.54094 121.433 5.15203C121.827 4.76312 122.467 4.76312 122.862 5.15203L132.867 15.0138C133.261 15.4029 133.261 16.0337 132.867 16.4226C132.67 16.6171 132.411 16.7143 132.152 16.7143Z"/>
</mask>
<path d="M132.152 16.7143C131.894 16.7143 131.635 16.6171 131.438 16.4226L121.433 6.56083C121.038 6.17173 121.038 5.54094 121.433 5.15203C121.827 4.76312 122.467 4.76312 122.862 5.15203L132.867 15.0138C133.261 15.4029 133.261 16.0337 132.867 16.4226C132.67 16.6171 132.411 16.7143 132.152 16.7143Z" fill="#6D95FC"/>
<path d="M131.438 16.4226L134.247 13.5753L134.246 13.5739L131.438 16.4226ZM121.433 6.56083L124.241 3.71211L124.241 3.71211L121.433 6.56083ZM121.433 5.15203L124.24 8.00148L124.241 8.00004L121.433 5.15203ZM122.862 5.15203L120.053 8.00004L120.054 8.00076L122.862 5.15203ZM132.867 15.0138L130.059 17.8626L132.867 15.0138ZM132.867 16.4226L130.059 13.5732L130.057 13.5754L132.867 16.4226ZM132.152 12.7143C132.891 12.7143 133.658 12.9941 134.247 13.5754L128.628 19.2699C129.611 20.2401 130.896 20.7143 132.152 20.7143V12.7143ZM134.246 13.5739L124.241 3.71211L118.625 9.40956L128.63 19.2714L134.246 13.5739ZM124.241 3.71211C125.435 4.88922 125.436 6.82321 124.24 8.00148L118.626 2.30259C116.64 4.25868 116.641 7.45423 118.625 9.40956L124.241 3.71211ZM124.241 8.00004C123.078 9.14712 121.216 9.14712 120.053 8.00004L125.671 2.30403C123.719 0.379127 120.576 0.379127 118.624 2.30403L124.241 8.00004ZM120.054 8.00076L130.059 17.8626L135.675 12.1651L125.67 2.30331L120.054 8.00076ZM130.059 17.8626C128.865 16.6855 128.864 14.7515 130.059 13.5732L135.674 19.2721C137.659 17.316 137.658 14.1204 135.675 12.1651L130.059 17.8626ZM130.057 13.5754C130.646 12.9941 131.413 12.7143 132.152 12.7143V20.7143C133.408 20.7143 134.693 20.2401 135.676 19.2699L130.057 13.5754Z" fill="#6D95FC" mask="url(#path-10-inside-5_74_245)"/>
<mask id="path-12-inside-6_74_245" fill="white">
<path d="M135.233 61.5924H119.063C115.719 61.5924 112.999 58.9111 112.999 55.6153C112.999 52.3196 115.719 49.6382 119.063 49.6382H141.297C143.526 49.6382 145.34 47.8507 145.34 45.6535V45.3531C145.34 43.1559 143.526 41.3683 141.297 41.3683H97.1337C96.5756 41.3683 96.123 40.9223 96.123 40.3722C96.123 39.8221 96.5756 39.376 97.1337 39.376H141.297C144.641 39.376 147.361 42.0573 147.361 45.3531V45.6535C147.361 48.9493 144.641 51.6306 141.297 51.6306H119.063C116.834 51.6306 115.02 53.4182 115.02 55.6153C115.02 57.8125 116.834 59.6001 119.063 59.6001H135.233C135.791 59.6001 136.244 60.046 136.244 60.5962C136.244 61.1465 135.791 61.5924 135.233 61.5924Z"/>
</mask>
<path d="M135.233 61.5924H119.063C115.719 61.5924 112.999 58.9111 112.999 55.6153C112.999 52.3196 115.719 49.6382 119.063 49.6382H141.297C143.526 49.6382 145.34 47.8507 145.34 45.6535V45.3531C145.34 43.1559 143.526 41.3683 141.297 41.3683H97.1337C96.5756 41.3683 96.123 40.9223 96.123 40.3722C96.123 39.8221 96.5756 39.376 97.1337 39.376H141.297C144.641 39.376 147.361 42.0573 147.361 45.3531V45.6535C147.361 48.9493 144.641 51.6306 141.297 51.6306H119.063C116.834 51.6306 115.02 53.4182 115.02 55.6153C115.02 57.8125 116.834 59.6001 119.063 59.6001H135.233C135.791 59.6001 136.244 60.046 136.244 60.5962C136.244 61.1465 135.791 61.5924 135.233 61.5924Z" fill="#6D95FC"/>
<path d="M135.233 57.5924H119.063V65.5924H135.233V57.5924ZM119.063 57.5924C117.874 57.5924 116.999 56.6478 116.999 55.6153H108.999C108.999 61.1744 113.565 65.5924 119.063 65.5924V57.5924ZM116.999 55.6153C116.999 54.5828 117.874 53.6382 119.063 53.6382V45.6382C113.565 45.6382 108.999 50.0563 108.999 55.6153H116.999ZM119.063 53.6382H141.297V45.6382H119.063V53.6382ZM141.297 53.6382C145.681 53.6382 149.34 50.114 149.34 45.6535H141.34C141.34 45.6523 141.34 45.6474 141.341 45.6405C141.343 45.6337 141.345 45.6279 141.346 45.6235C141.35 45.6151 141.352 45.6158 141.346 45.6211C141.341 45.6264 141.334 45.6309 141.328 45.6336C141.325 45.6348 141.322 45.6357 141.318 45.6365C141.314 45.6372 141.308 45.6382 141.297 45.6382V53.6382ZM149.34 45.6535V45.3531H141.34V45.6535H149.34ZM149.34 45.3531C149.34 40.8926 145.681 37.3683 141.297 37.3683V45.3683C141.308 45.3683 141.314 45.3694 141.318 45.3701C141.322 45.3708 141.325 45.3718 141.328 45.373C141.334 45.3757 141.341 45.3802 141.346 45.3855C141.352 45.3908 141.35 45.3914 141.346 45.3831C141.345 45.3787 141.343 45.3728 141.341 45.3661C141.34 45.3591 141.34 45.3543 141.34 45.3531H149.34ZM141.297 37.3683H97.1337V45.3683H141.297V37.3683ZM97.1337 37.3683C98.7302 37.3683 100.123 38.659 100.123 40.3722H92.123C92.123 43.1855 94.421 45.3683 97.1337 45.3683V37.3683ZM100.123 40.3722C100.123 42.0853 98.7302 43.376 97.1337 43.376V35.376C94.421 35.376 92.123 37.5588 92.123 40.3722H100.123ZM97.1337 43.376H141.297V35.376H97.1337V43.376ZM141.297 43.376C142.486 43.376 143.361 44.3206 143.361 45.3531H151.361C151.361 39.794 146.795 35.376 141.297 35.376V43.376ZM143.361 45.3531V45.6535H151.361V45.3531H143.361ZM143.361 45.6535C143.361 46.686 142.486 47.6306 141.297 47.6306V55.6306C146.795 55.6306 151.361 51.2126 151.361 45.6535H143.361ZM141.297 47.6306H119.063V55.6306H141.297V47.6306ZM119.063 47.6306C114.679 47.6306 111.02 51.1549 111.02 55.6153H119.02C119.02 55.6166 119.02 55.6214 119.019 55.6284C119.017 55.6351 119.015 55.641 119.013 55.6454C119.01 55.6537 119.008 55.653 119.014 55.6478C119.019 55.6425 119.026 55.638 119.032 55.6353C119.035 55.6341 119.038 55.6331 119.042 55.6323C119.046 55.6316 119.052 55.6306 119.063 55.6306V47.6306ZM111.02 55.6153C111.02 60.0758 114.679 63.6001 119.063 63.6001V55.6001C119.052 55.6001 119.046 55.5991 119.042 55.5983C119.038 55.5976 119.035 55.5966 119.032 55.5954C119.026 55.5927 119.019 55.5882 119.014 55.5829C119.008 55.5776 119.01 55.577 119.013 55.5853C119.015 55.5897 119.017 55.5956 119.019 55.6023C119.02 55.6093 119.02 55.6141 119.02 55.6153H111.02ZM119.063 63.6001H135.233V55.6001H119.063V63.6001ZM135.233 63.6001C133.637 63.6001 132.244 62.3092 132.244 60.5962H140.244C140.244 57.7827 137.946 55.6001 135.233 55.6001V63.6001ZM132.244 60.5962C132.244 58.8833 133.637 57.5924 135.233 57.5924V65.5924C137.946 65.5924 140.244 63.4098 140.244 60.5962H132.244Z" fill="#6D95FC" mask="url(#path-12-inside-6_74_245)"/>
<mask id="path-14-inside-7_74_245" fill="white">
<path d="M96.8298 62.5881H66.5106C65.9526 62.5881 65.5 62.1422 65.5 61.5919C65.5 61.0416 65.9526 60.5957 66.5106 60.5957H96.8298C97.3879 60.5957 97.8404 61.0416 97.8404 61.5919C97.8404 62.1422 97.3879 62.5881 96.8298 62.5881Z"/>
</mask>
<path d="M96.8298 62.5881H66.5106C65.9526 62.5881 65.5 62.1422 65.5 61.5919C65.5 61.0416 65.9526 60.5957 66.5106 60.5957H96.8298C97.3879 60.5957 97.8404 61.0416 97.8404 61.5919C97.8404 62.1422 97.3879 62.5881 96.8298 62.5881Z" fill="#6D95FC"/>
<path d="M96.8298 58.5881H66.5106V66.5881H96.8298V58.5881ZM66.5106 58.5881C68.1067 58.5881 69.5 59.8784 69.5 61.5919H61.5C61.5 64.406 63.7985 66.5881 66.5106 66.5881V58.5881ZM69.5 61.5919C69.5 63.3054 68.1067 64.5957 66.5106 64.5957V56.5957C63.7985 56.5957 61.5 58.7778 61.5 61.5919H69.5ZM66.5106 64.5957H96.8298V56.5957H66.5106V64.5957ZM96.8298 64.5957C95.2338 64.5957 93.8404 63.3054 93.8404 61.5919H101.84C101.84 58.7778 99.5419 56.5957 96.8298 56.5957V64.5957ZM93.8404 61.5919C93.8404 59.8784 95.2338 58.5881 96.8298 58.5881V66.5881C99.5419 66.5881 101.84 64.406 101.84 61.5919H93.8404Z" fill="#FBFBFB" mask="url(#path-14-inside-7_74_245)"/>
<mask id="path-16-inside-8_74_245" fill="white">
<path d="M96.8298 56.6115H66.5106C65.9526 56.6115 65.5 56.1656 65.5 55.6153C65.5 55.065 65.9526 54.6191 66.5106 54.6191H96.8298C97.3879 54.6191 97.8404 55.065 97.8404 55.6153C97.8404 56.1656 97.3879 56.6115 96.8298 56.6115Z"/>
</mask>
<path d="M96.8298 56.6115H66.5106C65.9526 56.6115 65.5 56.1656 65.5 55.6153C65.5 55.065 65.9526 54.6191 66.5106 54.6191H96.8298C97.3879 54.6191 97.8404 55.065 97.8404 55.6153C97.8404 56.1656 97.3879 56.6115 96.8298 56.6115Z" fill="#6D95FC"/>
<path d="M96.8298 52.6115H66.5106V60.6115H96.8298V52.6115ZM66.5106 52.6115C68.1067 52.6115 69.5 53.9018 69.5 55.6153H61.5C61.5 58.4294 63.7985 60.6115 66.5106 60.6115V52.6115ZM69.5 55.6153C69.5 57.3288 68.1067 58.6191 66.5106 58.6191V50.6191C63.7985 50.6191 61.5 52.8012 61.5 55.6153H69.5ZM66.5106 58.6191H96.8298V50.6191H66.5106V58.6191ZM96.8298 58.6191C95.2338 58.6191 93.8404 57.3288 93.8404 55.6153H101.84C101.84 52.8012 99.5419 50.6191 96.8298 50.6191V58.6191ZM93.8404 55.6153C93.8404 53.9018 95.2338 52.6115 96.8298 52.6115V60.6115C99.5419 60.6115 101.84 58.4294 101.84 55.6153H93.8404Z" fill="#FBFBFB" mask="url(#path-16-inside-8_74_245)"/>
<mask id="path-18-inside-9_74_245" fill="white">
<path d="M96.8298 50.6349H66.5106C65.9526 50.6349 65.5 50.1891 65.5 49.6388C65.5 49.0887 65.9526 48.6426 66.5106 48.6426H96.8298C97.3879 48.6426 97.8404 49.0887 97.8404 49.6388C97.8404 50.1891 97.3879 50.6349 96.8298 50.6349Z"/>
</mask>
<path d="M96.8298 50.6349H66.5106C65.9526 50.6349 65.5 50.1891 65.5 49.6388C65.5 49.0887 65.9526 48.6426 66.5106 48.6426H96.8298C97.3879 48.6426 97.8404 49.0887 97.8404 49.6388C97.8404 50.1891 97.3879 50.6349 96.8298 50.6349Z" fill="#6D95FC"/>
<path d="M96.8298 46.6349H66.5106V54.6349H96.8298V46.6349ZM66.5106 46.6349C68.1067 46.6349 69.5 47.9253 69.5 49.6388H61.5C61.5 52.4528 63.7985 54.6349 66.5106 54.6349V46.6349ZM69.5 49.6388C69.5 51.3519 68.1072 52.6426 66.5106 52.6426V44.6426C63.798 44.6426 61.5 46.8254 61.5 49.6388H69.5ZM66.5106 52.6426H96.8298V44.6426H66.5106V52.6426ZM96.8298 52.6426C95.2332 52.6426 93.8404 51.3519 93.8404 49.6388H101.84C101.84 46.8254 99.5425 44.6426 96.8298 44.6426V52.6426ZM93.8404 49.6388C93.8404 47.9253 95.2338 46.6349 96.8298 46.6349V54.6349C99.542 54.6349 101.84 52.4528 101.84 49.6388H93.8404Z" fill="#FBFBFB" mask="url(#path-18-inside-9_74_245)"/>
<mask id="path-20-inside-10_74_245" fill="white">
<path d="M124.118 95.4622H101.884C101.326 95.4622 100.873 95.0163 100.873 94.466V82.5118C100.873 81.9615 101.326 81.5156 101.884 81.5156H124.118C124.676 81.5156 125.128 81.9615 125.128 82.5118V94.466C125.128 95.0163 124.676 95.4622 124.118 95.4622ZM102.894 93.4698H123.107V83.508H102.894V93.4698Z"/>
</mask>
<path d="M124.118 95.4622H101.884C101.326 95.4622 100.873 95.0163 100.873 94.466V82.5118C100.873 81.9615 101.326 81.5156 101.884 81.5156H124.118C124.676 81.5156 125.128 81.9615 125.128 82.5118V94.466C125.128 95.0163 124.676 95.4622 124.118 95.4622ZM102.894 93.4698H123.107V83.508H102.894V93.4698Z" fill="#6D95FC"/>
<path d="M102.894 93.4698H98.8943V97.4698H102.894V93.4698ZM123.107 93.4698V97.4698H127.107V93.4698H123.107ZM123.107 83.508H127.107V79.508H123.107V83.508ZM102.894 83.508V79.508H98.8943V83.508H102.894ZM124.118 91.4622H101.884V99.4622H124.118V91.4622ZM101.884 91.4622C103.48 91.4622 104.873 92.7525 104.873 94.466H96.873C96.873 97.2801 99.1715 99.4622 101.884 99.4622V91.4622ZM104.873 94.466V82.5118H96.873V94.466H104.873ZM104.873 82.5118C104.873 84.2253 103.48 85.5156 101.884 85.5156V77.5156C99.1715 77.5156 96.873 79.6977 96.873 82.5118H104.873ZM101.884 85.5156H124.118V77.5156H101.884V85.5156ZM124.118 85.5156C122.521 85.5156 121.128 84.2248 121.128 82.5118H129.128C129.128 79.6982 126.831 77.5156 124.118 77.5156V85.5156ZM121.128 82.5118V94.466H129.128V82.5118H121.128ZM121.128 94.466C121.128 92.753 122.521 91.4622 124.118 91.4622V99.4622C126.831 99.4622 129.128 97.2796 129.128 94.466H121.128ZM102.894 97.4698H123.107V89.4698H102.894V97.4698ZM127.107 93.4698V83.508H119.107V93.4698H127.107ZM123.107 79.508H102.894V87.508H123.107V79.508ZM98.8943 83.508V93.4698H106.894V83.508H98.8943Z" fill="#FBFBFB" mask="url(#path-20-inside-10_74_245)"/>
<mask id="path-22-inside-11_74_245" fill="white">
<path d="M119.064 95.4622H106.936C106.378 95.4622 105.926 95.0163 105.926 94.466V82.5118C105.926 81.9615 106.378 81.5156 106.936 81.5156H119.064C119.622 81.5156 120.075 81.9615 120.075 82.5118V94.466C120.075 95.0163 119.622 95.4622 119.064 95.4622ZM107.947 93.4698H118.053V83.508H107.947V93.4698Z"/>
</mask>
<path d="M119.064 95.4622H106.936C106.378 95.4622 105.926 95.0163 105.926 94.466V82.5118C105.926 81.9615 106.378 81.5156 106.936 81.5156H119.064C119.622 81.5156 120.075 81.9615 120.075 82.5118V94.466C120.075 95.0163 119.622 95.4622 119.064 95.4622ZM107.947 93.4698H118.053V83.508H107.947V93.4698Z" fill="#6D95FC"/>
<path d="M107.947 93.4698H103.947V97.4698H107.947V93.4698ZM118.053 93.4698V97.4698H122.053V93.4698H118.053ZM118.053 83.508H122.053V79.508H118.053V83.508ZM107.947 83.508V79.508H103.947V83.508H107.947ZM119.064 91.4622H106.936V99.4622H119.064V91.4622ZM106.936 91.4622C108.532 91.4622 109.926 92.7525 109.926 94.466H101.926C101.926 97.2801 104.224 99.4622 106.936 99.4622V91.4622ZM109.926 94.466V82.5118H101.926V94.466H109.926ZM109.926 82.5118C109.926 84.2253 108.532 85.5156 106.936 85.5156V77.5156C104.224 77.5156 101.926 79.6977 101.926 82.5118H109.926ZM106.936 85.5156H119.064V77.5156H106.936V85.5156ZM119.064 85.5156C117.468 85.5156 116.075 84.2248 116.075 82.5118H124.075C124.075 79.6982 121.777 77.5156 119.064 77.5156V85.5156ZM116.075 82.5118V94.466H124.075V82.5118H116.075ZM116.075 94.466C116.075 92.753 117.468 91.4622 119.064 91.4622V99.4622C121.777 99.4622 124.075 97.2796 124.075 94.466H116.075ZM107.947 97.4698H118.053V89.4698H107.947V97.4698ZM122.053 93.4698V83.508H114.053V93.4698H122.053ZM118.053 79.508H107.947V87.508H118.053V79.508ZM103.947 83.508V93.4698H111.947V83.508H103.947Z" fill="#FBFBFB" mask="url(#path-22-inside-11_74_245)"/>
<mask id="path-24-inside-12_74_245" fill="white">
<path d="M127.148 99.4468H98.8503C97.1785 99.4468 95.8184 98.1062 95.8184 96.4583C95.8184 94.8104 97.1785 93.4697 98.8503 93.4697H127.148C128.82 93.4697 130.18 94.8104 130.18 96.4583C130.18 98.1062 128.82 99.4468 127.148 99.4468ZM98.8503 95.4621C98.293 95.4621 97.8396 95.909 97.8396 96.4583C97.8396 97.0076 98.293 97.4545 98.8503 97.4545H127.148C127.705 97.4545 128.159 97.0076 128.159 96.4583C128.159 95.909 127.705 95.4621 127.148 95.4621H98.8503Z"/>
</mask>
<path d="M127.148 99.4468H98.8503C97.1785 99.4468 95.8184 98.1062 95.8184 96.4583C95.8184 94.8104 97.1785 93.4697 98.8503 93.4697H127.148C128.82 93.4697 130.18 94.8104 130.18 96.4583C130.18 98.1062 128.82 99.4468 127.148 99.4468ZM98.8503 95.4621C98.293 95.4621 97.8396 95.909 97.8396 96.4583C97.8396 97.0076 98.293 97.4545 98.8503 97.4545H127.148C127.705 97.4545 128.159 97.0076 128.159 96.4583C128.159 95.909 127.705 95.4621 127.148 95.4621H98.8503Z" fill="#6D95FC"/>
<path d="M127.148 95.4468H98.8503V103.447H127.148V95.4468ZM98.8503 95.4468C99.3331 95.4468 99.8184 95.8429 99.8184 96.4583H91.8184C91.8184 100.369 95.0239 103.447 98.8503 103.447V95.4468ZM99.8184 96.4583C99.8184 97.0737 99.3331 97.4697 98.8503 97.4697V89.4697C95.0239 89.4697 91.8184 92.5471 91.8184 96.4583H99.8184ZM98.8503 97.4697H127.148V89.4697H98.8503V97.4697ZM127.148 97.4697C126.665 97.4697 126.18 97.0737 126.18 96.4583H134.18C134.18 92.5471 130.975 89.4697 127.148 89.4697V97.4697ZM126.18 96.4583C126.18 95.8429 126.665 95.4468 127.148 95.4468V103.447C130.975 103.447 134.18 100.369 134.18 96.4583H126.18ZM98.8503 91.4621C96.1384 91.4621 93.8396 93.6457 93.8396 96.4583H101.84C101.84 98.1723 100.448 99.4621 98.8503 99.4621V91.4621ZM93.8396 96.4583C93.8396 99.2708 96.1384 101.454 98.8503 101.454V93.4545C100.448 93.4545 101.84 94.7443 101.84 96.4583H93.8396ZM98.8503 101.454H127.148V93.4545H98.8503V101.454ZM127.148 101.454C129.86 101.454 132.159 99.2708 132.159 96.4583H124.159C124.159 94.7443 125.551 93.4545 127.148 93.4545V101.454ZM132.159 96.4583C132.159 93.6457 129.86 91.4621 127.148 91.4621V99.4621C125.551 99.4621 124.159 98.1723 124.159 96.4583H132.159ZM127.148 91.4621H98.8503V99.4621H127.148V91.4621Z" fill="#FBFBFB" mask="url(#path-24-inside-12_74_245)"/>
<path d="M27.548 137.699C27.212 137.083 26.75 136.614 26.162 136.292C25.574 135.97 24.888 135.809 24.104 135.809C23.236 135.809 22.466 136.005 21.794 136.397C21.122 136.789 20.597 137.349 20.219 138.077C19.841 138.805 19.652 139.645 19.652 140.597C19.652 141.577 19.841 142.431 20.219 143.159C20.611 143.887 21.15 144.447 21.836 144.839C22.522 145.231 23.32 145.427 24.23 145.427C25.35 145.427 26.267 145.133 26.981 144.545C27.695 143.943 28.164 143.11 28.388 142.046H23.348V139.799H31.286V142.361C31.09 143.383 30.67 144.328 30.026 145.196C29.382 146.064 28.549 146.764 27.527 147.296C26.519 147.814 25.385 148.073 24.125 148.073C22.711 148.073 21.43 147.758 20.282 147.128C19.148 146.484 18.252 145.595 17.594 144.461C16.95 143.327 16.628 142.039 16.628 140.597C16.628 139.155 16.95 137.867 17.594 136.733C18.252 135.585 19.148 134.696 20.282 134.066C21.43 133.422 22.704 133.1 24.104 133.1C25.756 133.1 27.191 133.506 28.409 134.318C29.627 135.116 30.467 136.243 30.929 137.699H27.548ZM42.2811 147.947L39.0471 142.235H37.6611V147.947H34.7211V133.289H40.2231C41.3571 133.289 42.3231 133.492 43.1211 133.898C43.9191 134.29 44.5141 134.829 44.9061 135.515C45.3121 136.187 45.5151 136.943 45.5151 137.783C45.5151 138.749 45.2351 139.624 44.6751 140.408C44.1151 141.178 43.2821 141.71 42.1761 142.004L45.6831 147.947H42.2811ZM37.6611 140.03H40.1181C40.9161 140.03 41.5111 139.841 41.9031 139.463C42.2951 139.071 42.4911 138.532 42.4911 137.846C42.4911 137.174 42.2951 136.656 41.9031 136.292C41.5111 135.914 40.9161 135.725 40.1181 135.725H37.6611V140.03ZM58.4223 145.154H52.5843L51.6183 147.947H48.5313L53.8023 133.268H57.2253L62.4963 147.947H59.3883L58.4223 145.154ZM57.6243 142.802L55.5033 136.67L53.3823 142.802H57.6243ZM76.4155 137.825C76.4155 138.609 76.2265 139.344 75.8485 140.03C75.4845 140.716 74.9035 141.269 74.1055 141.689C73.3215 142.109 72.3275 142.319 71.1235 142.319H68.6665V147.947H65.7265V133.289H71.1235C72.2575 133.289 73.2235 133.485 74.0215 133.877C74.8195 134.269 75.4145 134.808 75.8065 135.494C76.2125 136.18 76.4155 136.957 76.4155 137.825ZM70.9975 139.946C71.8095 139.946 72.4115 139.764 72.8035 139.4C73.1955 139.022 73.3915 138.497 73.3915 137.825C73.3915 136.397 72.5935 135.683 70.9975 135.683H68.6665V139.946H70.9975ZM91.9219 133.289V147.947H88.9819V141.71H82.7029V147.947H79.7629V133.289H82.7029V139.316H88.9819V133.289H91.9219ZM99.0156 133.289V147.947H96.0756V133.289H99.0156ZM102.466 140.597C102.466 139.155 102.788 137.867 103.432 136.733C104.09 135.585 104.979 134.696 106.099 134.066C107.233 133.422 108.5 133.1 109.9 133.1C111.538 133.1 112.973 133.52 114.205 134.36C115.437 135.2 116.298 136.362 116.788 137.846H113.407C113.071 137.146 112.595 136.621 111.979 136.271C111.377 135.921 110.677 135.746 109.879 135.746C109.025 135.746 108.262 135.949 107.59 136.355C106.932 136.747 106.414 137.307 106.036 138.035C105.672 138.763 105.49 139.617 105.49 140.597C105.49 141.563 105.672 142.417 106.036 143.159C106.414 143.887 106.932 144.454 107.59 144.86C108.262 145.252 109.025 145.448 109.879 145.448C110.677 145.448 111.377 145.273 111.979 144.923C112.595 144.559 113.071 144.027 113.407 143.327H116.788C116.298 144.825 115.437 145.994 114.205 146.834C112.987 147.66 111.552 148.073 109.9 148.073C108.5 148.073 107.233 147.758 106.099 147.128C104.979 146.484 104.09 145.595 103.432 144.461C102.788 143.327 102.466 142.039 102.466 140.597ZM131.947 133.289C133.487 133.289 134.838 133.59 136 134.192C137.176 134.794 138.079 135.655 138.709 136.775C139.353 137.881 139.675 139.169 139.675 140.639C139.675 142.109 139.353 143.397 138.709 144.503C138.079 145.595 137.176 146.442 136 147.044C134.838 147.646 133.487 147.947 131.947 147.947H126.823V133.289H131.947ZM131.842 145.448C133.382 145.448 134.572 145.028 135.412 144.188C136.252 143.348 136.672 142.165 136.672 140.639C136.672 139.113 136.252 137.923 135.412 137.069C134.572 136.201 133.382 135.767 131.842 135.767H129.763V145.448H131.842ZM146.076 135.662V139.337H151.011V141.668H146.076V145.553H151.641V147.947H143.136V133.268H151.641V135.662H146.076ZM160.634 148.094C159.612 148.094 158.688 147.919 157.862 147.569C157.05 147.219 156.406 146.715 155.93 146.057C155.454 145.399 155.209 144.622 155.195 143.726H158.345C158.387 144.328 158.597 144.804 158.975 145.154C159.367 145.504 159.899 145.679 160.571 145.679C161.257 145.679 161.796 145.518 162.188 145.196C162.58 144.86 162.776 144.426 162.776 143.894C162.776 143.46 162.643 143.103 162.377 142.823C162.111 142.543 161.775 142.326 161.369 142.172C160.977 142.004 160.431 141.822 159.731 141.626C158.779 141.346 158.002 141.073 157.4 140.807C156.812 140.527 156.301 140.114 155.867 139.568C155.447 139.008 155.237 138.266 155.237 137.342C155.237 136.474 155.454 135.718 155.888 135.074C156.322 134.43 156.931 133.94 157.715 133.604C158.499 133.254 159.395 133.079 160.403 133.079C161.915 133.079 163.14 133.45 164.078 134.192C165.03 134.92 165.555 135.942 165.653 137.258H162.419C162.391 136.754 162.174 136.341 161.768 136.019C161.376 135.683 160.851 135.515 160.193 135.515C159.619 135.515 159.157 135.662 158.807 135.956C158.471 136.25 158.303 136.677 158.303 137.237C158.303 137.629 158.429 137.958 158.681 138.224C158.947 138.476 159.269 138.686 159.647 138.854C160.039 139.008 160.585 139.19 161.285 139.4C162.237 139.68 163.014 139.96 163.616 140.24C164.218 140.52 164.736 140.94 165.17 141.5C165.604 142.06 165.821 142.795 165.821 143.705C165.821 144.489 165.618 145.217 165.212 145.889C164.806 146.561 164.211 147.1 163.427 147.506C162.643 147.898 161.712 148.094 160.634 148.094ZM172.57 133.289V147.947H169.63V133.289H172.57ZM186.94 137.699C186.604 137.083 186.142 136.614 185.554 136.292C184.966 135.97 184.28 135.809 183.496 135.809C182.628 135.809 181.858 136.005 181.186 136.397C180.514 136.789 179.989 137.349 179.611 138.077C179.233 138.805 179.044 139.645 179.044 140.597C179.044 141.577 179.233 142.431 179.611 143.159C180.003 143.887 180.542 144.447 181.228 144.839C181.914 145.231 182.712 145.427 183.622 145.427C184.742 145.427 185.659 145.133 186.373 144.545C187.087 143.943 187.556 143.11 187.78 142.046H182.74V139.799H190.678V142.361C190.482 143.383 190.062 144.328 189.418 145.196C188.774 146.064 187.941 146.764 186.919 147.296C185.911 147.814 184.777 148.073 183.517 148.073C182.103 148.073 180.822 147.758 179.674 147.128C178.54 146.484 177.644 145.595 176.986 144.461C176.342 143.327 176.02 142.039 176.02 140.597C176.02 139.155 176.342 137.867 176.986 136.733C177.644 135.585 178.54 134.696 179.674 134.066C180.822 133.422 182.096 133.1 183.496 133.1C185.148 133.1 186.583 133.506 187.801 134.318C189.019 135.116 189.859 136.243 190.321 137.699H186.94ZM206.651 147.947H203.711L197.054 137.888V147.947H194.114V133.268H197.054L203.711 143.348V133.268H206.651V147.947Z" fill="#6D95FC"/>
<path d="M10.8755 171.978H15.1425V172.947H9.68549V161.064H10.8755V171.978ZM21.5838 173.083C20.7111 173.083 19.9234 172.891 19.2208 172.505C18.5294 172.109 17.9798 171.553 17.5718 170.839C17.1751 170.114 16.9768 169.27 16.9768 168.306C16.9768 167.343 17.1808 166.504 17.5888 165.79C17.9968 165.065 18.5521 164.51 19.2548 164.124C19.9574 163.728 20.7451 163.529 21.6178 163.529C22.4904 163.529 23.2781 163.728 23.9808 164.124C24.6948 164.51 25.2501 165.065 25.6468 165.79C26.0548 166.504 26.2588 167.343 26.2588 168.306C26.2588 169.258 26.0548 170.097 25.6468 170.822C25.2388 171.548 24.6778 172.109 23.9638 172.505C23.2498 172.891 22.4564 173.083 21.5838 173.083ZM21.5838 172.046C22.1958 172.046 22.7624 171.91 23.2838 171.638C23.8051 171.355 24.2244 170.936 24.5418 170.38C24.8704 169.814 25.0348 169.122 25.0348 168.306C25.0348 167.49 24.8761 166.805 24.5588 166.249C24.2414 165.683 23.8221 165.263 23.3008 164.991C22.7794 164.708 22.2128 164.566 21.6008 164.566C20.9888 164.566 20.4221 164.708 19.9008 164.991C19.3794 165.263 18.9601 165.683 18.6428 166.249C18.3368 166.805 18.1838 167.49 18.1838 168.306C18.1838 169.122 18.3368 169.814 18.6428 170.38C18.9601 170.936 19.3738 171.355 19.8838 171.638C20.4051 171.91 20.9718 172.046 21.5838 172.046ZM30.298 165.314C30.5587 164.736 30.9553 164.289 31.488 163.971C32.032 163.654 32.695 163.495 33.477 163.495V164.736H33.154C32.2927 164.736 31.6013 164.969 31.08 165.433C30.5587 165.898 30.298 166.674 30.298 167.762V172.947H29.108V163.665H30.298V165.314ZM44.3452 167.83C44.3452 168.238 44.3338 168.55 44.3112 168.765H36.6102C36.6442 169.468 36.8142 170.069 37.1202 170.567C37.4262 171.066 37.8285 171.446 38.3272 171.706C38.8258 171.956 39.3698 172.08 39.9592 172.08C40.7298 172.08 41.3758 171.893 41.8972 171.519C42.4298 171.145 42.7812 170.641 42.9512 170.006H44.2092C43.9825 170.913 43.4952 171.655 42.7472 172.233C42.0105 172.8 41.0812 173.083 39.9592 173.083C39.0865 173.083 38.3045 172.891 37.6132 172.505C36.9218 172.109 36.3778 171.553 35.9812 170.839C35.5958 170.114 35.4032 169.27 35.4032 168.306C35.4032 167.343 35.5958 166.499 35.9812 165.773C36.3665 165.048 36.9048 164.493 37.5962 164.107C38.2875 163.722 39.0752 163.529 39.9592 163.529C40.8432 163.529 41.6138 163.722 42.2712 164.107C42.9398 164.493 43.4498 165.014 43.8012 165.671C44.1638 166.317 44.3452 167.037 44.3452 167.83ZM43.1382 167.796C43.1495 167.105 43.0078 166.516 42.7132 166.028C42.4298 165.541 42.0388 165.173 41.5402 164.923C41.0415 164.674 40.4975 164.549 39.9082 164.549C39.0242 164.549 38.2705 164.833 37.6472 165.399C37.0238 165.966 36.6782 166.765 36.6102 167.796H43.1382ZM58.2524 163.495C59.3404 163.495 60.2244 163.841 60.9044 164.532C61.5957 165.212 61.9414 166.204 61.9414 167.507V172.947H60.7684V167.643C60.7684 166.635 60.5247 165.864 60.0374 165.331C59.55 164.799 58.887 164.532 58.0484 164.532C57.1757 164.532 56.4787 164.821 55.9574 165.399C55.436 165.977 55.1754 166.816 55.1754 167.915V172.947H54.0024V167.643C54.0024 166.635 53.7587 165.864 53.2714 165.331C52.784 164.799 52.1154 164.532 51.2654 164.532C50.3927 164.532 49.6957 164.821 49.1744 165.399C48.653 165.977 48.3924 166.816 48.3924 167.915V172.947H47.2024V163.665H48.3924V165.263C48.687 164.685 49.1064 164.249 49.6504 163.954C50.1944 163.648 50.8007 163.495 51.4694 163.495C52.274 163.495 52.9767 163.688 53.5774 164.073C54.1894 164.459 54.6314 165.025 54.9034 165.773C55.1527 165.037 55.5777 164.476 56.1784 164.09C56.7904 163.694 57.4817 163.495 58.2524 163.495ZM71.2042 161.914C70.9662 161.914 70.7622 161.829 70.5922 161.659C70.4222 161.489 70.3372 161.28 70.3372 161.03C70.3372 160.781 70.4222 160.577 70.5922 160.418C70.7622 160.248 70.9662 160.163 71.2042 160.163C71.4422 160.163 71.6462 160.248 71.8162 160.418C71.9862 160.577 72.0712 160.781 72.0712 161.03C72.0712 161.28 71.9862 161.489 71.8162 161.659C71.6462 161.829 71.4422 161.914 71.2042 161.914ZM71.7992 163.665V172.947H70.6092V163.665H71.7992ZM76.347 165.705C76.6417 165.082 77.1063 164.566 77.741 164.158C78.387 163.739 79.152 163.529 80.036 163.529C80.8747 163.529 81.6283 163.728 82.297 164.124C82.977 164.51 83.504 165.065 83.878 165.79C84.2633 166.504 84.456 167.337 84.456 168.289C84.456 169.241 84.2633 170.08 83.878 170.805C83.504 171.531 82.977 172.092 82.297 172.488C81.6283 172.885 80.8747 173.083 80.036 173.083C79.1633 173.083 78.404 172.879 77.758 172.471C77.112 172.052 76.6417 171.531 76.347 170.907V177.333H75.174V163.665H76.347V165.705ZM83.249 168.289C83.249 167.519 83.096 166.856 82.79 166.3C82.4953 165.734 82.0873 165.303 81.566 165.008C81.0447 164.714 80.4553 164.566 79.798 164.566C79.1633 164.566 78.5797 164.719 78.047 165.025C77.5257 165.331 77.112 165.768 76.806 166.334C76.5 166.901 76.347 167.558 76.347 168.306C76.347 169.054 76.5 169.712 76.806 170.278C77.112 170.845 77.5257 171.281 78.047 171.587C78.5797 171.893 79.1633 172.046 79.798 172.046C80.4553 172.046 81.0447 171.899 81.566 171.604C82.0873 171.298 82.4953 170.862 82.79 170.295C83.096 169.717 83.249 169.049 83.249 168.289ZM90.5217 173.083C89.4563 173.083 88.5837 172.84 87.9037 172.352C87.235 171.854 86.861 171.179 86.7817 170.329H88.0057C88.0623 170.851 88.306 171.276 88.7367 171.604C89.1787 171.922 89.768 172.08 90.5047 172.08C91.1507 172.08 91.655 171.927 92.0177 171.621C92.3917 171.315 92.5787 170.936 92.5787 170.482C92.5787 170.165 92.4767 169.904 92.2727 169.7C92.0687 169.496 91.808 169.338 91.4907 169.224C91.1847 169.1 90.7653 168.969 90.2327 168.833C89.5413 168.652 88.9803 168.471 88.5497 168.289C88.119 168.108 87.7507 167.842 87.4447 167.49C87.15 167.128 87.0027 166.646 87.0027 166.045C87.0027 165.592 87.1387 165.173 87.4107 164.787C87.6827 164.402 88.068 164.096 88.5667 163.869C89.0653 163.643 89.632 163.529 90.2667 163.529C91.264 163.529 92.0687 163.784 92.6807 164.294C93.2927 164.793 93.6214 165.484 93.6667 166.368H92.4767C92.4427 165.824 92.2274 165.388 91.8307 165.059C91.4454 164.719 90.9127 164.549 90.2327 164.549C89.632 164.549 89.1447 164.691 88.7707 164.974C88.3967 165.258 88.2097 165.609 88.2097 166.028C88.2097 166.391 88.3173 166.691 88.5327 166.929C88.7593 167.156 89.037 167.337 89.3657 167.473C89.6943 167.598 90.1363 167.74 90.6917 167.898C91.3603 168.08 91.893 168.255 92.2897 168.425C92.6863 168.595 93.0263 168.845 93.3097 169.173C93.593 169.502 93.7404 169.938 93.7517 170.482C93.7517 170.981 93.6157 171.429 93.3437 171.825C93.0717 172.211 92.692 172.517 92.2047 172.743C91.7173 172.97 91.1563 173.083 90.5217 173.083ZM104.713 163.665V172.947H103.523V171.315C103.251 171.893 102.831 172.335 102.265 172.641C101.698 172.947 101.063 173.1 100.361 173.1C99.25 173.1 98.3434 172.76 97.6407 172.08C96.938 171.389 96.5867 170.392 96.5867 169.088V163.665H97.7597V168.952C97.7597 169.961 98.009 170.732 98.5077 171.264C99.0177 171.797 99.709 172.063 100.582 172.063C101.477 172.063 102.191 171.78 102.724 171.213C103.256 170.647 103.523 169.814 103.523 168.714V163.665H104.713ZM119.16 163.495C120.248 163.495 121.132 163.841 121.812 164.532C122.503 165.212 122.849 166.204 122.849 167.507V172.947H121.676V167.643C121.676 166.635 121.432 165.864 120.945 165.331C120.457 164.799 119.794 164.532 118.956 164.532C118.083 164.532 117.386 164.821 116.865 165.399C116.343 165.977 116.083 166.816 116.083 167.915V172.947H114.91V167.643C114.91 166.635 114.666 165.864 114.179 165.331C113.691 164.799 113.023 164.532 112.173 164.532C111.3 164.532 110.603 164.821 110.082 165.399C109.56 165.977 109.3 166.816 109.3 167.915V172.947H108.11V163.665H109.3V165.263C109.594 164.685 110.014 164.249 110.558 163.954C111.102 163.648 111.708 163.495 112.377 163.495C113.181 163.495 113.884 163.688 114.485 164.073C115.097 164.459 115.539 165.025 115.811 165.773C116.06 165.037 116.485 164.476 117.086 164.09C117.698 163.694 118.389 163.495 119.16 163.495ZM140.475 172.947H139.285L132.706 162.951V172.947H131.516V161.064H132.706L139.285 171.043V161.064H140.475V172.947ZM152.249 167.83C152.249 168.238 152.237 168.55 152.215 168.765H144.514C144.548 169.468 144.718 170.069 145.024 170.567C145.33 171.066 145.732 171.446 146.231 171.706C146.729 171.956 147.273 172.08 147.863 172.08C148.633 172.08 149.279 171.893 149.801 171.519C150.333 171.145 150.685 170.641 150.855 170.006H152.113C151.886 170.913 151.399 171.655 150.651 172.233C149.914 172.8 148.985 173.083 147.863 173.083C146.99 173.083 146.208 172.891 145.517 172.505C144.825 172.109 144.281 171.553 143.885 170.839C143.499 170.114 143.307 169.27 143.307 168.306C143.307 167.343 143.499 166.499 143.885 165.773C144.27 165.048 144.808 164.493 145.5 164.107C146.191 163.722 146.979 163.529 147.863 163.529C148.747 163.529 149.517 163.722 150.175 164.107C150.843 164.493 151.353 165.014 151.705 165.671C152.067 166.317 152.249 167.037 152.249 167.83ZM151.042 167.796C151.053 167.105 150.911 166.516 150.617 166.028C150.333 165.541 149.942 165.173 149.444 164.923C148.945 164.674 148.401 164.549 147.812 164.549C146.928 164.549 146.174 164.833 145.551 165.399C144.927 165.966 144.582 166.765 144.514 167.796H151.042ZM154.562 168.289C154.562 167.337 154.755 166.504 155.14 165.79C155.525 165.065 156.052 164.51 156.721 164.124C157.401 163.728 158.166 163.529 159.016 163.529C159.889 163.529 160.648 163.739 161.294 164.158C161.94 164.566 162.399 165.082 162.671 165.705V163.665H163.861V177.333H162.671V170.907C162.399 171.531 161.934 172.052 161.277 172.471C160.631 172.879 159.866 173.083 158.982 173.083C158.143 173.083 157.384 172.885 156.704 172.488C156.035 172.092 155.508 171.531 155.123 170.805C154.749 170.08 154.562 169.241 154.562 168.289ZM162.671 168.306C162.671 167.558 162.518 166.901 162.212 166.334C161.906 165.768 161.487 165.331 160.954 165.025C160.433 164.719 159.855 164.566 159.22 164.566C158.563 164.566 157.973 164.714 157.452 165.008C156.931 165.303 156.517 165.734 156.211 166.3C155.916 166.856 155.769 167.519 155.769 168.289C155.769 169.049 155.916 169.717 156.211 170.295C156.517 170.862 156.931 171.298 157.452 171.604C157.973 171.899 158.563 172.046 159.22 172.046C159.855 172.046 160.433 171.893 160.954 171.587C161.487 171.281 161.906 170.845 162.212 170.278C162.518 169.712 162.671 169.054 162.671 168.306ZM175.299 163.665V172.947H174.109V171.315C173.837 171.893 173.417 172.335 172.851 172.641C172.284 172.947 171.649 173.1 170.947 173.1C169.836 173.1 168.929 172.76 168.227 172.08C167.524 171.389 167.173 170.392 167.173 169.088V163.665H168.346V168.952C168.346 169.961 168.595 170.732 169.094 171.264C169.604 171.797 170.295 172.063 171.168 172.063C172.063 172.063 172.777 171.78 173.31 171.213C173.842 170.647 174.109 169.814 174.109 168.714V163.665H175.299ZM187.093 167.83C187.093 168.238 187.082 168.55 187.059 168.765H179.358C179.392 169.468 179.562 170.069 179.868 170.567C180.174 171.066 180.577 171.446 181.075 171.706C181.574 171.956 182.118 172.08 182.707 172.08C183.478 172.08 184.124 171.893 184.645 171.519C185.178 171.145 185.529 170.641 185.699 170.006H186.957C186.731 170.913 186.243 171.655 185.495 172.233C184.759 172.8 183.829 173.083 182.707 173.083C181.835 173.083 181.053 172.891 180.361 172.505C179.67 172.109 179.126 171.553 178.729 170.839C178.344 170.114 178.151 169.27 178.151 168.306C178.151 167.343 178.344 166.499 178.729 165.773C179.115 165.048 179.653 164.493 180.344 164.107C181.036 163.722 181.823 163.529 182.707 163.529C183.591 163.529 184.362 163.722 185.019 164.107C185.688 164.493 186.198 165.014 186.549 165.671C186.912 166.317 187.093 167.037 187.093 167.83ZM185.886 167.796C185.898 167.105 185.756 166.516 185.461 166.028C185.178 165.541 184.787 165.173 184.288 164.923C183.79 164.674 183.246 164.549 182.656 164.549C181.772 164.549 181.019 164.833 180.395 165.399C179.772 165.966 179.426 166.765 179.358 167.796H185.886ZM194.752 168.289C194.752 167.337 194.944 166.504 195.33 165.79C195.715 165.065 196.242 164.51 196.911 164.124C197.591 163.728 198.356 163.529 199.206 163.529C200.022 163.529 200.758 163.728 201.416 164.124C202.073 164.521 202.555 165.037 202.861 165.671V160.367H204.051V172.947H202.861V170.873C202.577 171.519 202.113 172.052 201.467 172.471C200.821 172.879 200.061 173.083 199.189 173.083C198.339 173.083 197.574 172.885 196.894 172.488C196.225 172.092 195.698 171.531 195.313 170.805C194.939 170.08 194.752 169.241 194.752 168.289ZM202.861 168.306C202.861 167.558 202.708 166.901 202.402 166.334C202.096 165.768 201.676 165.331 201.144 165.025C200.622 164.719 200.044 164.566 199.41 164.566C198.752 164.566 198.163 164.714 197.642 165.008C197.12 165.303 196.707 165.734 196.401 166.3C196.106 166.856 195.959 167.519 195.959 168.289C195.959 169.049 196.106 169.717 196.401 170.295C196.707 170.862 197.12 171.298 197.642 171.604C198.163 171.899 198.752 172.046 199.41 172.046C200.044 172.046 200.622 171.893 201.144 171.587C201.676 171.281 202.096 170.845 202.402 170.278C202.708 169.712 202.861 169.054 202.861 168.306ZM211.51 173.083C210.638 173.083 209.85 172.891 209.147 172.505C208.456 172.109 207.906 171.553 207.498 170.839C207.102 170.114 206.903 169.27 206.903 168.306C206.903 167.343 207.107 166.504 207.515 165.79C207.923 165.065 208.479 164.51 209.181 164.124C209.884 163.728 210.672 163.529 211.544 163.529C212.417 163.529 213.205 163.728 213.907 164.124C214.621 164.51 215.177 165.065 215.573 165.79C215.981 166.504 216.185 167.343 216.185 168.306C216.185 169.258 215.981 170.097 215.573 170.822C215.165 171.548 214.604 172.109 213.89 172.505C213.176 172.891 212.383 173.083 211.51 173.083ZM211.51 172.046C212.122 172.046 212.689 171.91 213.21 171.638C213.732 171.355 214.151 170.936 214.468 170.38C214.797 169.814 214.961 169.122 214.961 168.306C214.961 167.49 214.803 166.805 214.485 166.249C214.168 165.683 213.749 165.263 213.227 164.991C212.706 164.708 212.139 164.566 211.527 164.566C210.915 164.566 210.349 164.708 209.827 164.991C209.306 165.263 208.887 165.683 208.569 166.249C208.263 166.805 208.11 167.49 208.11 168.306C208.11 169.122 208.263 169.814 208.569 170.38C208.887 170.936 209.3 171.355 209.81 171.638C210.332 171.91 210.898 172.046 211.51 172.046ZM9.61403 186.705C9.9087 186.082 10.3734 185.566 11.008 185.158C11.654 184.739 12.419 184.529 13.303 184.529C14.1417 184.529 14.8954 184.728 15.564 185.124C16.244 185.51 16.771 186.065 17.145 186.79C17.5304 187.504 17.723 188.337 17.723 189.289C17.723 190.241 17.5304 191.08 17.145 191.805C16.771 192.531 16.244 193.092 15.564 193.488C14.8954 193.885 14.1417 194.083 13.303 194.083C12.4304 194.083 11.671 193.879 11.025 193.471C10.379 193.052 9.9087 192.531 9.61403 191.907V198.333H8.44103V184.665H9.61403V186.705ZM16.516 189.289C16.516 188.519 16.363 187.856 16.057 187.3C15.7624 186.734 15.3544 186.303 14.833 186.008C14.3117 185.714 13.7224 185.566 13.065 185.566C12.4304 185.566 11.8467 185.719 11.314 186.025C10.7927 186.331 10.379 186.768 10.073 187.334C9.76703 187.901 9.61403 188.558 9.61403 189.306C9.61403 190.054 9.76703 190.712 10.073 191.278C10.379 191.845 10.7927 192.281 11.314 192.587C11.8467 192.893 12.4304 193.046 13.065 193.046C13.7224 193.046 14.3117 192.899 14.833 192.604C15.3544 192.298 15.7624 191.862 16.057 191.295C16.363 190.717 16.516 190.049 16.516 189.289ZM24.6557 194.083C23.783 194.083 22.9954 193.891 22.2927 193.505C21.6014 193.109 21.0517 192.553 20.6437 191.839C20.247 191.114 20.0487 190.27 20.0487 189.306C20.0487 188.343 20.2527 187.504 20.6607 186.79C21.0687 186.065 21.624 185.51 22.3267 185.124C23.0294 184.728 23.817 184.529 24.6897 184.529C25.5624 184.529 26.35 184.728 27.0527 185.124C27.7667 185.51 28.322 186.065 28.7187 186.79C29.1267 187.504 29.3307 188.343 29.3307 189.306C29.3307 190.258 29.1267 191.097 28.7187 191.822C28.3107 192.548 27.7497 193.109 27.0357 193.505C26.3217 193.891 25.5284 194.083 24.6557 194.083ZM24.6557 193.046C25.2677 193.046 25.8344 192.91 26.3557 192.638C26.877 192.355 27.2964 191.936 27.6137 191.38C27.9424 190.814 28.1067 190.122 28.1067 189.306C28.1067 188.49 27.948 187.805 27.6307 187.249C27.3134 186.683 26.894 186.263 26.3727 185.991C25.8514 185.708 25.2847 185.566 24.6727 185.566C24.0607 185.566 23.494 185.708 22.9727 185.991C22.4514 186.263 22.032 186.683 21.7147 187.249C21.4087 187.805 21.2557 188.49 21.2557 189.306C21.2557 190.122 21.4087 190.814 21.7147 191.38C22.032 191.936 22.4457 192.355 22.9557 192.638C23.477 192.91 24.0437 193.046 24.6557 193.046ZM33.3699 186.314C33.6306 185.736 34.0273 185.289 34.5599 184.971C35.1039 184.654 35.7669 184.495 36.5489 184.495V185.736H36.2259C35.3646 185.736 34.6733 185.969 34.1519 186.433C33.6306 186.898 33.3699 187.674 33.3699 188.762V193.947H32.1799V184.665H33.3699V186.314ZM40.2091 186.314C40.4698 185.736 40.8665 185.289 41.3991 184.971C41.9431 184.654 42.6061 184.495 43.3881 184.495V185.736H43.0651C42.2038 185.736 41.5125 185.969 40.9911 186.433C40.4698 186.898 40.2091 187.674 40.2091 188.762V193.947H39.0191V184.665H40.2091V186.314ZM49.9213 194.083C49.0486 194.083 48.261 193.891 47.5583 193.505C46.867 193.109 46.3173 192.553 45.9093 191.839C45.5126 191.114 45.3143 190.27 45.3143 189.306C45.3143 188.343 45.5183 187.504 45.9263 186.79C46.3343 186.065 46.8896 185.51 47.5923 185.124C48.295 184.728 49.0826 184.529 49.9553 184.529C50.828 184.529 51.6156 184.728 52.3183 185.124C53.0323 185.51 53.5876 186.065 53.9843 186.79C54.3923 187.504 54.5963 188.343 54.5963 189.306C54.5963 190.258 54.3923 191.097 53.9843 191.822C53.5763 192.548 53.0153 193.109 52.3013 193.505C51.5873 193.891 50.794 194.083 49.9213 194.083ZM49.9213 193.046C50.5333 193.046 51.1 192.91 51.6213 192.638C52.1426 192.355 52.562 191.936 52.8793 191.38C53.208 190.814 53.3723 190.122 53.3723 189.306C53.3723 188.49 53.2136 187.805 52.8963 187.249C52.579 186.683 52.1596 186.263 51.6383 185.991C51.117 185.708 50.5503 185.566 49.9383 185.566C49.3263 185.566 48.7596 185.708 48.2383 185.991C47.717 186.263 47.2976 186.683 46.9803 187.249C46.6743 187.805 46.5213 188.49 46.5213 189.306C46.5213 190.122 46.6743 190.814 46.9803 191.38C47.2976 191.936 47.7113 192.355 48.2213 192.638C48.7426 192.91 49.3093 193.046 49.9213 193.046ZM62.2466 189.289C62.2466 188.337 62.4392 187.504 62.8246 186.79C63.2099 186.065 63.7369 185.51 64.4056 185.124C65.0856 184.728 65.8506 184.529 66.7006 184.529C67.5732 184.529 68.3326 184.739 68.9786 185.158C69.6246 185.566 70.0836 186.082 70.3556 186.705V184.665H71.5456V198.333H70.3556V191.907C70.0836 192.531 69.6189 193.052 68.9616 193.471C68.3156 193.879 67.5506 194.083 66.6666 194.083C65.8279 194.083 65.0686 193.885 64.3886 193.488C63.7199 193.092 63.1929 192.531 62.8076 191.805C62.4336 191.08 62.2466 190.241 62.2466 189.289ZM70.3556 189.306C70.3556 188.558 70.2026 187.901 69.8966 187.334C69.5906 186.768 69.1712 186.331 68.6386 186.025C68.1172 185.719 67.5392 185.566 66.9046 185.566C66.2472 185.566 65.6579 185.714 65.1366 186.008C64.6152 186.303 64.2016 186.734 63.8956 187.3C63.6009 187.856 63.4536 188.519 63.4536 189.289C63.4536 190.049 63.6009 190.717 63.8956 191.295C64.2016 191.862 64.6152 192.298 65.1366 192.604C65.6579 192.899 66.2472 193.046 66.9046 193.046C67.5392 193.046 68.1172 192.893 68.6386 192.587C69.1712 192.281 69.5906 191.845 69.8966 191.278C70.2026 190.712 70.3556 190.054 70.3556 189.306ZM82.9832 184.665V193.947H81.7932V192.315C81.5212 192.893 81.1019 193.335 80.5352 193.641C79.9686 193.947 79.3339 194.1 78.6312 194.1C77.5206 194.1 76.6139 193.76 75.9112 193.08C75.2086 192.389 74.8572 191.392 74.8572 190.088V184.665H76.0302V189.952C76.0302 190.961 76.2796 191.732 76.7782 192.264C77.2882 192.797 77.9796 193.063 78.8522 193.063C79.7476 193.063 80.4616 192.78 80.9942 192.213C81.5269 191.647 81.7932 190.814 81.7932 189.714V184.665H82.9832ZM86.9751 182.914C86.7371 182.914 86.5331 182.829 86.3631 182.659C86.1931 182.489 86.1081 182.28 86.1081 182.03C86.1081 181.781 86.1931 181.577 86.3631 181.418C86.5331 181.248 86.7371 181.163 86.9751 181.163C87.2131 181.163 87.4171 181.248 87.5871 181.418C87.7571 181.577 87.8421 181.781 87.8421 182.03C87.8421 182.28 87.7571 182.489 87.5871 182.659C87.4171 182.829 87.2131 182.914 86.9751 182.914ZM87.5701 184.665V193.947H86.3801V184.665H87.5701ZM94.1408 194.083C93.0755 194.083 92.2028 193.84 91.5228 193.352C90.8542 192.854 90.4802 192.179 90.4008 191.329H91.6248C91.6815 191.851 91.9252 192.276 92.3558 192.604C92.7978 192.922 93.3872 193.08 94.1238 193.08C94.7698 193.08 95.2742 192.927 95.6368 192.621C96.0108 192.315 96.1978 191.936 96.1978 191.482C96.1978 191.165 96.0958 190.904 95.8918 190.7C95.6878 190.496 95.4272 190.338 95.1098 190.224C94.8038 190.1 94.3845 189.969 93.8518 189.833C93.1605 189.652 92.5995 189.471 92.1688 189.289C91.7382 189.108 91.3698 188.842 91.0638 188.49C90.7692 188.128 90.6218 187.646 90.6218 187.045C90.6218 186.592 90.7578 186.173 91.0298 185.787C91.3018 185.402 91.6872 185.096 92.1858 184.869C92.6845 184.643 93.2512 184.529 93.8858 184.529C94.8832 184.529 95.6878 184.784 96.2998 185.294C96.9118 185.793 97.2405 186.484 97.2858 187.368H96.0958C96.0618 186.824 95.8465 186.388 95.4498 186.059C95.0645 185.719 94.5318 185.549 93.8518 185.549C93.2512 185.549 92.7638 185.691 92.3898 185.974C92.0158 186.258 91.8288 186.609 91.8288 187.028C91.8288 187.391 91.9365 187.691 92.1518 187.929C92.3785 188.156 92.6562 188.337 92.9848 188.473C93.3135 188.598 93.7555 188.74 94.3108 188.898C94.9795 189.08 95.5122 189.255 95.9088 189.425C96.3055 189.595 96.6455 189.845 96.9288 190.173C97.2122 190.502 97.3595 190.938 97.3708 191.482C97.3708 191.981 97.2348 192.429 96.9628 192.825C96.6908 193.211 96.3112 193.517 95.8238 193.743C95.3365 193.97 94.7755 194.083 94.1408 194.083ZM99.7468 189.289C99.7468 188.337 99.9395 187.504 100.325 186.79C100.71 186.065 101.237 185.51 101.906 185.124C102.586 184.728 103.351 184.529 104.201 184.529C105.074 184.529 105.833 184.739 106.479 185.158C107.125 185.566 107.584 186.082 107.856 186.705V184.665H109.046V198.333H107.856V191.907C107.584 192.531 107.119 193.052 106.462 193.471C105.816 193.879 105.051 194.083 104.167 194.083C103.328 194.083 102.569 193.885 101.889 193.488C101.22 193.092 100.693 192.531 100.308 191.805C99.9338 191.08 99.7468 190.241 99.7468 189.289ZM107.856 189.306C107.856 188.558 107.703 187.901 107.397 187.334C107.091 186.768 106.672 186.331 106.139 186.025C105.618 185.719 105.04 185.566 104.405 185.566C103.748 185.566 103.158 185.714 102.637 186.008C102.116 186.303 101.702 186.734 101.396 187.3C101.101 187.856 100.954 188.519 100.954 189.289C100.954 190.049 101.101 190.717 101.396 191.295C101.702 191.862 102.116 192.298 102.637 192.604C103.158 192.899 103.748 193.046 104.405 193.046C105.04 193.046 105.618 192.893 106.139 192.587C106.672 192.281 107.091 191.845 107.397 191.278C107.703 190.712 107.856 190.054 107.856 189.306ZM120.484 184.665V193.947H119.294V192.315C119.022 192.893 118.602 193.335 118.036 193.641C117.469 193.947 116.834 194.1 116.132 194.1C115.021 194.1 114.114 193.76 113.412 193.08C112.709 192.389 112.358 191.392 112.358 190.088V184.665H113.531V189.952C113.531 190.961 113.78 191.732 114.279 192.264C114.789 192.797 115.48 193.063 116.353 193.063C117.248 193.063 117.962 192.78 118.495 192.213C119.027 191.647 119.294 190.814 119.294 189.714V184.665H120.484ZM123.336 189.289C123.336 188.337 123.523 187.504 123.897 186.79C124.283 186.065 124.81 185.51 125.478 185.124C126.158 184.728 126.923 184.529 127.773 184.529C128.657 184.529 129.417 184.733 130.051 185.141C130.697 185.549 131.162 186.071 131.445 186.705V184.665H132.635V193.947H131.445V191.89C131.151 192.525 130.68 193.052 130.034 193.471C129.4 193.879 128.64 194.083 127.756 194.083C126.918 194.083 126.158 193.885 125.478 193.488C124.81 193.092 124.283 192.531 123.897 191.805C123.523 191.08 123.336 190.241 123.336 189.289ZM131.445 189.306C131.445 188.558 131.292 187.901 130.986 187.334C130.68 186.768 130.261 186.331 129.728 186.025C129.207 185.719 128.629 185.566 127.994 185.566C127.337 185.566 126.748 185.714 126.226 186.008C125.705 186.303 125.291 186.734 124.985 187.3C124.691 187.856 124.543 188.519 124.543 189.289C124.543 190.049 124.691 190.717 124.985 191.295C125.291 191.862 125.705 192.298 126.226 192.604C126.748 192.899 127.337 193.046 127.994 193.046C128.629 193.046 129.207 192.893 129.728 192.587C130.261 192.281 130.68 191.845 130.986 191.278C131.292 190.712 131.445 190.054 131.445 189.306ZM147.082 184.495C148.17 184.495 149.054 184.841 149.734 185.532C150.425 186.212 150.771 187.204 150.771 188.507V193.947H149.598V188.643C149.598 187.635 149.354 186.864 148.867 186.331C148.38 185.799 147.717 185.532 146.878 185.532C146.005 185.532 145.308 185.821 144.787 186.399C144.266 186.977 144.005 187.816 144.005 188.915V193.947H142.832V188.643C142.832 187.635 142.588 186.864 142.101 186.331C141.614 185.799 140.945 185.532 140.095 185.532C139.222 185.532 138.525 185.821 138.004 186.399C137.483 186.977 137.222 187.816 137.222 188.915V193.947H136.032V184.665H137.222V186.263C137.517 185.685 137.936 185.249 138.48 184.954C139.024 184.648 139.63 184.495 140.299 184.495C141.104 184.495 141.806 184.688 142.407 185.073C143.019 185.459 143.461 186.025 143.733 186.773C143.982 186.037 144.407 185.476 145.008 185.09C145.62 184.694 146.311 184.495 147.082 184.495ZM167.837 188.83C167.837 189.238 167.826 189.55 167.803 189.765H160.102C160.136 190.468 160.306 191.069 160.612 191.567C160.918 192.066 161.32 192.446 161.819 192.706C162.318 192.956 162.862 193.08 163.451 193.08C164.222 193.08 164.868 192.893 165.389 192.519C165.922 192.145 166.273 191.641 166.443 191.006H167.701C167.474 191.913 166.987 192.655 166.239 193.233C165.502 193.8 164.573 194.083 163.451 194.083C162.578 194.083 161.796 193.891 161.105 193.505C160.414 193.109 159.87 192.553 159.473 191.839C159.088 191.114 158.895 190.27 158.895 189.306C158.895 188.343 159.088 187.499 159.473 186.773C159.858 186.048 160.397 185.493 161.088 185.107C161.779 184.722 162.567 184.529 163.451 184.529C164.335 184.529 165.106 184.722 165.763 185.107C166.432 185.493 166.942 186.014 167.293 186.671C167.656 187.317 167.837 188.037 167.837 188.83ZM166.63 188.796C166.641 188.105 166.5 187.516 166.205 187.028C165.922 186.541 165.531 186.173 165.032 185.923C164.533 185.674 163.989 185.549 163.4 185.549C162.516 185.549 161.762 185.833 161.139 186.399C160.516 186.966 160.17 187.765 160.102 188.796H166.63ZM173.89 194.083C172.825 194.083 171.952 193.84 171.272 193.352C170.603 192.854 170.229 192.179 170.15 191.329H171.374C171.431 191.851 171.674 192.276 172.105 192.604C172.547 192.922 173.136 193.08 173.873 193.08C174.519 193.08 175.023 192.927 175.386 192.621C175.76 192.315 175.947 191.936 175.947 191.482C175.947 191.165 175.845 190.904 175.641 190.7C175.437 190.496 175.176 190.338 174.859 190.224C174.553 190.1 174.134 189.969 173.601 189.833C172.91 189.652 172.349 189.471 171.918 189.289C171.487 189.108 171.119 188.842 170.813 188.49C170.518 188.128 170.371 187.646 170.371 187.045C170.371 186.592 170.507 186.173 170.779 185.787C171.051 185.402 171.436 185.096 171.935 184.869C172.434 184.643 173 184.529 173.635 184.529C174.632 184.529 175.437 184.784 176.049 185.294C176.661 185.793 176.99 186.484 177.035 187.368H175.845C175.811 186.824 175.596 186.388 175.199 186.059C174.814 185.719 174.281 185.549 173.601 185.549C173 185.549 172.513 185.691 172.139 185.974C171.765 186.258 171.578 186.609 171.578 187.028C171.578 187.391 171.686 187.691 171.901 187.929C172.128 188.156 172.405 188.337 172.734 188.473C173.063 188.598 173.505 188.74 174.06 188.898C174.729 189.08 175.261 189.255 175.658 189.425C176.055 189.595 176.395 189.845 176.678 190.173C176.961 190.502 177.109 190.938 177.12 191.482C177.12 191.981 176.984 192.429 176.712 192.825C176.44 193.211 176.06 193.517 175.573 193.743C175.086 193.97 174.525 194.083 173.89 194.083ZM181.587 185.668V191.431C181.587 191.998 181.695 192.389 181.91 192.604C182.125 192.82 182.505 192.927 183.049 192.927H184.137V193.947H182.862C182.023 193.947 181.4 193.755 180.992 193.369C180.584 192.973 180.38 192.327 180.38 191.431V185.668H179.088V184.665H180.38V182.336H181.587V184.665H184.137V185.668H181.587ZM191.581 189.289C191.581 188.337 191.773 187.504 192.159 186.79C192.544 186.065 193.071 185.51 193.74 185.124C194.42 184.728 195.185 184.529 196.035 184.529C196.907 184.529 197.667 184.739 198.313 185.158C198.959 185.566 199.418 186.082 199.69 186.705V184.665H200.88V198.333H199.69V191.907C199.418 192.531 198.953 193.052 198.296 193.471C197.65 193.879 196.885 194.083 196.001 194.083C195.162 194.083 194.403 193.885 193.723 193.488C193.054 193.092 192.527 192.531 192.142 191.805C191.768 191.08 191.581 190.241 191.581 189.289ZM199.69 189.306C199.69 188.558 199.537 187.901 199.231 187.334C198.925 186.768 198.505 186.331 197.973 186.025C197.451 185.719 196.873 185.566 196.239 185.566C195.581 185.566 194.992 185.714 194.471 186.008C193.949 186.303 193.536 186.734 193.23 187.3C192.935 187.856 192.788 188.519 192.788 189.289C192.788 190.049 192.935 190.717 193.23 191.295C193.536 191.862 193.949 192.298 194.471 192.604C194.992 192.899 195.581 193.046 196.239 193.046C196.873 193.046 197.451 192.893 197.973 192.587C198.505 192.281 198.925 191.845 199.231 191.278C199.537 190.712 199.69 190.054 199.69 189.306ZM212.317 184.665V193.947H211.127V192.315C210.855 192.893 210.436 193.335 209.869 193.641C209.303 193.947 208.668 194.1 207.965 194.1C206.855 194.1 205.948 193.76 205.245 193.08C204.543 192.389 204.191 191.392 204.191 190.088V184.665H205.364V189.952C205.364 190.961 205.614 191.732 206.112 192.264C206.622 192.797 207.314 193.063 208.186 193.063C209.082 193.063 209.796 192.78 210.328 192.213C210.861 191.647 211.127 190.814 211.127 189.714V184.665H212.317ZM216.309 182.914C216.071 182.914 215.867 182.829 215.697 182.659C215.527 182.489 215.442 182.28 215.442 182.03C215.442 181.781 215.527 181.577 215.697 181.418C215.867 181.248 216.071 181.163 216.309 181.163C216.547 181.163 216.751 181.248 216.921 181.418C217.091 181.577 217.176 181.781 217.176 182.03C217.176 182.28 217.091 182.489 216.921 182.659C216.751 182.829 216.547 182.914 216.309 182.914ZM216.904 184.665V193.947H215.714V184.665H216.904ZM72.3725 210.289C72.3725 209.337 72.5652 208.504 72.9505 207.79C73.3359 207.065 73.8629 206.51 74.5315 206.124C75.2115 205.728 75.9765 205.529 76.8265 205.529C77.6425 205.529 78.3792 205.728 79.0365 206.124C79.6939 206.521 80.1755 207.037 80.4815 207.671V202.367H81.6715V214.947H80.4815V212.873C80.1982 213.519 79.7335 214.052 79.0875 214.471C78.4415 214.879 77.6822 215.083 76.8095 215.083C75.9595 215.083 75.1945 214.885 74.5145 214.488C73.8459 214.092 73.3189 213.531 72.9335 212.805C72.5595 212.08 72.3725 211.241 72.3725 210.289ZM80.4815 210.306C80.4815 209.558 80.3285 208.901 80.0225 208.334C79.7165 207.768 79.2972 207.331 78.7645 207.025C78.2432 206.719 77.6652 206.566 77.0305 206.566C76.3732 206.566 75.7839 206.714 75.2625 207.008C74.7412 207.303 74.3275 207.734 74.0215 208.3C73.7269 208.856 73.5795 209.519 73.5795 210.289C73.5795 211.049 73.7269 211.717 74.0215 212.295C74.3275 212.862 74.7412 213.298 75.2625 213.604C75.7839 213.899 76.3732 214.046 77.0305 214.046C77.6652 214.046 78.2432 213.893 78.7645 213.587C79.2972 213.281 79.7165 212.845 80.0225 212.278C80.3285 211.712 80.4815 211.054 80.4815 210.306ZM89.1312 215.083C88.2585 215.083 87.4709 214.891 86.7682 214.505C86.0769 214.109 85.5272 213.553 85.1192 212.839C84.7225 212.114 84.5242 211.27 84.5242 210.306C84.5242 209.343 84.7282 208.504 85.1362 207.79C85.5442 207.065 86.0995 206.51 86.8022 206.124C87.5049 205.728 88.2925 205.529 89.1652 205.529C90.0379 205.529 90.8255 205.728 91.5282 206.124C92.2422 206.51 92.7975 207.065 93.1942 207.79C93.6022 208.504 93.8062 209.343 93.8062 210.306C93.8062 211.258 93.6022 212.097 93.1942 212.822C92.7862 213.548 92.2252 214.109 91.5112 214.505C90.7972 214.891 90.0039 215.083 89.1312 215.083ZM89.1312 214.046C89.7432 214.046 90.3099 213.91 90.8312 213.638C91.3525 213.355 91.7719 212.936 92.0892 212.38C92.4179 211.814 92.5822 211.122 92.5822 210.306C92.5822 209.49 92.4235 208.805 92.1062 208.249C91.7889 207.683 91.3695 207.263 90.8482 206.991C90.3269 206.708 89.7602 206.566 89.1482 206.566C88.5362 206.566 87.9695 206.708 87.4482 206.991C86.9269 207.263 86.5075 207.683 86.1902 208.249C85.8842 208.805 85.7312 209.49 85.7312 210.306C85.7312 211.122 85.8842 211.814 86.1902 212.38C86.5075 212.936 86.9212 213.355 87.4312 213.638C87.9525 213.91 88.5192 214.046 89.1312 214.046ZM101.456 210.289C101.456 209.337 101.649 208.504 102.034 207.79C102.42 207.065 102.947 206.51 103.615 206.124C104.295 205.728 105.06 205.529 105.91 205.529C106.783 205.529 107.542 205.739 108.188 206.158C108.834 206.566 109.293 207.082 109.565 207.705V205.665H110.755V219.333H109.565V212.907C109.293 213.531 108.829 214.052 108.171 214.471C107.525 214.879 106.76 215.083 105.876 215.083C105.038 215.083 104.278 214.885 103.598 214.488C102.93 214.092 102.403 213.531 102.017 212.805C101.643 212.08 101.456 211.241 101.456 210.289ZM109.565 210.306C109.565 209.558 109.412 208.901 109.106 208.334C108.8 207.768 108.381 207.331 107.848 207.025C107.327 206.719 106.749 206.566 106.114 206.566C105.457 206.566 104.868 206.714 104.346 207.008C103.825 207.303 103.411 207.734 103.105 208.3C102.811 208.856 102.663 209.519 102.663 210.289C102.663 211.049 102.811 211.717 103.105 212.295C103.411 212.862 103.825 213.298 104.346 213.604C104.868 213.899 105.457 214.046 106.114 214.046C106.749 214.046 107.327 213.893 107.848 213.587C108.381 213.281 108.8 212.845 109.106 212.278C109.412 211.712 109.565 211.054 109.565 210.306ZM122.193 205.665V214.947H121.003V213.315C120.731 213.893 120.312 214.335 119.745 214.641C119.178 214.947 118.544 215.1 117.841 215.1C116.73 215.1 115.824 214.76 115.121 214.08C114.418 213.389 114.067 212.392 114.067 211.088V205.665H115.24V210.952C115.24 211.961 115.489 212.732 115.988 213.264C116.498 213.797 117.189 214.063 118.062 214.063C118.957 214.063 119.671 213.78 120.204 213.213C120.737 212.647 121.003 211.814 121.003 210.714V205.665H122.193ZM125.046 210.289C125.046 209.337 125.233 208.504 125.607 207.79C125.992 207.065 126.519 206.51 127.188 206.124C127.868 205.728 128.633 205.529 129.483 205.529C130.367 205.529 131.126 205.733 131.761 206.141C132.407 206.549 132.872 207.071 133.155 207.705V205.665H134.345V214.947H133.155V212.89C132.86 213.525 132.39 214.052 131.744 214.471C131.109 214.879 130.35 215.083 129.466 215.083C128.627 215.083 127.868 214.885 127.188 214.488C126.519 214.092 125.992 213.531 125.607 212.805C125.233 212.08 125.046 211.241 125.046 210.289ZM133.155 210.306C133.155 209.558 133.002 208.901 132.696 208.334C132.39 207.768 131.971 207.331 131.438 207.025C130.917 206.719 130.339 206.566 129.704 206.566C129.047 206.566 128.457 206.714 127.936 207.008C127.415 207.303 127.001 207.734 126.695 208.3C126.4 208.856 126.253 209.519 126.253 210.289C126.253 211.049 126.4 211.717 126.695 212.295C127.001 212.862 127.415 213.298 127.936 213.604C128.457 213.899 129.047 214.046 129.704 214.046C130.339 214.046 130.917 213.893 131.438 213.587C131.971 213.281 132.39 212.845 132.696 212.278C133.002 211.712 133.155 211.054 133.155 210.306ZM148.792 205.495C149.88 205.495 150.764 205.841 151.444 206.532C152.135 207.212 152.481 208.204 152.481 209.507V214.947H151.308V209.643C151.308 208.635 151.064 207.864 150.577 207.331C150.089 206.799 149.426 206.532 148.588 206.532C147.715 206.532 147.018 206.821 146.497 207.399C145.975 207.977 145.715 208.816 145.715 209.915V214.947H144.542V209.643C144.542 208.635 144.298 207.864 143.811 207.331C143.323 206.799 142.655 206.532 141.805 206.532C140.932 206.532 140.235 206.821 139.714 207.399C139.192 207.977 138.932 208.816 138.932 209.915V214.947H137.742V205.665H138.932V207.263C139.226 206.685 139.646 206.249 140.19 205.954C140.734 205.648 141.34 205.495 142.009 205.495C142.813 205.495 143.516 205.688 144.117 206.073C144.729 206.459 145.171 207.025 145.443 207.773C145.692 207.037 146.117 206.476 146.718 206.09C147.33 205.694 148.021 205.495 148.792 205.495Z" fill="white"/>
</svg>
