<svg width="21" height="20" viewBox="0 0 21 20" fill="none" xmlns="http://www.w3.org/2000/svg">
<path d="M7.94039 19.54C8.90039 19.83 9.87039 20 10.9004 20C13.5526 20 16.0961 18.9464 17.9715 17.0711C19.8468 15.1957 20.9004 12.6522 20.9004 10C20.9004 8.68678 20.6417 7.38642 20.1392 6.17317C19.6366 4.95991 18.9 3.85752 17.9715 2.92893C17.0429 2.00035 15.9405 1.26375 14.7272 0.761205C13.514 0.258658 12.2136 0 10.9004 0C9.58717 0 8.28681 0.258658 7.07356 0.761205C5.8603 1.26375 4.75791 2.00035 3.82932 2.92893C1.95396 4.8043 0.900391 7.34784 0.900391 10C0.900391 14.25 3.57039 17.9 7.34039 19.34C7.25039 18.56 7.16039 17.27 7.34039 16.38L8.49039 11.44C8.49039 11.44 8.20039 10.86 8.20039 9.94C8.20039 8.56 9.06039 7.53 10.0404 7.53C10.9004 7.53 11.3004 8.16 11.3004 8.97C11.3004 9.83 10.7304 11.06 10.4404 12.24C10.2704 13.22 10.9604 14.08 11.9604 14.08C13.7404 14.08 15.1204 12.18 15.1204 9.5C15.1204 7.1 13.4004 5.46 10.9304 5.46C8.11039 5.46 6.45039 7.56 6.45039 9.77C6.45039 10.63 6.73039 11.5 7.19039 12.07C7.28039 12.13 7.28039 12.21 7.25039 12.36L6.96039 13.45C6.96039 13.62 6.85039 13.68 6.68039 13.56C5.40039 13 4.66039 11.18 4.66039 9.71C4.66039 6.55 6.90039 3.68 11.2204 3.68C14.6604 3.68 17.3404 6.15 17.3404 9.43C17.3404 12.87 15.2104 15.63 12.1604 15.63C11.1904 15.63 10.2404 15.11 9.90039 14.5L9.23039 16.87C9.00039 17.73 8.37039 18.88 7.94039 19.57V19.54Z" fill="#6D95FC"/>
</svg>
